G04 #@! TF.GenerationSoftware,KiCad,Pcbnew,(5.1.4)-1*
G04 #@! TF.CreationDate,2021-01-09T01:18:09-06:00*
G04 #@! TF.ProjectId,semi,73656d69-2e6b-4696-9361-645f70636258,rev?*
G04 #@! TF.SameCoordinates,Original*
G04 #@! TF.FileFunction,Legend,Bot*
G04 #@! TF.FilePolarity,Positive*
%FSLAX46Y46*%
G04 Gerber Fmt 4.6, Leading zero omitted, Abs format (unit mm)*
G04 Created by KiCad (PCBNEW (5.1.4)-1) date 2021-01-09 01:18:09*
%MOMM*%
%LPD*%
G04 APERTURE LIST*
%ADD10C,2.000000*%
%ADD11C,0.120000*%
%ADD12C,0.150000*%
G04 APERTURE END LIST*
D10*
X195010857Y-41504428D02*
X192629904Y-42218714D01*
X187868000Y-42218714D01*
X185487047Y-41504428D01*
X184296571Y-40075857D01*
X184296571Y-39361571D01*
X185487047Y-37933000D01*
X187868000Y-37218714D01*
X191439428Y-37218714D01*
X193820380Y-36504428D01*
X195010857Y-35075857D01*
X195010857Y-34361571D01*
X193820380Y-32933000D01*
X191439428Y-32218714D01*
X187868000Y-32218714D01*
X185487047Y-32933000D01*
X164058476Y-41504428D02*
X166439428Y-42218714D01*
X171201333Y-42218714D01*
X173582285Y-41504428D01*
X174772761Y-40075857D01*
X174772761Y-34361571D01*
X173582285Y-32933000D01*
X171201333Y-32218714D01*
X166439428Y-32218714D01*
X164058476Y-32933000D01*
X162868000Y-34361571D01*
X162868000Y-35790142D01*
X174772761Y-37218714D01*
X152153714Y-42218714D02*
X152153714Y-32218714D01*
X152153714Y-33647285D02*
X150963238Y-32933000D01*
X148582285Y-32218714D01*
X145010857Y-32218714D01*
X142629904Y-32933000D01*
X141439428Y-34361571D01*
X141439428Y-42218714D01*
X141439428Y-34361571D02*
X140248952Y-32933000D01*
X137868000Y-32218714D01*
X134296571Y-32218714D01*
X131915619Y-32933000D01*
X130725142Y-34361571D01*
X130725142Y-42218714D01*
X118820380Y-42218714D02*
X118820380Y-32218714D01*
X118820380Y-27218714D02*
X120010857Y-27933000D01*
X118820380Y-28647285D01*
X117629904Y-27933000D01*
X118820380Y-27218714D01*
X118820380Y-28647285D01*
X105725142Y-41504428D02*
X105725142Y-42218714D01*
X106915619Y-43647285D01*
X108106095Y-44361571D01*
X106915619Y-32933000D02*
X105725142Y-33647285D01*
X106915619Y-34361571D01*
X108106095Y-33647285D01*
X106915619Y-32933000D01*
X106915619Y-34361571D01*
D11*
X26070779Y-2923000D02*
X25745221Y-2923000D01*
X26070779Y-1903000D02*
X25745221Y-1903000D01*
X41497000Y-40170000D02*
X41497000Y-40570000D01*
X41297000Y-40170000D02*
X41297000Y-40570000D01*
X37697000Y-40170000D02*
X37697000Y-40570000D01*
X41497000Y-38170000D02*
X41497000Y-40170000D01*
X40297000Y-40570000D02*
X40297000Y-40970000D01*
X40297000Y-40570000D02*
X41297000Y-40570000D01*
X41297000Y-40170000D02*
X41297000Y-38170000D01*
X41297000Y-38170000D02*
X40297000Y-38170000D01*
X38497000Y-38170000D02*
X37697000Y-38170000D01*
X37697000Y-38170000D02*
X37697000Y-40170000D01*
X37697000Y-40570000D02*
X38497000Y-40570000D01*
D12*
X24670000Y-34703000D02*
X25245000Y-34703000D01*
X24670000Y-45053000D02*
X25345000Y-45053000D01*
X35020000Y-45053000D02*
X34345000Y-45053000D01*
X35020000Y-34703000D02*
X34345000Y-34703000D01*
X24670000Y-34703000D02*
X24670000Y-35378000D01*
X35020000Y-34703000D02*
X35020000Y-35378000D01*
X35020000Y-45053000D02*
X35020000Y-44378000D01*
X24670000Y-45053000D02*
X24670000Y-44378000D01*
X25245000Y-34703000D02*
X25245000Y-33428000D01*
D11*
X18023000Y-7407000D02*
X20473000Y-7407000D01*
X19823000Y-10627000D02*
X18023000Y-10627000D01*
D12*
X53384200Y-38097600D02*
G75*
G03X53384200Y-38097600I-1000000J0D01*
G01*
X54984200Y-35497600D02*
X49784200Y-35497600D01*
X54984200Y-40697600D02*
X54984200Y-35497600D01*
X49784200Y-40697600D02*
X54984200Y-40697600D01*
X49784200Y-35497600D02*
X49784200Y-40697600D01*
D11*
X24856221Y-47115000D02*
X25181779Y-47115000D01*
X24856221Y-48135000D02*
X25181779Y-48135000D01*
X19556000Y-12862779D02*
X19556000Y-12537221D01*
X20576000Y-12862779D02*
X20576000Y-12537221D01*
X17270000Y-12862779D02*
X17270000Y-12537221D01*
X18290000Y-12862779D02*
X18290000Y-12537221D01*
X26070779Y-5082000D02*
X25745221Y-5082000D01*
X26070779Y-4062000D02*
X25745221Y-4062000D01*
X14734000Y-6695221D02*
X14734000Y-7020779D01*
X13714000Y-6695221D02*
X13714000Y-7020779D01*
X46099000Y-35849779D02*
X46099000Y-35524221D01*
X47119000Y-35849779D02*
X47119000Y-35524221D01*
X14584000Y-13813064D02*
X14584000Y-12608936D01*
X16404000Y-13813064D02*
X16404000Y-12608936D01*
X25562779Y-32006000D02*
X25237221Y-32006000D01*
X25562779Y-30986000D02*
X25237221Y-30986000D01*
X39080221Y-36066000D02*
X39405779Y-36066000D01*
X39080221Y-37086000D02*
X39405779Y-37086000D01*
X33873221Y-47115000D02*
X34198779Y-47115000D01*
X33873221Y-48135000D02*
X34198779Y-48135000D01*
X21588000Y-44104779D02*
X21588000Y-43779221D01*
X22608000Y-44104779D02*
X22608000Y-43779221D01*
X22608000Y-35524221D02*
X22608000Y-35849779D01*
X21588000Y-35524221D02*
X21588000Y-35849779D01*
X30605000Y-31531779D02*
X30605000Y-31206221D01*
X31625000Y-31531779D02*
X31625000Y-31206221D01*
X29081000Y-31531779D02*
X29081000Y-31206221D01*
X30101000Y-31531779D02*
X30101000Y-31206221D01*
X13081000Y-16466000D02*
X13081000Y-12566000D01*
X11081000Y-16466000D02*
X11081000Y-12566000D01*
X13081000Y-16466000D02*
X11081000Y-16466000D01*
X32131000Y-16466000D02*
X32131000Y-12566000D01*
X30131000Y-16466000D02*
X30131000Y-12566000D01*
X32131000Y-16466000D02*
X30131000Y-16466000D01*
X51181000Y-16466000D02*
X51181000Y-12566000D01*
X49181000Y-16466000D02*
X49181000Y-12566000D01*
X51181000Y-16466000D02*
X49181000Y-16466000D01*
X70231000Y-16466000D02*
X70231000Y-12566000D01*
X68231000Y-16466000D02*
X68231000Y-12566000D01*
X70231000Y-16466000D02*
X68231000Y-16466000D01*
X89281000Y-16466000D02*
X89281000Y-12566000D01*
X87281000Y-16466000D02*
X87281000Y-12566000D01*
X89281000Y-16466000D02*
X87281000Y-16466000D01*
X108331000Y-16466000D02*
X108331000Y-12566000D01*
X106331000Y-16466000D02*
X106331000Y-12566000D01*
X108331000Y-16466000D02*
X106331000Y-16466000D01*
X127381000Y-16466000D02*
X127381000Y-12566000D01*
X125381000Y-16466000D02*
X125381000Y-12566000D01*
X127381000Y-16466000D02*
X125381000Y-16466000D01*
X146431000Y-16466000D02*
X146431000Y-12566000D01*
X144431000Y-16466000D02*
X144431000Y-12566000D01*
X146431000Y-16466000D02*
X144431000Y-16466000D01*
X165481000Y-16466000D02*
X165481000Y-12566000D01*
X163481000Y-16466000D02*
X163481000Y-12566000D01*
X165481000Y-16466000D02*
X163481000Y-16466000D01*
X184531000Y-16466000D02*
X184531000Y-12566000D01*
X182531000Y-16466000D02*
X182531000Y-12566000D01*
X184531000Y-16466000D02*
X182531000Y-16466000D01*
X203581000Y-16466000D02*
X203581000Y-12566000D01*
X201581000Y-16466000D02*
X201581000Y-12566000D01*
X203581000Y-16466000D02*
X201581000Y-16466000D01*
X225028000Y-16474000D02*
X225028000Y-12574000D01*
X223028000Y-16474000D02*
X223028000Y-12574000D01*
X225028000Y-16474000D02*
X223028000Y-16474000D01*
X13478000Y-16165000D02*
X13478000Y-20065000D01*
X15478000Y-16165000D02*
X15478000Y-20065000D01*
X13478000Y-16165000D02*
X15478000Y-16165000D01*
X34893500Y-16157000D02*
X34893500Y-20057000D01*
X36893500Y-16157000D02*
X36893500Y-20057000D01*
X34893500Y-16157000D02*
X36893500Y-16157000D01*
X53943500Y-16157000D02*
X53943500Y-20057000D01*
X55943500Y-16157000D02*
X55943500Y-20057000D01*
X53943500Y-16157000D02*
X55943500Y-16157000D01*
X72993500Y-16157000D02*
X72993500Y-20057000D01*
X74993500Y-16157000D02*
X74993500Y-20057000D01*
X72993500Y-16157000D02*
X74993500Y-16157000D01*
X92043500Y-16157000D02*
X92043500Y-20057000D01*
X94043500Y-16157000D02*
X94043500Y-20057000D01*
X92043500Y-16157000D02*
X94043500Y-16157000D01*
X111093500Y-16157000D02*
X111093500Y-20057000D01*
X113093500Y-16157000D02*
X113093500Y-20057000D01*
X111093500Y-16157000D02*
X113093500Y-16157000D01*
X130143500Y-16157000D02*
X130143500Y-20057000D01*
X132143500Y-16157000D02*
X132143500Y-20057000D01*
X130143500Y-16157000D02*
X132143500Y-16157000D01*
X149193500Y-16157000D02*
X149193500Y-20057000D01*
X151193500Y-16157000D02*
X151193500Y-20057000D01*
X149193500Y-16157000D02*
X151193500Y-16157000D01*
X168243500Y-16157000D02*
X168243500Y-20057000D01*
X170243500Y-16157000D02*
X170243500Y-20057000D01*
X168243500Y-16157000D02*
X170243500Y-16157000D01*
X187293500Y-16157000D02*
X187293500Y-20057000D01*
X189293500Y-16157000D02*
X189293500Y-20057000D01*
X187293500Y-16157000D02*
X189293500Y-16157000D01*
X206343500Y-16157000D02*
X206343500Y-20057000D01*
X208343500Y-16157000D02*
X208343500Y-20057000D01*
X206343500Y-16157000D02*
X208343500Y-16157000D01*
X225393500Y-16157000D02*
X225393500Y-20057000D01*
X227393500Y-16157000D02*
X227393500Y-20057000D01*
X225393500Y-16157000D02*
X227393500Y-16157000D01*
X20177000Y-54566000D02*
X20177000Y-50666000D01*
X18177000Y-54566000D02*
X18177000Y-50666000D01*
X20177000Y-54566000D02*
X18177000Y-54566000D01*
X46418500Y-54566000D02*
X46418500Y-50666000D01*
X44418500Y-54566000D02*
X44418500Y-50666000D01*
X46418500Y-54566000D02*
X44418500Y-54566000D01*
X65468500Y-54566000D02*
X65468500Y-50666000D01*
X63468500Y-54566000D02*
X63468500Y-50666000D01*
X65468500Y-54566000D02*
X63468500Y-54566000D01*
X84518500Y-54566000D02*
X84518500Y-50666000D01*
X82518500Y-54566000D02*
X82518500Y-50666000D01*
X84518500Y-54566000D02*
X82518500Y-54566000D01*
X103568500Y-54566000D02*
X103568500Y-50666000D01*
X101568500Y-54566000D02*
X101568500Y-50666000D01*
X103568500Y-54566000D02*
X101568500Y-54566000D01*
X122618500Y-54566000D02*
X122618500Y-50666000D01*
X120618500Y-54566000D02*
X120618500Y-50666000D01*
X122618500Y-54566000D02*
X120618500Y-54566000D01*
X141668500Y-54566000D02*
X141668500Y-50666000D01*
X139668500Y-54566000D02*
X139668500Y-50666000D01*
X141668500Y-54566000D02*
X139668500Y-54566000D01*
X160718500Y-54566000D02*
X160718500Y-50666000D01*
X158718500Y-54566000D02*
X158718500Y-50666000D01*
X160718500Y-54566000D02*
X158718500Y-54566000D01*
X179768500Y-54566000D02*
X179768500Y-50666000D01*
X177768500Y-54566000D02*
X177768500Y-50666000D01*
X179768500Y-54566000D02*
X177768500Y-54566000D01*
X198818500Y-54566000D02*
X198818500Y-50666000D01*
X196818500Y-54566000D02*
X196818500Y-50666000D01*
X198818500Y-54566000D02*
X196818500Y-54566000D01*
X222615000Y-54574000D02*
X222615000Y-50674000D01*
X220615000Y-54574000D02*
X220615000Y-50674000D01*
X222615000Y-54574000D02*
X220615000Y-54574000D01*
X13478000Y-54265000D02*
X13478000Y-58165000D01*
X15478000Y-54265000D02*
X15478000Y-58165000D01*
X13478000Y-54265000D02*
X15478000Y-54265000D01*
X34941000Y-54265000D02*
X34941000Y-58165000D01*
X36941000Y-54265000D02*
X36941000Y-58165000D01*
X34941000Y-54265000D02*
X36941000Y-54265000D01*
X56404000Y-54265000D02*
X56404000Y-58165000D01*
X58404000Y-54265000D02*
X58404000Y-58165000D01*
X56404000Y-54265000D02*
X58404000Y-54265000D01*
X94504000Y-54265000D02*
X94504000Y-58165000D01*
X96504000Y-54265000D02*
X96504000Y-58165000D01*
X94504000Y-54265000D02*
X96504000Y-54265000D01*
X118253000Y-54265000D02*
X118253000Y-58165000D01*
X120253000Y-54265000D02*
X120253000Y-58165000D01*
X118253000Y-54265000D02*
X120253000Y-54265000D01*
X149241000Y-54265000D02*
X149241000Y-58165000D01*
X151241000Y-54265000D02*
X151241000Y-58165000D01*
X149241000Y-54265000D02*
X151241000Y-54265000D01*
X187341000Y-54265000D02*
X187341000Y-58165000D01*
X189341000Y-54265000D02*
X189341000Y-58165000D01*
X187341000Y-54265000D02*
X189341000Y-54265000D01*
X206391000Y-54265000D02*
X206391000Y-58165000D01*
X208391000Y-54265000D02*
X208391000Y-58165000D01*
X206391000Y-54265000D02*
X208391000Y-54265000D01*
X225441000Y-54257000D02*
X225441000Y-58157000D01*
X227441000Y-54257000D02*
X227441000Y-58157000D01*
X225441000Y-54257000D02*
X227441000Y-54257000D01*
D12*
X26074666Y-1435380D02*
X26408000Y-959190D01*
X26646095Y-1435380D02*
X26646095Y-435380D01*
X26265142Y-435380D01*
X26169904Y-483000D01*
X26122285Y-530619D01*
X26074666Y-625857D01*
X26074666Y-768714D01*
X26122285Y-863952D01*
X26169904Y-911571D01*
X26265142Y-959190D01*
X26646095Y-959190D01*
X25741333Y-435380D02*
X25074666Y-435380D01*
X25503238Y-1435380D01*
X39973190Y-37346190D02*
X39973190Y-37822380D01*
X40306523Y-36822380D02*
X39973190Y-37346190D01*
X39639857Y-36822380D01*
X38782714Y-37822380D02*
X39354142Y-37822380D01*
X39068428Y-37822380D02*
X39068428Y-36822380D01*
X39163666Y-36965238D01*
X39258904Y-37060476D01*
X39354142Y-37108095D01*
X20661095Y-6035380D02*
X20661095Y-6844904D01*
X20613476Y-6940142D01*
X20565857Y-6987761D01*
X20470619Y-7035380D01*
X20280142Y-7035380D01*
X20184904Y-6987761D01*
X20137285Y-6940142D01*
X20089666Y-6844904D01*
X20089666Y-6035380D01*
X19661095Y-6987761D02*
X19518238Y-7035380D01*
X19280142Y-7035380D01*
X19184904Y-6987761D01*
X19137285Y-6940142D01*
X19089666Y-6844904D01*
X19089666Y-6749666D01*
X19137285Y-6654428D01*
X19184904Y-6606809D01*
X19280142Y-6559190D01*
X19470619Y-6511571D01*
X19565857Y-6463952D01*
X19613476Y-6416333D01*
X19661095Y-6321095D01*
X19661095Y-6225857D01*
X19613476Y-6130619D01*
X19565857Y-6083000D01*
X19470619Y-6035380D01*
X19232523Y-6035380D01*
X19089666Y-6083000D01*
X18327761Y-6511571D02*
X18184904Y-6559190D01*
X18137285Y-6606809D01*
X18089666Y-6702047D01*
X18089666Y-6844904D01*
X18137285Y-6940142D01*
X18184904Y-6987761D01*
X18280142Y-7035380D01*
X18661095Y-7035380D01*
X18661095Y-6035380D01*
X18327761Y-6035380D01*
X18232523Y-6083000D01*
X18184904Y-6130619D01*
X18137285Y-6225857D01*
X18137285Y-6321095D01*
X18184904Y-6416333D01*
X18232523Y-6463952D01*
X18327761Y-6511571D01*
X18661095Y-6511571D01*
X17137285Y-7035380D02*
X17708714Y-7035380D01*
X17422999Y-7035380D02*
X17422999Y-6035380D01*
X17518238Y-6178238D01*
X17613476Y-6273476D01*
X17708714Y-6321095D01*
X21847380Y-39116095D02*
X22656904Y-39116095D01*
X22752142Y-39163714D01*
X22799761Y-39211333D01*
X22847380Y-39306571D01*
X22847380Y-39497047D01*
X22799761Y-39592285D01*
X22752142Y-39639904D01*
X22656904Y-39687523D01*
X21847380Y-39687523D01*
X21942619Y-40116095D02*
X21895000Y-40163714D01*
X21847380Y-40258952D01*
X21847380Y-40497047D01*
X21895000Y-40592285D01*
X21942619Y-40639904D01*
X22037857Y-40687523D01*
X22133095Y-40687523D01*
X22275952Y-40639904D01*
X22847380Y-40068476D01*
X22847380Y-40687523D01*
X19684904Y-5569380D02*
X19684904Y-6378904D01*
X19637285Y-6474142D01*
X19589666Y-6521761D01*
X19494428Y-6569380D01*
X19303952Y-6569380D01*
X19208714Y-6521761D01*
X19161095Y-6474142D01*
X19113476Y-6378904D01*
X19113476Y-5569380D01*
X18113476Y-6569380D02*
X18684904Y-6569380D01*
X18399190Y-6569380D02*
X18399190Y-5569380D01*
X18494428Y-5712238D01*
X18589666Y-5807476D01*
X18684904Y-5855095D01*
X56852961Y-36764266D02*
X56900580Y-36907123D01*
X56900580Y-37145219D01*
X56852961Y-37240457D01*
X56805342Y-37288076D01*
X56710104Y-37335695D01*
X56614866Y-37335695D01*
X56519628Y-37288076D01*
X56472009Y-37240457D01*
X56424390Y-37145219D01*
X56376771Y-36954742D01*
X56329152Y-36859504D01*
X56281533Y-36811885D01*
X56186295Y-36764266D01*
X56091057Y-36764266D01*
X55995819Y-36811885D01*
X55948200Y-36859504D01*
X55900580Y-36954742D01*
X55900580Y-37192838D01*
X55948200Y-37335695D01*
X55900580Y-37669028D02*
X56900580Y-37907123D01*
X56186295Y-38097600D01*
X56900580Y-38288076D01*
X55900580Y-38526171D01*
X56900580Y-39430933D02*
X56900580Y-38859504D01*
X56900580Y-39145219D02*
X55900580Y-39145219D01*
X56043438Y-39049980D01*
X56138676Y-38954742D01*
X56186295Y-38859504D01*
X25185666Y-49507380D02*
X25519000Y-49031190D01*
X25757095Y-49507380D02*
X25757095Y-48507380D01*
X25376142Y-48507380D01*
X25280904Y-48555000D01*
X25233285Y-48602619D01*
X25185666Y-48697857D01*
X25185666Y-48840714D01*
X25233285Y-48935952D01*
X25280904Y-48983571D01*
X25376142Y-49031190D01*
X25757095Y-49031190D01*
X24328523Y-48507380D02*
X24519000Y-48507380D01*
X24614238Y-48555000D01*
X24661857Y-48602619D01*
X24757095Y-48745476D01*
X24804714Y-48935952D01*
X24804714Y-49316904D01*
X24757095Y-49412142D01*
X24709476Y-49459761D01*
X24614238Y-49507380D01*
X24423761Y-49507380D01*
X24328523Y-49459761D01*
X24280904Y-49412142D01*
X24233285Y-49316904D01*
X24233285Y-49078809D01*
X24280904Y-48983571D01*
X24328523Y-48935952D01*
X24423761Y-48888333D01*
X24614238Y-48888333D01*
X24709476Y-48935952D01*
X24757095Y-48983571D01*
X24804714Y-49078809D01*
X21948380Y-12533333D02*
X21472190Y-12200000D01*
X21948380Y-11961904D02*
X20948380Y-11961904D01*
X20948380Y-12342857D01*
X20996000Y-12438095D01*
X21043619Y-12485714D01*
X21138857Y-12533333D01*
X21281714Y-12533333D01*
X21376952Y-12485714D01*
X21424571Y-12438095D01*
X21472190Y-12342857D01*
X21472190Y-11961904D01*
X20948380Y-13438095D02*
X20948380Y-12961904D01*
X21424571Y-12914285D01*
X21376952Y-12961904D01*
X21329333Y-13057142D01*
X21329333Y-13295238D01*
X21376952Y-13390476D01*
X21424571Y-13438095D01*
X21519809Y-13485714D01*
X21757904Y-13485714D01*
X21853142Y-13438095D01*
X21900761Y-13390476D01*
X21948380Y-13295238D01*
X21948380Y-13057142D01*
X21900761Y-12961904D01*
X21853142Y-12914285D01*
X19662380Y-12533333D02*
X19186190Y-12200000D01*
X19662380Y-11961904D02*
X18662380Y-11961904D01*
X18662380Y-12342857D01*
X18710000Y-12438095D01*
X18757619Y-12485714D01*
X18852857Y-12533333D01*
X18995714Y-12533333D01*
X19090952Y-12485714D01*
X19138571Y-12438095D01*
X19186190Y-12342857D01*
X19186190Y-11961904D01*
X18995714Y-13390476D02*
X19662380Y-13390476D01*
X18614761Y-13152380D02*
X19329047Y-12914285D01*
X19329047Y-13533333D01*
X26074666Y-3594380D02*
X26408000Y-3118190D01*
X26646095Y-3594380D02*
X26646095Y-2594380D01*
X26265142Y-2594380D01*
X26169904Y-2642000D01*
X26122285Y-2689619D01*
X26074666Y-2784857D01*
X26074666Y-2927714D01*
X26122285Y-3022952D01*
X26169904Y-3070571D01*
X26265142Y-3118190D01*
X26646095Y-3118190D01*
X25741333Y-2594380D02*
X25122285Y-2594380D01*
X25455619Y-2975333D01*
X25312761Y-2975333D01*
X25217523Y-3022952D01*
X25169904Y-3070571D01*
X25122285Y-3165809D01*
X25122285Y-3403904D01*
X25169904Y-3499142D01*
X25217523Y-3546761D01*
X25312761Y-3594380D01*
X25598476Y-3594380D01*
X25693714Y-3546761D01*
X25741333Y-3499142D01*
X13246380Y-6691333D02*
X12770190Y-6358000D01*
X13246380Y-6119904D02*
X12246380Y-6119904D01*
X12246380Y-6500857D01*
X12294000Y-6596095D01*
X12341619Y-6643714D01*
X12436857Y-6691333D01*
X12579714Y-6691333D01*
X12674952Y-6643714D01*
X12722571Y-6596095D01*
X12770190Y-6500857D01*
X12770190Y-6119904D01*
X12341619Y-7072285D02*
X12294000Y-7119904D01*
X12246380Y-7215142D01*
X12246380Y-7453238D01*
X12294000Y-7548476D01*
X12341619Y-7596095D01*
X12436857Y-7643714D01*
X12532095Y-7643714D01*
X12674952Y-7596095D01*
X13246380Y-7024666D01*
X13246380Y-7643714D01*
X48491380Y-35520333D02*
X48015190Y-35187000D01*
X48491380Y-34948904D02*
X47491380Y-34948904D01*
X47491380Y-35329857D01*
X47539000Y-35425095D01*
X47586619Y-35472714D01*
X47681857Y-35520333D01*
X47824714Y-35520333D01*
X47919952Y-35472714D01*
X47967571Y-35425095D01*
X48015190Y-35329857D01*
X48015190Y-34948904D01*
X48491380Y-36472714D02*
X48491380Y-35901285D01*
X48491380Y-36187000D02*
X47491380Y-36187000D01*
X47634238Y-36091761D01*
X47729476Y-35996523D01*
X47777095Y-35901285D01*
X17242571Y-12877666D02*
X17242571Y-12544333D01*
X17766380Y-12544333D02*
X16766380Y-12544333D01*
X16766380Y-13020523D01*
X17766380Y-13925285D02*
X17766380Y-13353857D01*
X17766380Y-13639571D02*
X16766380Y-13639571D01*
X16909238Y-13544333D01*
X17004476Y-13449095D01*
X17052095Y-13353857D01*
X25566666Y-30423142D02*
X25614285Y-30470761D01*
X25757142Y-30518380D01*
X25852380Y-30518380D01*
X25995238Y-30470761D01*
X26090476Y-30375523D01*
X26138095Y-30280285D01*
X26185714Y-30089809D01*
X26185714Y-29946952D01*
X26138095Y-29756476D01*
X26090476Y-29661238D01*
X25995238Y-29566000D01*
X25852380Y-29518380D01*
X25757142Y-29518380D01*
X25614285Y-29566000D01*
X25566666Y-29613619D01*
X25233333Y-29518380D02*
X24566666Y-29518380D01*
X24995238Y-30518380D01*
X39409666Y-38363142D02*
X39457285Y-38410761D01*
X39600142Y-38458380D01*
X39695380Y-38458380D01*
X39838238Y-38410761D01*
X39933476Y-38315523D01*
X39981095Y-38220285D01*
X40028714Y-38029809D01*
X40028714Y-37886952D01*
X39981095Y-37696476D01*
X39933476Y-37601238D01*
X39838238Y-37506000D01*
X39695380Y-37458380D01*
X39600142Y-37458380D01*
X39457285Y-37506000D01*
X39409666Y-37553619D01*
X38552523Y-37458380D02*
X38743000Y-37458380D01*
X38838238Y-37506000D01*
X38885857Y-37553619D01*
X38981095Y-37696476D01*
X39028714Y-37886952D01*
X39028714Y-38267904D01*
X38981095Y-38363142D01*
X38933476Y-38410761D01*
X38838238Y-38458380D01*
X38647761Y-38458380D01*
X38552523Y-38410761D01*
X38504904Y-38363142D01*
X38457285Y-38267904D01*
X38457285Y-38029809D01*
X38504904Y-37934571D01*
X38552523Y-37886952D01*
X38647761Y-37839333D01*
X38838238Y-37839333D01*
X38933476Y-37886952D01*
X38981095Y-37934571D01*
X39028714Y-38029809D01*
X34202666Y-49412142D02*
X34250285Y-49459761D01*
X34393142Y-49507380D01*
X34488380Y-49507380D01*
X34631238Y-49459761D01*
X34726476Y-49364523D01*
X34774095Y-49269285D01*
X34821714Y-49078809D01*
X34821714Y-48935952D01*
X34774095Y-48745476D01*
X34726476Y-48650238D01*
X34631238Y-48555000D01*
X34488380Y-48507380D01*
X34393142Y-48507380D01*
X34250285Y-48555000D01*
X34202666Y-48602619D01*
X33297904Y-48507380D02*
X33774095Y-48507380D01*
X33821714Y-48983571D01*
X33774095Y-48935952D01*
X33678857Y-48888333D01*
X33440761Y-48888333D01*
X33345523Y-48935952D01*
X33297904Y-48983571D01*
X33250285Y-49078809D01*
X33250285Y-49316904D01*
X33297904Y-49412142D01*
X33345523Y-49459761D01*
X33440761Y-49507380D01*
X33678857Y-49507380D01*
X33774095Y-49459761D01*
X33821714Y-49412142D01*
X23885142Y-43775333D02*
X23932761Y-43727714D01*
X23980380Y-43584857D01*
X23980380Y-43489619D01*
X23932761Y-43346761D01*
X23837523Y-43251523D01*
X23742285Y-43203904D01*
X23551809Y-43156285D01*
X23408952Y-43156285D01*
X23218476Y-43203904D01*
X23123238Y-43251523D01*
X23028000Y-43346761D01*
X22980380Y-43489619D01*
X22980380Y-43584857D01*
X23028000Y-43727714D01*
X23075619Y-43775333D01*
X23313714Y-44632476D02*
X23980380Y-44632476D01*
X22932761Y-44394380D02*
X23647047Y-44156285D01*
X23647047Y-44775333D01*
X21025142Y-35520333D02*
X21072761Y-35472714D01*
X21120380Y-35329857D01*
X21120380Y-35234619D01*
X21072761Y-35091761D01*
X20977523Y-34996523D01*
X20882285Y-34948904D01*
X20691809Y-34901285D01*
X20548952Y-34901285D01*
X20358476Y-34948904D01*
X20263238Y-34996523D01*
X20168000Y-35091761D01*
X20120380Y-35234619D01*
X20120380Y-35329857D01*
X20168000Y-35472714D01*
X20215619Y-35520333D01*
X20120380Y-35853666D02*
X20120380Y-36472714D01*
X20501333Y-36139380D01*
X20501333Y-36282238D01*
X20548952Y-36377476D01*
X20596571Y-36425095D01*
X20691809Y-36472714D01*
X20929904Y-36472714D01*
X21025142Y-36425095D01*
X21072761Y-36377476D01*
X21120380Y-36282238D01*
X21120380Y-35996523D01*
X21072761Y-35901285D01*
X21025142Y-35853666D01*
X32902142Y-31202333D02*
X32949761Y-31154714D01*
X32997380Y-31011857D01*
X32997380Y-30916619D01*
X32949761Y-30773761D01*
X32854523Y-30678523D01*
X32759285Y-30630904D01*
X32568809Y-30583285D01*
X32425952Y-30583285D01*
X32235476Y-30630904D01*
X32140238Y-30678523D01*
X32045000Y-30773761D01*
X31997380Y-30916619D01*
X31997380Y-31011857D01*
X32045000Y-31154714D01*
X32092619Y-31202333D01*
X32092619Y-31583285D02*
X32045000Y-31630904D01*
X31997380Y-31726142D01*
X31997380Y-31964238D01*
X32045000Y-32059476D01*
X32092619Y-32107095D01*
X32187857Y-32154714D01*
X32283095Y-32154714D01*
X32425952Y-32107095D01*
X32997380Y-31535666D01*
X32997380Y-32154714D01*
X31378142Y-31202333D02*
X31425761Y-31154714D01*
X31473380Y-31011857D01*
X31473380Y-30916619D01*
X31425761Y-30773761D01*
X31330523Y-30678523D01*
X31235285Y-30630904D01*
X31044809Y-30583285D01*
X30901952Y-30583285D01*
X30711476Y-30630904D01*
X30616238Y-30678523D01*
X30521000Y-30773761D01*
X30473380Y-30916619D01*
X30473380Y-31011857D01*
X30521000Y-31154714D01*
X30568619Y-31202333D01*
X31473380Y-32154714D02*
X31473380Y-31583285D01*
X31473380Y-31869000D02*
X30473380Y-31869000D01*
X30616238Y-31773761D01*
X30711476Y-31678523D01*
X30759095Y-31583285D01*
X14533380Y-13096952D02*
X13533380Y-13096952D01*
X13533380Y-13335047D01*
X13581000Y-13477904D01*
X13676238Y-13573142D01*
X13771476Y-13620761D01*
X13961952Y-13668380D01*
X14104809Y-13668380D01*
X14295285Y-13620761D01*
X14390523Y-13573142D01*
X14485761Y-13477904D01*
X14533380Y-13335047D01*
X14533380Y-13096952D01*
X14628619Y-13858857D02*
X14628619Y-14620761D01*
X14533380Y-15382666D02*
X14533380Y-14811238D01*
X14533380Y-15096952D02*
X13533380Y-15096952D01*
X13676238Y-15001714D01*
X13771476Y-14906476D01*
X13819095Y-14811238D01*
X33583380Y-13096952D02*
X32583380Y-13096952D01*
X32583380Y-13335047D01*
X32631000Y-13477904D01*
X32726238Y-13573142D01*
X32821476Y-13620761D01*
X33011952Y-13668380D01*
X33154809Y-13668380D01*
X33345285Y-13620761D01*
X33440523Y-13573142D01*
X33535761Y-13477904D01*
X33583380Y-13335047D01*
X33583380Y-13096952D01*
X33678619Y-13858857D02*
X33678619Y-14620761D01*
X32678619Y-14811238D02*
X32631000Y-14858857D01*
X32583380Y-14954095D01*
X32583380Y-15192190D01*
X32631000Y-15287428D01*
X32678619Y-15335047D01*
X32773857Y-15382666D01*
X32869095Y-15382666D01*
X33011952Y-15335047D01*
X33583380Y-14763619D01*
X33583380Y-15382666D01*
X52633380Y-13096952D02*
X51633380Y-13096952D01*
X51633380Y-13335047D01*
X51681000Y-13477904D01*
X51776238Y-13573142D01*
X51871476Y-13620761D01*
X52061952Y-13668380D01*
X52204809Y-13668380D01*
X52395285Y-13620761D01*
X52490523Y-13573142D01*
X52585761Y-13477904D01*
X52633380Y-13335047D01*
X52633380Y-13096952D01*
X52728619Y-13858857D02*
X52728619Y-14620761D01*
X51633380Y-14763619D02*
X51633380Y-15382666D01*
X52014333Y-15049333D01*
X52014333Y-15192190D01*
X52061952Y-15287428D01*
X52109571Y-15335047D01*
X52204809Y-15382666D01*
X52442904Y-15382666D01*
X52538142Y-15335047D01*
X52585761Y-15287428D01*
X52633380Y-15192190D01*
X52633380Y-14906476D01*
X52585761Y-14811238D01*
X52538142Y-14763619D01*
X71683380Y-13096952D02*
X70683380Y-13096952D01*
X70683380Y-13335047D01*
X70731000Y-13477904D01*
X70826238Y-13573142D01*
X70921476Y-13620761D01*
X71111952Y-13668380D01*
X71254809Y-13668380D01*
X71445285Y-13620761D01*
X71540523Y-13573142D01*
X71635761Y-13477904D01*
X71683380Y-13335047D01*
X71683380Y-13096952D01*
X71778619Y-13858857D02*
X71778619Y-14620761D01*
X71016714Y-15287428D02*
X71683380Y-15287428D01*
X70635761Y-15049333D02*
X71350047Y-14811238D01*
X71350047Y-15430285D01*
X90733380Y-13096952D02*
X89733380Y-13096952D01*
X89733380Y-13335047D01*
X89781000Y-13477904D01*
X89876238Y-13573142D01*
X89971476Y-13620761D01*
X90161952Y-13668380D01*
X90304809Y-13668380D01*
X90495285Y-13620761D01*
X90590523Y-13573142D01*
X90685761Y-13477904D01*
X90733380Y-13335047D01*
X90733380Y-13096952D01*
X90828619Y-13858857D02*
X90828619Y-14620761D01*
X89733380Y-15335047D02*
X89733380Y-14858857D01*
X90209571Y-14811238D01*
X90161952Y-14858857D01*
X90114333Y-14954095D01*
X90114333Y-15192190D01*
X90161952Y-15287428D01*
X90209571Y-15335047D01*
X90304809Y-15382666D01*
X90542904Y-15382666D01*
X90638142Y-15335047D01*
X90685761Y-15287428D01*
X90733380Y-15192190D01*
X90733380Y-14954095D01*
X90685761Y-14858857D01*
X90638142Y-14811238D01*
X109783380Y-13096952D02*
X108783380Y-13096952D01*
X108783380Y-13335047D01*
X108831000Y-13477904D01*
X108926238Y-13573142D01*
X109021476Y-13620761D01*
X109211952Y-13668380D01*
X109354809Y-13668380D01*
X109545285Y-13620761D01*
X109640523Y-13573142D01*
X109735761Y-13477904D01*
X109783380Y-13335047D01*
X109783380Y-13096952D01*
X109878619Y-13858857D02*
X109878619Y-14620761D01*
X108783380Y-15287428D02*
X108783380Y-15096952D01*
X108831000Y-15001714D01*
X108878619Y-14954095D01*
X109021476Y-14858857D01*
X109211952Y-14811238D01*
X109592904Y-14811238D01*
X109688142Y-14858857D01*
X109735761Y-14906476D01*
X109783380Y-15001714D01*
X109783380Y-15192190D01*
X109735761Y-15287428D01*
X109688142Y-15335047D01*
X109592904Y-15382666D01*
X109354809Y-15382666D01*
X109259571Y-15335047D01*
X109211952Y-15287428D01*
X109164333Y-15192190D01*
X109164333Y-15001714D01*
X109211952Y-14906476D01*
X109259571Y-14858857D01*
X109354809Y-14811238D01*
X128833380Y-13096952D02*
X127833380Y-13096952D01*
X127833380Y-13335047D01*
X127881000Y-13477904D01*
X127976238Y-13573142D01*
X128071476Y-13620761D01*
X128261952Y-13668380D01*
X128404809Y-13668380D01*
X128595285Y-13620761D01*
X128690523Y-13573142D01*
X128785761Y-13477904D01*
X128833380Y-13335047D01*
X128833380Y-13096952D01*
X128928619Y-13858857D02*
X128928619Y-14620761D01*
X127833380Y-14763619D02*
X127833380Y-15430285D01*
X128833380Y-15001714D01*
X147883380Y-13096952D02*
X146883380Y-13096952D01*
X146883380Y-13335047D01*
X146931000Y-13477904D01*
X147026238Y-13573142D01*
X147121476Y-13620761D01*
X147311952Y-13668380D01*
X147454809Y-13668380D01*
X147645285Y-13620761D01*
X147740523Y-13573142D01*
X147835761Y-13477904D01*
X147883380Y-13335047D01*
X147883380Y-13096952D01*
X147978619Y-13858857D02*
X147978619Y-14620761D01*
X147311952Y-15001714D02*
X147264333Y-14906476D01*
X147216714Y-14858857D01*
X147121476Y-14811238D01*
X147073857Y-14811238D01*
X146978619Y-14858857D01*
X146931000Y-14906476D01*
X146883380Y-15001714D01*
X146883380Y-15192190D01*
X146931000Y-15287428D01*
X146978619Y-15335047D01*
X147073857Y-15382666D01*
X147121476Y-15382666D01*
X147216714Y-15335047D01*
X147264333Y-15287428D01*
X147311952Y-15192190D01*
X147311952Y-15001714D01*
X147359571Y-14906476D01*
X147407190Y-14858857D01*
X147502428Y-14811238D01*
X147692904Y-14811238D01*
X147788142Y-14858857D01*
X147835761Y-14906476D01*
X147883380Y-15001714D01*
X147883380Y-15192190D01*
X147835761Y-15287428D01*
X147788142Y-15335047D01*
X147692904Y-15382666D01*
X147502428Y-15382666D01*
X147407190Y-15335047D01*
X147359571Y-15287428D01*
X147311952Y-15192190D01*
X166933380Y-13096952D02*
X165933380Y-13096952D01*
X165933380Y-13335047D01*
X165981000Y-13477904D01*
X166076238Y-13573142D01*
X166171476Y-13620761D01*
X166361952Y-13668380D01*
X166504809Y-13668380D01*
X166695285Y-13620761D01*
X166790523Y-13573142D01*
X166885761Y-13477904D01*
X166933380Y-13335047D01*
X166933380Y-13096952D01*
X167028619Y-13858857D02*
X167028619Y-14620761D01*
X166933380Y-14906476D02*
X166933380Y-15096952D01*
X166885761Y-15192190D01*
X166838142Y-15239809D01*
X166695285Y-15335047D01*
X166504809Y-15382666D01*
X166123857Y-15382666D01*
X166028619Y-15335047D01*
X165981000Y-15287428D01*
X165933380Y-15192190D01*
X165933380Y-15001714D01*
X165981000Y-14906476D01*
X166028619Y-14858857D01*
X166123857Y-14811238D01*
X166361952Y-14811238D01*
X166457190Y-14858857D01*
X166504809Y-14906476D01*
X166552428Y-15001714D01*
X166552428Y-15192190D01*
X166504809Y-15287428D01*
X166457190Y-15335047D01*
X166361952Y-15382666D01*
X185983380Y-12620761D02*
X184983380Y-12620761D01*
X184983380Y-12858857D01*
X185031000Y-13001714D01*
X185126238Y-13096952D01*
X185221476Y-13144571D01*
X185411952Y-13192190D01*
X185554809Y-13192190D01*
X185745285Y-13144571D01*
X185840523Y-13096952D01*
X185935761Y-13001714D01*
X185983380Y-12858857D01*
X185983380Y-12620761D01*
X186078619Y-13382666D02*
X186078619Y-14144571D01*
X185983380Y-14906476D02*
X185983380Y-14335047D01*
X185983380Y-14620761D02*
X184983380Y-14620761D01*
X185126238Y-14525523D01*
X185221476Y-14430285D01*
X185269095Y-14335047D01*
X184983380Y-15525523D02*
X184983380Y-15620761D01*
X185031000Y-15716000D01*
X185078619Y-15763619D01*
X185173857Y-15811238D01*
X185364333Y-15858857D01*
X185602428Y-15858857D01*
X185792904Y-15811238D01*
X185888142Y-15763619D01*
X185935761Y-15716000D01*
X185983380Y-15620761D01*
X185983380Y-15525523D01*
X185935761Y-15430285D01*
X185888142Y-15382666D01*
X185792904Y-15335047D01*
X185602428Y-15287428D01*
X185364333Y-15287428D01*
X185173857Y-15335047D01*
X185078619Y-15382666D01*
X185031000Y-15430285D01*
X184983380Y-15525523D01*
X205033380Y-12620761D02*
X204033380Y-12620761D01*
X204033380Y-12858857D01*
X204081000Y-13001714D01*
X204176238Y-13096952D01*
X204271476Y-13144571D01*
X204461952Y-13192190D01*
X204604809Y-13192190D01*
X204795285Y-13144571D01*
X204890523Y-13096952D01*
X204985761Y-13001714D01*
X205033380Y-12858857D01*
X205033380Y-12620761D01*
X205128619Y-13382666D02*
X205128619Y-14144571D01*
X205033380Y-14906476D02*
X205033380Y-14335047D01*
X205033380Y-14620761D02*
X204033380Y-14620761D01*
X204176238Y-14525523D01*
X204271476Y-14430285D01*
X204319095Y-14335047D01*
X205033380Y-15858857D02*
X205033380Y-15287428D01*
X205033380Y-15573142D02*
X204033380Y-15573142D01*
X204176238Y-15477904D01*
X204271476Y-15382666D01*
X204319095Y-15287428D01*
X226480380Y-12628761D02*
X225480380Y-12628761D01*
X225480380Y-12866857D01*
X225528000Y-13009714D01*
X225623238Y-13104952D01*
X225718476Y-13152571D01*
X225908952Y-13200190D01*
X226051809Y-13200190D01*
X226242285Y-13152571D01*
X226337523Y-13104952D01*
X226432761Y-13009714D01*
X226480380Y-12866857D01*
X226480380Y-12628761D01*
X226575619Y-13390666D02*
X226575619Y-14152571D01*
X226480380Y-14914476D02*
X226480380Y-14343047D01*
X226480380Y-14628761D02*
X225480380Y-14628761D01*
X225623238Y-14533523D01*
X225718476Y-14438285D01*
X225766095Y-14343047D01*
X225575619Y-15295428D02*
X225528000Y-15343047D01*
X225480380Y-15438285D01*
X225480380Y-15676380D01*
X225528000Y-15771619D01*
X225575619Y-15819238D01*
X225670857Y-15866857D01*
X225766095Y-15866857D01*
X225908952Y-15819238D01*
X226480380Y-15247809D01*
X226480380Y-15866857D01*
X12930380Y-16819761D02*
X11930380Y-16819761D01*
X11930380Y-17057857D01*
X11978000Y-17200714D01*
X12073238Y-17295952D01*
X12168476Y-17343571D01*
X12358952Y-17391190D01*
X12501809Y-17391190D01*
X12692285Y-17343571D01*
X12787523Y-17295952D01*
X12882761Y-17200714D01*
X12930380Y-17057857D01*
X12930380Y-16819761D01*
X13025619Y-17581666D02*
X13025619Y-18343571D01*
X12930380Y-19105476D02*
X12930380Y-18534047D01*
X12930380Y-18819761D02*
X11930380Y-18819761D01*
X12073238Y-18724523D01*
X12168476Y-18629285D01*
X12216095Y-18534047D01*
X11930380Y-19438809D02*
X11930380Y-20057857D01*
X12311333Y-19724523D01*
X12311333Y-19867380D01*
X12358952Y-19962619D01*
X12406571Y-20010238D01*
X12501809Y-20057857D01*
X12739904Y-20057857D01*
X12835142Y-20010238D01*
X12882761Y-19962619D01*
X12930380Y-19867380D01*
X12930380Y-19581666D01*
X12882761Y-19486428D01*
X12835142Y-19438809D01*
X34345880Y-16811761D02*
X33345880Y-16811761D01*
X33345880Y-17049857D01*
X33393500Y-17192714D01*
X33488738Y-17287952D01*
X33583976Y-17335571D01*
X33774452Y-17383190D01*
X33917309Y-17383190D01*
X34107785Y-17335571D01*
X34203023Y-17287952D01*
X34298261Y-17192714D01*
X34345880Y-17049857D01*
X34345880Y-16811761D01*
X34441119Y-17573666D02*
X34441119Y-18335571D01*
X34345880Y-19097476D02*
X34345880Y-18526047D01*
X34345880Y-18811761D02*
X33345880Y-18811761D01*
X33488738Y-18716523D01*
X33583976Y-18621285D01*
X33631595Y-18526047D01*
X33679214Y-19954619D02*
X34345880Y-19954619D01*
X33298261Y-19716523D02*
X34012547Y-19478428D01*
X34012547Y-20097476D01*
X53395880Y-16811761D02*
X52395880Y-16811761D01*
X52395880Y-17049857D01*
X52443500Y-17192714D01*
X52538738Y-17287952D01*
X52633976Y-17335571D01*
X52824452Y-17383190D01*
X52967309Y-17383190D01*
X53157785Y-17335571D01*
X53253023Y-17287952D01*
X53348261Y-17192714D01*
X53395880Y-17049857D01*
X53395880Y-16811761D01*
X53491119Y-17573666D02*
X53491119Y-18335571D01*
X53395880Y-19097476D02*
X53395880Y-18526047D01*
X53395880Y-18811761D02*
X52395880Y-18811761D01*
X52538738Y-18716523D01*
X52633976Y-18621285D01*
X52681595Y-18526047D01*
X52395880Y-20002238D02*
X52395880Y-19526047D01*
X52872071Y-19478428D01*
X52824452Y-19526047D01*
X52776833Y-19621285D01*
X52776833Y-19859380D01*
X52824452Y-19954619D01*
X52872071Y-20002238D01*
X52967309Y-20049857D01*
X53205404Y-20049857D01*
X53300642Y-20002238D01*
X53348261Y-19954619D01*
X53395880Y-19859380D01*
X53395880Y-19621285D01*
X53348261Y-19526047D01*
X53300642Y-19478428D01*
X72445880Y-16811761D02*
X71445880Y-16811761D01*
X71445880Y-17049857D01*
X71493500Y-17192714D01*
X71588738Y-17287952D01*
X71683976Y-17335571D01*
X71874452Y-17383190D01*
X72017309Y-17383190D01*
X72207785Y-17335571D01*
X72303023Y-17287952D01*
X72398261Y-17192714D01*
X72445880Y-17049857D01*
X72445880Y-16811761D01*
X72541119Y-17573666D02*
X72541119Y-18335571D01*
X72445880Y-19097476D02*
X72445880Y-18526047D01*
X72445880Y-18811761D02*
X71445880Y-18811761D01*
X71588738Y-18716523D01*
X71683976Y-18621285D01*
X71731595Y-18526047D01*
X71445880Y-19954619D02*
X71445880Y-19764142D01*
X71493500Y-19668904D01*
X71541119Y-19621285D01*
X71683976Y-19526047D01*
X71874452Y-19478428D01*
X72255404Y-19478428D01*
X72350642Y-19526047D01*
X72398261Y-19573666D01*
X72445880Y-19668904D01*
X72445880Y-19859380D01*
X72398261Y-19954619D01*
X72350642Y-20002238D01*
X72255404Y-20049857D01*
X72017309Y-20049857D01*
X71922071Y-20002238D01*
X71874452Y-19954619D01*
X71826833Y-19859380D01*
X71826833Y-19668904D01*
X71874452Y-19573666D01*
X71922071Y-19526047D01*
X72017309Y-19478428D01*
X91495880Y-16811761D02*
X90495880Y-16811761D01*
X90495880Y-17049857D01*
X90543500Y-17192714D01*
X90638738Y-17287952D01*
X90733976Y-17335571D01*
X90924452Y-17383190D01*
X91067309Y-17383190D01*
X91257785Y-17335571D01*
X91353023Y-17287952D01*
X91448261Y-17192714D01*
X91495880Y-17049857D01*
X91495880Y-16811761D01*
X91591119Y-17573666D02*
X91591119Y-18335571D01*
X91495880Y-19097476D02*
X91495880Y-18526047D01*
X91495880Y-18811761D02*
X90495880Y-18811761D01*
X90638738Y-18716523D01*
X90733976Y-18621285D01*
X90781595Y-18526047D01*
X90495880Y-19430809D02*
X90495880Y-20097476D01*
X91495880Y-19668904D01*
X110545880Y-16811761D02*
X109545880Y-16811761D01*
X109545880Y-17049857D01*
X109593500Y-17192714D01*
X109688738Y-17287952D01*
X109783976Y-17335571D01*
X109974452Y-17383190D01*
X110117309Y-17383190D01*
X110307785Y-17335571D01*
X110403023Y-17287952D01*
X110498261Y-17192714D01*
X110545880Y-17049857D01*
X110545880Y-16811761D01*
X110641119Y-17573666D02*
X110641119Y-18335571D01*
X110545880Y-19097476D02*
X110545880Y-18526047D01*
X110545880Y-18811761D02*
X109545880Y-18811761D01*
X109688738Y-18716523D01*
X109783976Y-18621285D01*
X109831595Y-18526047D01*
X109974452Y-19668904D02*
X109926833Y-19573666D01*
X109879214Y-19526047D01*
X109783976Y-19478428D01*
X109736357Y-19478428D01*
X109641119Y-19526047D01*
X109593500Y-19573666D01*
X109545880Y-19668904D01*
X109545880Y-19859380D01*
X109593500Y-19954619D01*
X109641119Y-20002238D01*
X109736357Y-20049857D01*
X109783976Y-20049857D01*
X109879214Y-20002238D01*
X109926833Y-19954619D01*
X109974452Y-19859380D01*
X109974452Y-19668904D01*
X110022071Y-19573666D01*
X110069690Y-19526047D01*
X110164928Y-19478428D01*
X110355404Y-19478428D01*
X110450642Y-19526047D01*
X110498261Y-19573666D01*
X110545880Y-19668904D01*
X110545880Y-19859380D01*
X110498261Y-19954619D01*
X110450642Y-20002238D01*
X110355404Y-20049857D01*
X110164928Y-20049857D01*
X110069690Y-20002238D01*
X110022071Y-19954619D01*
X109974452Y-19859380D01*
X129595880Y-16811761D02*
X128595880Y-16811761D01*
X128595880Y-17049857D01*
X128643500Y-17192714D01*
X128738738Y-17287952D01*
X128833976Y-17335571D01*
X129024452Y-17383190D01*
X129167309Y-17383190D01*
X129357785Y-17335571D01*
X129453023Y-17287952D01*
X129548261Y-17192714D01*
X129595880Y-17049857D01*
X129595880Y-16811761D01*
X129691119Y-17573666D02*
X129691119Y-18335571D01*
X129595880Y-19097476D02*
X129595880Y-18526047D01*
X129595880Y-18811761D02*
X128595880Y-18811761D01*
X128738738Y-18716523D01*
X128833976Y-18621285D01*
X128881595Y-18526047D01*
X129595880Y-19573666D02*
X129595880Y-19764142D01*
X129548261Y-19859380D01*
X129500642Y-19907000D01*
X129357785Y-20002238D01*
X129167309Y-20049857D01*
X128786357Y-20049857D01*
X128691119Y-20002238D01*
X128643500Y-19954619D01*
X128595880Y-19859380D01*
X128595880Y-19668904D01*
X128643500Y-19573666D01*
X128691119Y-19526047D01*
X128786357Y-19478428D01*
X129024452Y-19478428D01*
X129119690Y-19526047D01*
X129167309Y-19573666D01*
X129214928Y-19668904D01*
X129214928Y-19859380D01*
X129167309Y-19954619D01*
X129119690Y-20002238D01*
X129024452Y-20049857D01*
X148645880Y-16811761D02*
X147645880Y-16811761D01*
X147645880Y-17049857D01*
X147693500Y-17192714D01*
X147788738Y-17287952D01*
X147883976Y-17335571D01*
X148074452Y-17383190D01*
X148217309Y-17383190D01*
X148407785Y-17335571D01*
X148503023Y-17287952D01*
X148598261Y-17192714D01*
X148645880Y-17049857D01*
X148645880Y-16811761D01*
X148741119Y-17573666D02*
X148741119Y-18335571D01*
X147741119Y-18526047D02*
X147693500Y-18573666D01*
X147645880Y-18668904D01*
X147645880Y-18907000D01*
X147693500Y-19002238D01*
X147741119Y-19049857D01*
X147836357Y-19097476D01*
X147931595Y-19097476D01*
X148074452Y-19049857D01*
X148645880Y-18478428D01*
X148645880Y-19097476D01*
X147645880Y-19716523D02*
X147645880Y-19811761D01*
X147693500Y-19907000D01*
X147741119Y-19954619D01*
X147836357Y-20002238D01*
X148026833Y-20049857D01*
X148264928Y-20049857D01*
X148455404Y-20002238D01*
X148550642Y-19954619D01*
X148598261Y-19907000D01*
X148645880Y-19811761D01*
X148645880Y-19716523D01*
X148598261Y-19621285D01*
X148550642Y-19573666D01*
X148455404Y-19526047D01*
X148264928Y-19478428D01*
X148026833Y-19478428D01*
X147836357Y-19526047D01*
X147741119Y-19573666D01*
X147693500Y-19621285D01*
X147645880Y-19716523D01*
X167695880Y-16811761D02*
X166695880Y-16811761D01*
X166695880Y-17049857D01*
X166743500Y-17192714D01*
X166838738Y-17287952D01*
X166933976Y-17335571D01*
X167124452Y-17383190D01*
X167267309Y-17383190D01*
X167457785Y-17335571D01*
X167553023Y-17287952D01*
X167648261Y-17192714D01*
X167695880Y-17049857D01*
X167695880Y-16811761D01*
X167791119Y-17573666D02*
X167791119Y-18335571D01*
X166791119Y-18526047D02*
X166743500Y-18573666D01*
X166695880Y-18668904D01*
X166695880Y-18907000D01*
X166743500Y-19002238D01*
X166791119Y-19049857D01*
X166886357Y-19097476D01*
X166981595Y-19097476D01*
X167124452Y-19049857D01*
X167695880Y-18478428D01*
X167695880Y-19097476D01*
X167695880Y-20049857D02*
X167695880Y-19478428D01*
X167695880Y-19764142D02*
X166695880Y-19764142D01*
X166838738Y-19668904D01*
X166933976Y-19573666D01*
X166981595Y-19478428D01*
X186745880Y-16811761D02*
X185745880Y-16811761D01*
X185745880Y-17049857D01*
X185793500Y-17192714D01*
X185888738Y-17287952D01*
X185983976Y-17335571D01*
X186174452Y-17383190D01*
X186317309Y-17383190D01*
X186507785Y-17335571D01*
X186603023Y-17287952D01*
X186698261Y-17192714D01*
X186745880Y-17049857D01*
X186745880Y-16811761D01*
X186841119Y-17573666D02*
X186841119Y-18335571D01*
X185841119Y-18526047D02*
X185793500Y-18573666D01*
X185745880Y-18668904D01*
X185745880Y-18907000D01*
X185793500Y-19002238D01*
X185841119Y-19049857D01*
X185936357Y-19097476D01*
X186031595Y-19097476D01*
X186174452Y-19049857D01*
X186745880Y-18478428D01*
X186745880Y-19097476D01*
X185841119Y-19478428D02*
X185793500Y-19526047D01*
X185745880Y-19621285D01*
X185745880Y-19859380D01*
X185793500Y-19954619D01*
X185841119Y-20002238D01*
X185936357Y-20049857D01*
X186031595Y-20049857D01*
X186174452Y-20002238D01*
X186745880Y-19430809D01*
X186745880Y-20049857D01*
X205795880Y-16811761D02*
X204795880Y-16811761D01*
X204795880Y-17049857D01*
X204843500Y-17192714D01*
X204938738Y-17287952D01*
X205033976Y-17335571D01*
X205224452Y-17383190D01*
X205367309Y-17383190D01*
X205557785Y-17335571D01*
X205653023Y-17287952D01*
X205748261Y-17192714D01*
X205795880Y-17049857D01*
X205795880Y-16811761D01*
X205891119Y-17573666D02*
X205891119Y-18335571D01*
X204891119Y-18526047D02*
X204843500Y-18573666D01*
X204795880Y-18668904D01*
X204795880Y-18907000D01*
X204843500Y-19002238D01*
X204891119Y-19049857D01*
X204986357Y-19097476D01*
X205081595Y-19097476D01*
X205224452Y-19049857D01*
X205795880Y-18478428D01*
X205795880Y-19097476D01*
X204795880Y-19430809D02*
X204795880Y-20049857D01*
X205176833Y-19716523D01*
X205176833Y-19859380D01*
X205224452Y-19954619D01*
X205272071Y-20002238D01*
X205367309Y-20049857D01*
X205605404Y-20049857D01*
X205700642Y-20002238D01*
X205748261Y-19954619D01*
X205795880Y-19859380D01*
X205795880Y-19573666D01*
X205748261Y-19478428D01*
X205700642Y-19430809D01*
X224845880Y-16811761D02*
X223845880Y-16811761D01*
X223845880Y-17049857D01*
X223893500Y-17192714D01*
X223988738Y-17287952D01*
X224083976Y-17335571D01*
X224274452Y-17383190D01*
X224417309Y-17383190D01*
X224607785Y-17335571D01*
X224703023Y-17287952D01*
X224798261Y-17192714D01*
X224845880Y-17049857D01*
X224845880Y-16811761D01*
X224941119Y-17573666D02*
X224941119Y-18335571D01*
X223941119Y-18526047D02*
X223893500Y-18573666D01*
X223845880Y-18668904D01*
X223845880Y-18907000D01*
X223893500Y-19002238D01*
X223941119Y-19049857D01*
X224036357Y-19097476D01*
X224131595Y-19097476D01*
X224274452Y-19049857D01*
X224845880Y-18478428D01*
X224845880Y-19097476D01*
X224179214Y-19954619D02*
X224845880Y-19954619D01*
X223798261Y-19716523D02*
X224512547Y-19478428D01*
X224512547Y-20097476D01*
X21629380Y-50720761D02*
X20629380Y-50720761D01*
X20629380Y-50958857D01*
X20677000Y-51101714D01*
X20772238Y-51196952D01*
X20867476Y-51244571D01*
X21057952Y-51292190D01*
X21200809Y-51292190D01*
X21391285Y-51244571D01*
X21486523Y-51196952D01*
X21581761Y-51101714D01*
X21629380Y-50958857D01*
X21629380Y-50720761D01*
X21724619Y-51482666D02*
X21724619Y-52244571D01*
X20724619Y-52435047D02*
X20677000Y-52482666D01*
X20629380Y-52577904D01*
X20629380Y-52816000D01*
X20677000Y-52911238D01*
X20724619Y-52958857D01*
X20819857Y-53006476D01*
X20915095Y-53006476D01*
X21057952Y-52958857D01*
X21629380Y-52387428D01*
X21629380Y-53006476D01*
X20629380Y-53911238D02*
X20629380Y-53435047D01*
X21105571Y-53387428D01*
X21057952Y-53435047D01*
X21010333Y-53530285D01*
X21010333Y-53768380D01*
X21057952Y-53863619D01*
X21105571Y-53911238D01*
X21200809Y-53958857D01*
X21438904Y-53958857D01*
X21534142Y-53911238D01*
X21581761Y-53863619D01*
X21629380Y-53768380D01*
X21629380Y-53530285D01*
X21581761Y-53435047D01*
X21534142Y-53387428D01*
X47870880Y-50720761D02*
X46870880Y-50720761D01*
X46870880Y-50958857D01*
X46918500Y-51101714D01*
X47013738Y-51196952D01*
X47108976Y-51244571D01*
X47299452Y-51292190D01*
X47442309Y-51292190D01*
X47632785Y-51244571D01*
X47728023Y-51196952D01*
X47823261Y-51101714D01*
X47870880Y-50958857D01*
X47870880Y-50720761D01*
X47966119Y-51482666D02*
X47966119Y-52244571D01*
X46966119Y-52435047D02*
X46918500Y-52482666D01*
X46870880Y-52577904D01*
X46870880Y-52816000D01*
X46918500Y-52911238D01*
X46966119Y-52958857D01*
X47061357Y-53006476D01*
X47156595Y-53006476D01*
X47299452Y-52958857D01*
X47870880Y-52387428D01*
X47870880Y-53006476D01*
X46870880Y-53863619D02*
X46870880Y-53673142D01*
X46918500Y-53577904D01*
X46966119Y-53530285D01*
X47108976Y-53435047D01*
X47299452Y-53387428D01*
X47680404Y-53387428D01*
X47775642Y-53435047D01*
X47823261Y-53482666D01*
X47870880Y-53577904D01*
X47870880Y-53768380D01*
X47823261Y-53863619D01*
X47775642Y-53911238D01*
X47680404Y-53958857D01*
X47442309Y-53958857D01*
X47347071Y-53911238D01*
X47299452Y-53863619D01*
X47251833Y-53768380D01*
X47251833Y-53577904D01*
X47299452Y-53482666D01*
X47347071Y-53435047D01*
X47442309Y-53387428D01*
X66920880Y-50720761D02*
X65920880Y-50720761D01*
X65920880Y-50958857D01*
X65968500Y-51101714D01*
X66063738Y-51196952D01*
X66158976Y-51244571D01*
X66349452Y-51292190D01*
X66492309Y-51292190D01*
X66682785Y-51244571D01*
X66778023Y-51196952D01*
X66873261Y-51101714D01*
X66920880Y-50958857D01*
X66920880Y-50720761D01*
X67016119Y-51482666D02*
X67016119Y-52244571D01*
X66016119Y-52435047D02*
X65968500Y-52482666D01*
X65920880Y-52577904D01*
X65920880Y-52816000D01*
X65968500Y-52911238D01*
X66016119Y-52958857D01*
X66111357Y-53006476D01*
X66206595Y-53006476D01*
X66349452Y-52958857D01*
X66920880Y-52387428D01*
X66920880Y-53006476D01*
X65920880Y-53339809D02*
X65920880Y-54006476D01*
X66920880Y-53577904D01*
X85970880Y-50720761D02*
X84970880Y-50720761D01*
X84970880Y-50958857D01*
X85018500Y-51101714D01*
X85113738Y-51196952D01*
X85208976Y-51244571D01*
X85399452Y-51292190D01*
X85542309Y-51292190D01*
X85732785Y-51244571D01*
X85828023Y-51196952D01*
X85923261Y-51101714D01*
X85970880Y-50958857D01*
X85970880Y-50720761D01*
X86066119Y-51482666D02*
X86066119Y-52244571D01*
X85066119Y-52435047D02*
X85018500Y-52482666D01*
X84970880Y-52577904D01*
X84970880Y-52816000D01*
X85018500Y-52911238D01*
X85066119Y-52958857D01*
X85161357Y-53006476D01*
X85256595Y-53006476D01*
X85399452Y-52958857D01*
X85970880Y-52387428D01*
X85970880Y-53006476D01*
X85399452Y-53577904D02*
X85351833Y-53482666D01*
X85304214Y-53435047D01*
X85208976Y-53387428D01*
X85161357Y-53387428D01*
X85066119Y-53435047D01*
X85018500Y-53482666D01*
X84970880Y-53577904D01*
X84970880Y-53768380D01*
X85018500Y-53863619D01*
X85066119Y-53911238D01*
X85161357Y-53958857D01*
X85208976Y-53958857D01*
X85304214Y-53911238D01*
X85351833Y-53863619D01*
X85399452Y-53768380D01*
X85399452Y-53577904D01*
X85447071Y-53482666D01*
X85494690Y-53435047D01*
X85589928Y-53387428D01*
X85780404Y-53387428D01*
X85875642Y-53435047D01*
X85923261Y-53482666D01*
X85970880Y-53577904D01*
X85970880Y-53768380D01*
X85923261Y-53863619D01*
X85875642Y-53911238D01*
X85780404Y-53958857D01*
X85589928Y-53958857D01*
X85494690Y-53911238D01*
X85447071Y-53863619D01*
X85399452Y-53768380D01*
X105020880Y-50720761D02*
X104020880Y-50720761D01*
X104020880Y-50958857D01*
X104068500Y-51101714D01*
X104163738Y-51196952D01*
X104258976Y-51244571D01*
X104449452Y-51292190D01*
X104592309Y-51292190D01*
X104782785Y-51244571D01*
X104878023Y-51196952D01*
X104973261Y-51101714D01*
X105020880Y-50958857D01*
X105020880Y-50720761D01*
X105116119Y-51482666D02*
X105116119Y-52244571D01*
X104116119Y-52435047D02*
X104068500Y-52482666D01*
X104020880Y-52577904D01*
X104020880Y-52816000D01*
X104068500Y-52911238D01*
X104116119Y-52958857D01*
X104211357Y-53006476D01*
X104306595Y-53006476D01*
X104449452Y-52958857D01*
X105020880Y-52387428D01*
X105020880Y-53006476D01*
X105020880Y-53482666D02*
X105020880Y-53673142D01*
X104973261Y-53768380D01*
X104925642Y-53816000D01*
X104782785Y-53911238D01*
X104592309Y-53958857D01*
X104211357Y-53958857D01*
X104116119Y-53911238D01*
X104068500Y-53863619D01*
X104020880Y-53768380D01*
X104020880Y-53577904D01*
X104068500Y-53482666D01*
X104116119Y-53435047D01*
X104211357Y-53387428D01*
X104449452Y-53387428D01*
X104544690Y-53435047D01*
X104592309Y-53482666D01*
X104639928Y-53577904D01*
X104639928Y-53768380D01*
X104592309Y-53863619D01*
X104544690Y-53911238D01*
X104449452Y-53958857D01*
X124070880Y-50720761D02*
X123070880Y-50720761D01*
X123070880Y-50958857D01*
X123118500Y-51101714D01*
X123213738Y-51196952D01*
X123308976Y-51244571D01*
X123499452Y-51292190D01*
X123642309Y-51292190D01*
X123832785Y-51244571D01*
X123928023Y-51196952D01*
X124023261Y-51101714D01*
X124070880Y-50958857D01*
X124070880Y-50720761D01*
X124166119Y-51482666D02*
X124166119Y-52244571D01*
X123070880Y-52387428D02*
X123070880Y-53006476D01*
X123451833Y-52673142D01*
X123451833Y-52816000D01*
X123499452Y-52911238D01*
X123547071Y-52958857D01*
X123642309Y-53006476D01*
X123880404Y-53006476D01*
X123975642Y-52958857D01*
X124023261Y-52911238D01*
X124070880Y-52816000D01*
X124070880Y-52530285D01*
X124023261Y-52435047D01*
X123975642Y-52387428D01*
X123070880Y-53625523D02*
X123070880Y-53720761D01*
X123118500Y-53816000D01*
X123166119Y-53863619D01*
X123261357Y-53911238D01*
X123451833Y-53958857D01*
X123689928Y-53958857D01*
X123880404Y-53911238D01*
X123975642Y-53863619D01*
X124023261Y-53816000D01*
X124070880Y-53720761D01*
X124070880Y-53625523D01*
X124023261Y-53530285D01*
X123975642Y-53482666D01*
X123880404Y-53435047D01*
X123689928Y-53387428D01*
X123451833Y-53387428D01*
X123261357Y-53435047D01*
X123166119Y-53482666D01*
X123118500Y-53530285D01*
X123070880Y-53625523D01*
X143120880Y-50720761D02*
X142120880Y-50720761D01*
X142120880Y-50958857D01*
X142168500Y-51101714D01*
X142263738Y-51196952D01*
X142358976Y-51244571D01*
X142549452Y-51292190D01*
X142692309Y-51292190D01*
X142882785Y-51244571D01*
X142978023Y-51196952D01*
X143073261Y-51101714D01*
X143120880Y-50958857D01*
X143120880Y-50720761D01*
X143216119Y-51482666D02*
X143216119Y-52244571D01*
X142120880Y-52387428D02*
X142120880Y-53006476D01*
X142501833Y-52673142D01*
X142501833Y-52816000D01*
X142549452Y-52911238D01*
X142597071Y-52958857D01*
X142692309Y-53006476D01*
X142930404Y-53006476D01*
X143025642Y-52958857D01*
X143073261Y-52911238D01*
X143120880Y-52816000D01*
X143120880Y-52530285D01*
X143073261Y-52435047D01*
X143025642Y-52387428D01*
X143120880Y-53958857D02*
X143120880Y-53387428D01*
X143120880Y-53673142D02*
X142120880Y-53673142D01*
X142263738Y-53577904D01*
X142358976Y-53482666D01*
X142406595Y-53387428D01*
X162170880Y-50720761D02*
X161170880Y-50720761D01*
X161170880Y-50958857D01*
X161218500Y-51101714D01*
X161313738Y-51196952D01*
X161408976Y-51244571D01*
X161599452Y-51292190D01*
X161742309Y-51292190D01*
X161932785Y-51244571D01*
X162028023Y-51196952D01*
X162123261Y-51101714D01*
X162170880Y-50958857D01*
X162170880Y-50720761D01*
X162266119Y-51482666D02*
X162266119Y-52244571D01*
X161170880Y-52387428D02*
X161170880Y-53006476D01*
X161551833Y-52673142D01*
X161551833Y-52816000D01*
X161599452Y-52911238D01*
X161647071Y-52958857D01*
X161742309Y-53006476D01*
X161980404Y-53006476D01*
X162075642Y-52958857D01*
X162123261Y-52911238D01*
X162170880Y-52816000D01*
X162170880Y-52530285D01*
X162123261Y-52435047D01*
X162075642Y-52387428D01*
X161266119Y-53387428D02*
X161218500Y-53435047D01*
X161170880Y-53530285D01*
X161170880Y-53768380D01*
X161218500Y-53863619D01*
X161266119Y-53911238D01*
X161361357Y-53958857D01*
X161456595Y-53958857D01*
X161599452Y-53911238D01*
X162170880Y-53339809D01*
X162170880Y-53958857D01*
X181220880Y-50720761D02*
X180220880Y-50720761D01*
X180220880Y-50958857D01*
X180268500Y-51101714D01*
X180363738Y-51196952D01*
X180458976Y-51244571D01*
X180649452Y-51292190D01*
X180792309Y-51292190D01*
X180982785Y-51244571D01*
X181078023Y-51196952D01*
X181173261Y-51101714D01*
X181220880Y-50958857D01*
X181220880Y-50720761D01*
X181316119Y-51482666D02*
X181316119Y-52244571D01*
X180220880Y-52387428D02*
X180220880Y-53006476D01*
X180601833Y-52673142D01*
X180601833Y-52816000D01*
X180649452Y-52911238D01*
X180697071Y-52958857D01*
X180792309Y-53006476D01*
X181030404Y-53006476D01*
X181125642Y-52958857D01*
X181173261Y-52911238D01*
X181220880Y-52816000D01*
X181220880Y-52530285D01*
X181173261Y-52435047D01*
X181125642Y-52387428D01*
X180220880Y-53339809D02*
X180220880Y-53958857D01*
X180601833Y-53625523D01*
X180601833Y-53768380D01*
X180649452Y-53863619D01*
X180697071Y-53911238D01*
X180792309Y-53958857D01*
X181030404Y-53958857D01*
X181125642Y-53911238D01*
X181173261Y-53863619D01*
X181220880Y-53768380D01*
X181220880Y-53482666D01*
X181173261Y-53387428D01*
X181125642Y-53339809D01*
X200270880Y-50720761D02*
X199270880Y-50720761D01*
X199270880Y-50958857D01*
X199318500Y-51101714D01*
X199413738Y-51196952D01*
X199508976Y-51244571D01*
X199699452Y-51292190D01*
X199842309Y-51292190D01*
X200032785Y-51244571D01*
X200128023Y-51196952D01*
X200223261Y-51101714D01*
X200270880Y-50958857D01*
X200270880Y-50720761D01*
X200366119Y-51482666D02*
X200366119Y-52244571D01*
X199270880Y-52387428D02*
X199270880Y-53006476D01*
X199651833Y-52673142D01*
X199651833Y-52816000D01*
X199699452Y-52911238D01*
X199747071Y-52958857D01*
X199842309Y-53006476D01*
X200080404Y-53006476D01*
X200175642Y-52958857D01*
X200223261Y-52911238D01*
X200270880Y-52816000D01*
X200270880Y-52530285D01*
X200223261Y-52435047D01*
X200175642Y-52387428D01*
X199604214Y-53863619D02*
X200270880Y-53863619D01*
X199223261Y-53625523D02*
X199937547Y-53387428D01*
X199937547Y-54006476D01*
X224067380Y-50728761D02*
X223067380Y-50728761D01*
X223067380Y-50966857D01*
X223115000Y-51109714D01*
X223210238Y-51204952D01*
X223305476Y-51252571D01*
X223495952Y-51300190D01*
X223638809Y-51300190D01*
X223829285Y-51252571D01*
X223924523Y-51204952D01*
X224019761Y-51109714D01*
X224067380Y-50966857D01*
X224067380Y-50728761D01*
X224162619Y-51490666D02*
X224162619Y-52252571D01*
X223067380Y-52395428D02*
X223067380Y-53014476D01*
X223448333Y-52681142D01*
X223448333Y-52824000D01*
X223495952Y-52919238D01*
X223543571Y-52966857D01*
X223638809Y-53014476D01*
X223876904Y-53014476D01*
X223972142Y-52966857D01*
X224019761Y-52919238D01*
X224067380Y-52824000D01*
X224067380Y-52538285D01*
X224019761Y-52443047D01*
X223972142Y-52395428D01*
X223067380Y-53919238D02*
X223067380Y-53443047D01*
X223543571Y-53395428D01*
X223495952Y-53443047D01*
X223448333Y-53538285D01*
X223448333Y-53776380D01*
X223495952Y-53871619D01*
X223543571Y-53919238D01*
X223638809Y-53966857D01*
X223876904Y-53966857D01*
X223972142Y-53919238D01*
X224019761Y-53871619D01*
X224067380Y-53776380D01*
X224067380Y-53538285D01*
X224019761Y-53443047D01*
X223972142Y-53395428D01*
X12930380Y-54919761D02*
X11930380Y-54919761D01*
X11930380Y-55157857D01*
X11978000Y-55300714D01*
X12073238Y-55395952D01*
X12168476Y-55443571D01*
X12358952Y-55491190D01*
X12501809Y-55491190D01*
X12692285Y-55443571D01*
X12787523Y-55395952D01*
X12882761Y-55300714D01*
X12930380Y-55157857D01*
X12930380Y-54919761D01*
X13025619Y-55681666D02*
X13025619Y-56443571D01*
X11930380Y-56586428D02*
X11930380Y-57205476D01*
X12311333Y-56872142D01*
X12311333Y-57015000D01*
X12358952Y-57110238D01*
X12406571Y-57157857D01*
X12501809Y-57205476D01*
X12739904Y-57205476D01*
X12835142Y-57157857D01*
X12882761Y-57110238D01*
X12930380Y-57015000D01*
X12930380Y-56729285D01*
X12882761Y-56634047D01*
X12835142Y-56586428D01*
X11930380Y-58062619D02*
X11930380Y-57872142D01*
X11978000Y-57776904D01*
X12025619Y-57729285D01*
X12168476Y-57634047D01*
X12358952Y-57586428D01*
X12739904Y-57586428D01*
X12835142Y-57634047D01*
X12882761Y-57681666D01*
X12930380Y-57776904D01*
X12930380Y-57967380D01*
X12882761Y-58062619D01*
X12835142Y-58110238D01*
X12739904Y-58157857D01*
X12501809Y-58157857D01*
X12406571Y-58110238D01*
X12358952Y-58062619D01*
X12311333Y-57967380D01*
X12311333Y-57776904D01*
X12358952Y-57681666D01*
X12406571Y-57634047D01*
X12501809Y-57586428D01*
X34393380Y-54919761D02*
X33393380Y-54919761D01*
X33393380Y-55157857D01*
X33441000Y-55300714D01*
X33536238Y-55395952D01*
X33631476Y-55443571D01*
X33821952Y-55491190D01*
X33964809Y-55491190D01*
X34155285Y-55443571D01*
X34250523Y-55395952D01*
X34345761Y-55300714D01*
X34393380Y-55157857D01*
X34393380Y-54919761D01*
X34488619Y-55681666D02*
X34488619Y-56443571D01*
X33393380Y-56586428D02*
X33393380Y-57205476D01*
X33774333Y-56872142D01*
X33774333Y-57015000D01*
X33821952Y-57110238D01*
X33869571Y-57157857D01*
X33964809Y-57205476D01*
X34202904Y-57205476D01*
X34298142Y-57157857D01*
X34345761Y-57110238D01*
X34393380Y-57015000D01*
X34393380Y-56729285D01*
X34345761Y-56634047D01*
X34298142Y-56586428D01*
X33393380Y-57538809D02*
X33393380Y-58205476D01*
X34393380Y-57776904D01*
X55856380Y-54919761D02*
X54856380Y-54919761D01*
X54856380Y-55157857D01*
X54904000Y-55300714D01*
X54999238Y-55395952D01*
X55094476Y-55443571D01*
X55284952Y-55491190D01*
X55427809Y-55491190D01*
X55618285Y-55443571D01*
X55713523Y-55395952D01*
X55808761Y-55300714D01*
X55856380Y-55157857D01*
X55856380Y-54919761D01*
X55951619Y-55681666D02*
X55951619Y-56443571D01*
X54856380Y-56586428D02*
X54856380Y-57205476D01*
X55237333Y-56872142D01*
X55237333Y-57015000D01*
X55284952Y-57110238D01*
X55332571Y-57157857D01*
X55427809Y-57205476D01*
X55665904Y-57205476D01*
X55761142Y-57157857D01*
X55808761Y-57110238D01*
X55856380Y-57015000D01*
X55856380Y-56729285D01*
X55808761Y-56634047D01*
X55761142Y-56586428D01*
X55284952Y-57776904D02*
X55237333Y-57681666D01*
X55189714Y-57634047D01*
X55094476Y-57586428D01*
X55046857Y-57586428D01*
X54951619Y-57634047D01*
X54904000Y-57681666D01*
X54856380Y-57776904D01*
X54856380Y-57967380D01*
X54904000Y-58062619D01*
X54951619Y-58110238D01*
X55046857Y-58157857D01*
X55094476Y-58157857D01*
X55189714Y-58110238D01*
X55237333Y-58062619D01*
X55284952Y-57967380D01*
X55284952Y-57776904D01*
X55332571Y-57681666D01*
X55380190Y-57634047D01*
X55475428Y-57586428D01*
X55665904Y-57586428D01*
X55761142Y-57634047D01*
X55808761Y-57681666D01*
X55856380Y-57776904D01*
X55856380Y-57967380D01*
X55808761Y-58062619D01*
X55761142Y-58110238D01*
X55665904Y-58157857D01*
X55475428Y-58157857D01*
X55380190Y-58110238D01*
X55332571Y-58062619D01*
X55284952Y-57967380D01*
X93956380Y-54919761D02*
X92956380Y-54919761D01*
X92956380Y-55157857D01*
X93004000Y-55300714D01*
X93099238Y-55395952D01*
X93194476Y-55443571D01*
X93384952Y-55491190D01*
X93527809Y-55491190D01*
X93718285Y-55443571D01*
X93813523Y-55395952D01*
X93908761Y-55300714D01*
X93956380Y-55157857D01*
X93956380Y-54919761D01*
X94051619Y-55681666D02*
X94051619Y-56443571D01*
X92956380Y-56586428D02*
X92956380Y-57205476D01*
X93337333Y-56872142D01*
X93337333Y-57015000D01*
X93384952Y-57110238D01*
X93432571Y-57157857D01*
X93527809Y-57205476D01*
X93765904Y-57205476D01*
X93861142Y-57157857D01*
X93908761Y-57110238D01*
X93956380Y-57015000D01*
X93956380Y-56729285D01*
X93908761Y-56634047D01*
X93861142Y-56586428D01*
X93956380Y-57681666D02*
X93956380Y-57872142D01*
X93908761Y-57967380D01*
X93861142Y-58015000D01*
X93718285Y-58110238D01*
X93527809Y-58157857D01*
X93146857Y-58157857D01*
X93051619Y-58110238D01*
X93004000Y-58062619D01*
X92956380Y-57967380D01*
X92956380Y-57776904D01*
X93004000Y-57681666D01*
X93051619Y-57634047D01*
X93146857Y-57586428D01*
X93384952Y-57586428D01*
X93480190Y-57634047D01*
X93527809Y-57681666D01*
X93575428Y-57776904D01*
X93575428Y-57967380D01*
X93527809Y-58062619D01*
X93480190Y-58110238D01*
X93384952Y-58157857D01*
X117705380Y-54919761D02*
X116705380Y-54919761D01*
X116705380Y-55157857D01*
X116753000Y-55300714D01*
X116848238Y-55395952D01*
X116943476Y-55443571D01*
X117133952Y-55491190D01*
X117276809Y-55491190D01*
X117467285Y-55443571D01*
X117562523Y-55395952D01*
X117657761Y-55300714D01*
X117705380Y-55157857D01*
X117705380Y-54919761D01*
X117800619Y-55681666D02*
X117800619Y-56443571D01*
X117038714Y-57110238D02*
X117705380Y-57110238D01*
X116657761Y-56872142D02*
X117372047Y-56634047D01*
X117372047Y-57253095D01*
X116705380Y-57824523D02*
X116705380Y-57919761D01*
X116753000Y-58015000D01*
X116800619Y-58062619D01*
X116895857Y-58110238D01*
X117086333Y-58157857D01*
X117324428Y-58157857D01*
X117514904Y-58110238D01*
X117610142Y-58062619D01*
X117657761Y-58015000D01*
X117705380Y-57919761D01*
X117705380Y-57824523D01*
X117657761Y-57729285D01*
X117610142Y-57681666D01*
X117514904Y-57634047D01*
X117324428Y-57586428D01*
X117086333Y-57586428D01*
X116895857Y-57634047D01*
X116800619Y-57681666D01*
X116753000Y-57729285D01*
X116705380Y-57824523D01*
X148693380Y-54919761D02*
X147693380Y-54919761D01*
X147693380Y-55157857D01*
X147741000Y-55300714D01*
X147836238Y-55395952D01*
X147931476Y-55443571D01*
X148121952Y-55491190D01*
X148264809Y-55491190D01*
X148455285Y-55443571D01*
X148550523Y-55395952D01*
X148645761Y-55300714D01*
X148693380Y-55157857D01*
X148693380Y-54919761D01*
X148788619Y-55681666D02*
X148788619Y-56443571D01*
X148026714Y-57110238D02*
X148693380Y-57110238D01*
X147645761Y-56872142D02*
X148360047Y-56634047D01*
X148360047Y-57253095D01*
X148693380Y-58157857D02*
X148693380Y-57586428D01*
X148693380Y-57872142D02*
X147693380Y-57872142D01*
X147836238Y-57776904D01*
X147931476Y-57681666D01*
X147979095Y-57586428D01*
X186793380Y-54919761D02*
X185793380Y-54919761D01*
X185793380Y-55157857D01*
X185841000Y-55300714D01*
X185936238Y-55395952D01*
X186031476Y-55443571D01*
X186221952Y-55491190D01*
X186364809Y-55491190D01*
X186555285Y-55443571D01*
X186650523Y-55395952D01*
X186745761Y-55300714D01*
X186793380Y-55157857D01*
X186793380Y-54919761D01*
X186888619Y-55681666D02*
X186888619Y-56443571D01*
X186126714Y-57110238D02*
X186793380Y-57110238D01*
X185745761Y-56872142D02*
X186460047Y-56634047D01*
X186460047Y-57253095D01*
X185888619Y-57586428D02*
X185841000Y-57634047D01*
X185793380Y-57729285D01*
X185793380Y-57967380D01*
X185841000Y-58062619D01*
X185888619Y-58110238D01*
X185983857Y-58157857D01*
X186079095Y-58157857D01*
X186221952Y-58110238D01*
X186793380Y-57538809D01*
X186793380Y-58157857D01*
X205843380Y-54919761D02*
X204843380Y-54919761D01*
X204843380Y-55157857D01*
X204891000Y-55300714D01*
X204986238Y-55395952D01*
X205081476Y-55443571D01*
X205271952Y-55491190D01*
X205414809Y-55491190D01*
X205605285Y-55443571D01*
X205700523Y-55395952D01*
X205795761Y-55300714D01*
X205843380Y-55157857D01*
X205843380Y-54919761D01*
X205938619Y-55681666D02*
X205938619Y-56443571D01*
X205176714Y-57110238D02*
X205843380Y-57110238D01*
X204795761Y-56872142D02*
X205510047Y-56634047D01*
X205510047Y-57253095D01*
X204843380Y-57538809D02*
X204843380Y-58157857D01*
X205224333Y-57824523D01*
X205224333Y-57967380D01*
X205271952Y-58062619D01*
X205319571Y-58110238D01*
X205414809Y-58157857D01*
X205652904Y-58157857D01*
X205748142Y-58110238D01*
X205795761Y-58062619D01*
X205843380Y-57967380D01*
X205843380Y-57681666D01*
X205795761Y-57586428D01*
X205748142Y-57538809D01*
X224893380Y-54911761D02*
X223893380Y-54911761D01*
X223893380Y-55149857D01*
X223941000Y-55292714D01*
X224036238Y-55387952D01*
X224131476Y-55435571D01*
X224321952Y-55483190D01*
X224464809Y-55483190D01*
X224655285Y-55435571D01*
X224750523Y-55387952D01*
X224845761Y-55292714D01*
X224893380Y-55149857D01*
X224893380Y-54911761D01*
X224988619Y-55673666D02*
X224988619Y-56435571D01*
X224226714Y-57102238D02*
X224893380Y-57102238D01*
X223845761Y-56864142D02*
X224560047Y-56626047D01*
X224560047Y-57245095D01*
X224226714Y-58054619D02*
X224893380Y-58054619D01*
X223845761Y-57816523D02*
X224560047Y-57578428D01*
X224560047Y-58197476D01*
M02*
