G04 #@! TF.GenerationSoftware,KiCad,Pcbnew,(5.1.4)-1*
G04 #@! TF.CreationDate,2021-01-09T02:02:00-06:00*
G04 #@! TF.ProjectId,semi,73656d69-2e6b-4696-9361-645f70636258,rev?*
G04 #@! TF.SameCoordinates,Original*
G04 #@! TF.FileFunction,Legend,Bot*
G04 #@! TF.FilePolarity,Positive*
%FSLAX46Y46*%
G04 Gerber Fmt 4.6, Leading zero omitted, Abs format (unit mm)*
G04 Created by KiCad (PCBNEW (5.1.4)-1) date 2021-01-09 02:02:00*
%MOMM*%
%LPD*%
G04 APERTURE LIST*
%ADD10C,2.000000*%
%ADD11C,0.120000*%
%ADD12C,0.150000*%
G04 APERTURE END LIST*
D10*
X195010857Y-41504428D02*
X192629904Y-42218714D01*
X187868000Y-42218714D01*
X185487047Y-41504428D01*
X184296571Y-40075857D01*
X184296571Y-39361571D01*
X185487047Y-37933000D01*
X187868000Y-37218714D01*
X191439428Y-37218714D01*
X193820380Y-36504428D01*
X195010857Y-35075857D01*
X195010857Y-34361571D01*
X193820380Y-32933000D01*
X191439428Y-32218714D01*
X187868000Y-32218714D01*
X185487047Y-32933000D01*
X164058476Y-41504428D02*
X166439428Y-42218714D01*
X171201333Y-42218714D01*
X173582285Y-41504428D01*
X174772761Y-40075857D01*
X174772761Y-34361571D01*
X173582285Y-32933000D01*
X171201333Y-32218714D01*
X166439428Y-32218714D01*
X164058476Y-32933000D01*
X162868000Y-34361571D01*
X162868000Y-35790142D01*
X174772761Y-37218714D01*
X152153714Y-42218714D02*
X152153714Y-32218714D01*
X152153714Y-33647285D02*
X150963238Y-32933000D01*
X148582285Y-32218714D01*
X145010857Y-32218714D01*
X142629904Y-32933000D01*
X141439428Y-34361571D01*
X141439428Y-42218714D01*
X141439428Y-34361571D02*
X140248952Y-32933000D01*
X137868000Y-32218714D01*
X134296571Y-32218714D01*
X131915619Y-32933000D01*
X130725142Y-34361571D01*
X130725142Y-42218714D01*
X118820380Y-42218714D02*
X118820380Y-32218714D01*
X118820380Y-27218714D02*
X120010857Y-27933000D01*
X118820380Y-28647285D01*
X117629904Y-27933000D01*
X118820380Y-27218714D01*
X118820380Y-28647285D01*
X105725142Y-41504428D02*
X105725142Y-42218714D01*
X106915619Y-43647285D01*
X108106095Y-44361571D01*
X106915619Y-32933000D02*
X105725142Y-33647285D01*
X106915619Y-34361571D01*
X108106095Y-33647285D01*
X106915619Y-32933000D01*
X106915619Y-34361571D01*
D11*
X26070779Y-2923000D02*
X25745221Y-2923000D01*
X26070779Y-1903000D02*
X25745221Y-1903000D01*
X41497000Y-40170000D02*
X41497000Y-40570000D01*
X41297000Y-40170000D02*
X41297000Y-40570000D01*
X37697000Y-40170000D02*
X37697000Y-40570000D01*
X41497000Y-38170000D02*
X41497000Y-40170000D01*
X40297000Y-40570000D02*
X40297000Y-40970000D01*
X40297000Y-40570000D02*
X41297000Y-40570000D01*
X41297000Y-40170000D02*
X41297000Y-38170000D01*
X41297000Y-38170000D02*
X40297000Y-38170000D01*
X38497000Y-38170000D02*
X37697000Y-38170000D01*
X37697000Y-38170000D02*
X37697000Y-40170000D01*
X37697000Y-40570000D02*
X38497000Y-40570000D01*
D12*
X24670000Y-34703000D02*
X25245000Y-34703000D01*
X24670000Y-45053000D02*
X25345000Y-45053000D01*
X35020000Y-45053000D02*
X34345000Y-45053000D01*
X35020000Y-34703000D02*
X34345000Y-34703000D01*
X24670000Y-34703000D02*
X24670000Y-35378000D01*
X35020000Y-34703000D02*
X35020000Y-35378000D01*
X35020000Y-45053000D02*
X35020000Y-44378000D01*
X24670000Y-45053000D02*
X24670000Y-44378000D01*
X25245000Y-34703000D02*
X25245000Y-33428000D01*
D11*
X18023000Y-7407000D02*
X20473000Y-7407000D01*
X19823000Y-10627000D02*
X18023000Y-10627000D01*
D12*
X53384200Y-38097600D02*
G75*
G03X53384200Y-38097600I-1000000J0D01*
G01*
X54984200Y-35497600D02*
X49784200Y-35497600D01*
X54984200Y-40697600D02*
X54984200Y-35497600D01*
X49784200Y-40697600D02*
X54984200Y-40697600D01*
X49784200Y-35497600D02*
X49784200Y-40697600D01*
D11*
X24856221Y-47115000D02*
X25181779Y-47115000D01*
X24856221Y-48135000D02*
X25181779Y-48135000D01*
X19556000Y-12862779D02*
X19556000Y-12537221D01*
X20576000Y-12862779D02*
X20576000Y-12537221D01*
X17270000Y-12862779D02*
X17270000Y-12537221D01*
X18290000Y-12862779D02*
X18290000Y-12537221D01*
X26070779Y-5082000D02*
X25745221Y-5082000D01*
X26070779Y-4062000D02*
X25745221Y-4062000D01*
X14734000Y-6695221D02*
X14734000Y-7020779D01*
X13714000Y-6695221D02*
X13714000Y-7020779D01*
X46099000Y-35849779D02*
X46099000Y-35524221D01*
X47119000Y-35849779D02*
X47119000Y-35524221D01*
X14584000Y-13813064D02*
X14584000Y-12608936D01*
X16404000Y-13813064D02*
X16404000Y-12608936D01*
X25562779Y-32006000D02*
X25237221Y-32006000D01*
X25562779Y-30986000D02*
X25237221Y-30986000D01*
X39080221Y-36066000D02*
X39405779Y-36066000D01*
X39080221Y-37086000D02*
X39405779Y-37086000D01*
X33873221Y-47115000D02*
X34198779Y-47115000D01*
X33873221Y-48135000D02*
X34198779Y-48135000D01*
X21588000Y-44104779D02*
X21588000Y-43779221D01*
X22608000Y-44104779D02*
X22608000Y-43779221D01*
X22608000Y-35524221D02*
X22608000Y-35849779D01*
X21588000Y-35524221D02*
X21588000Y-35849779D01*
X30605000Y-31531779D02*
X30605000Y-31206221D01*
X31625000Y-31531779D02*
X31625000Y-31206221D01*
X29081000Y-31531779D02*
X29081000Y-31206221D01*
X30101000Y-31531779D02*
X30101000Y-31206221D01*
X13081000Y-16466000D02*
X13081000Y-12566000D01*
X11081000Y-16466000D02*
X11081000Y-12566000D01*
X13081000Y-16466000D02*
X11081000Y-16466000D01*
X32131000Y-16466000D02*
X32131000Y-12566000D01*
X30131000Y-16466000D02*
X30131000Y-12566000D01*
X32131000Y-16466000D02*
X30131000Y-16466000D01*
X51181000Y-16466000D02*
X51181000Y-12566000D01*
X49181000Y-16466000D02*
X49181000Y-12566000D01*
X51181000Y-16466000D02*
X49181000Y-16466000D01*
X70231000Y-16466000D02*
X70231000Y-12566000D01*
X68231000Y-16466000D02*
X68231000Y-12566000D01*
X70231000Y-16466000D02*
X68231000Y-16466000D01*
X89281000Y-16466000D02*
X89281000Y-12566000D01*
X87281000Y-16466000D02*
X87281000Y-12566000D01*
X89281000Y-16466000D02*
X87281000Y-16466000D01*
X108331000Y-16466000D02*
X108331000Y-12566000D01*
X106331000Y-16466000D02*
X106331000Y-12566000D01*
X108331000Y-16466000D02*
X106331000Y-16466000D01*
X127381000Y-16466000D02*
X127381000Y-12566000D01*
X125381000Y-16466000D02*
X125381000Y-12566000D01*
X127381000Y-16466000D02*
X125381000Y-16466000D01*
X146431000Y-16466000D02*
X146431000Y-12566000D01*
X144431000Y-16466000D02*
X144431000Y-12566000D01*
X146431000Y-16466000D02*
X144431000Y-16466000D01*
X165481000Y-16466000D02*
X165481000Y-12566000D01*
X163481000Y-16466000D02*
X163481000Y-12566000D01*
X165481000Y-16466000D02*
X163481000Y-16466000D01*
X184531000Y-16466000D02*
X184531000Y-12566000D01*
X182531000Y-16466000D02*
X182531000Y-12566000D01*
X184531000Y-16466000D02*
X182531000Y-16466000D01*
X203581000Y-16466000D02*
X203581000Y-12566000D01*
X201581000Y-16466000D02*
X201581000Y-12566000D01*
X203581000Y-16466000D02*
X201581000Y-16466000D01*
X225028000Y-16474000D02*
X225028000Y-12574000D01*
X223028000Y-16474000D02*
X223028000Y-12574000D01*
X225028000Y-16474000D02*
X223028000Y-16474000D01*
X13478000Y-16165000D02*
X13478000Y-20065000D01*
X15478000Y-16165000D02*
X15478000Y-20065000D01*
X13478000Y-16165000D02*
X15478000Y-16165000D01*
X34893500Y-16157000D02*
X34893500Y-20057000D01*
X36893500Y-16157000D02*
X36893500Y-20057000D01*
X34893500Y-16157000D02*
X36893500Y-16157000D01*
X53943500Y-16157000D02*
X53943500Y-20057000D01*
X55943500Y-16157000D02*
X55943500Y-20057000D01*
X53943500Y-16157000D02*
X55943500Y-16157000D01*
X72993500Y-16157000D02*
X72993500Y-20057000D01*
X74993500Y-16157000D02*
X74993500Y-20057000D01*
X72993500Y-16157000D02*
X74993500Y-16157000D01*
X92043500Y-16157000D02*
X92043500Y-20057000D01*
X94043500Y-16157000D02*
X94043500Y-20057000D01*
X92043500Y-16157000D02*
X94043500Y-16157000D01*
X111093500Y-16157000D02*
X111093500Y-20057000D01*
X113093500Y-16157000D02*
X113093500Y-20057000D01*
X111093500Y-16157000D02*
X113093500Y-16157000D01*
X130143500Y-16157000D02*
X130143500Y-20057000D01*
X132143500Y-16157000D02*
X132143500Y-20057000D01*
X130143500Y-16157000D02*
X132143500Y-16157000D01*
X149193500Y-16157000D02*
X149193500Y-20057000D01*
X151193500Y-16157000D02*
X151193500Y-20057000D01*
X149193500Y-16157000D02*
X151193500Y-16157000D01*
X168243500Y-16157000D02*
X168243500Y-20057000D01*
X170243500Y-16157000D02*
X170243500Y-20057000D01*
X168243500Y-16157000D02*
X170243500Y-16157000D01*
X187293500Y-16157000D02*
X187293500Y-20057000D01*
X189293500Y-16157000D02*
X189293500Y-20057000D01*
X187293500Y-16157000D02*
X189293500Y-16157000D01*
X206343500Y-16157000D02*
X206343500Y-20057000D01*
X208343500Y-16157000D02*
X208343500Y-20057000D01*
X206343500Y-16157000D02*
X208343500Y-16157000D01*
X225393500Y-16157000D02*
X225393500Y-20057000D01*
X227393500Y-16157000D02*
X227393500Y-20057000D01*
X225393500Y-16157000D02*
X227393500Y-16157000D01*
X20177000Y-54566000D02*
X20177000Y-50666000D01*
X18177000Y-54566000D02*
X18177000Y-50666000D01*
X20177000Y-54566000D02*
X18177000Y-54566000D01*
X46418500Y-54566000D02*
X46418500Y-50666000D01*
X44418500Y-54566000D02*
X44418500Y-50666000D01*
X46418500Y-54566000D02*
X44418500Y-54566000D01*
X65468500Y-54566000D02*
X65468500Y-50666000D01*
X63468500Y-54566000D02*
X63468500Y-50666000D01*
X65468500Y-54566000D02*
X63468500Y-54566000D01*
X84518500Y-54566000D02*
X84518500Y-50666000D01*
X82518500Y-54566000D02*
X82518500Y-50666000D01*
X84518500Y-54566000D02*
X82518500Y-54566000D01*
X103568500Y-54566000D02*
X103568500Y-50666000D01*
X101568500Y-54566000D02*
X101568500Y-50666000D01*
X103568500Y-54566000D02*
X101568500Y-54566000D01*
X122618500Y-54566000D02*
X122618500Y-50666000D01*
X120618500Y-54566000D02*
X120618500Y-50666000D01*
X122618500Y-54566000D02*
X120618500Y-54566000D01*
X141668500Y-54566000D02*
X141668500Y-50666000D01*
X139668500Y-54566000D02*
X139668500Y-50666000D01*
X141668500Y-54566000D02*
X139668500Y-54566000D01*
X160718500Y-54566000D02*
X160718500Y-50666000D01*
X158718500Y-54566000D02*
X158718500Y-50666000D01*
X160718500Y-54566000D02*
X158718500Y-54566000D01*
X179768500Y-54566000D02*
X179768500Y-50666000D01*
X177768500Y-54566000D02*
X177768500Y-50666000D01*
X179768500Y-54566000D02*
X177768500Y-54566000D01*
X198818500Y-54566000D02*
X198818500Y-50666000D01*
X196818500Y-54566000D02*
X196818500Y-50666000D01*
X198818500Y-54566000D02*
X196818500Y-54566000D01*
X222615000Y-54574000D02*
X222615000Y-50674000D01*
X220615000Y-54574000D02*
X220615000Y-50674000D01*
X222615000Y-54574000D02*
X220615000Y-54574000D01*
X13478000Y-54265000D02*
X13478000Y-58165000D01*
X15478000Y-54265000D02*
X15478000Y-58165000D01*
X13478000Y-54265000D02*
X15478000Y-54265000D01*
X34941000Y-54265000D02*
X34941000Y-58165000D01*
X36941000Y-54265000D02*
X36941000Y-58165000D01*
X34941000Y-54265000D02*
X36941000Y-54265000D01*
X56404000Y-54265000D02*
X56404000Y-58165000D01*
X58404000Y-54265000D02*
X58404000Y-58165000D01*
X56404000Y-54265000D02*
X58404000Y-54265000D01*
X94504000Y-54265000D02*
X94504000Y-58165000D01*
X96504000Y-54265000D02*
X96504000Y-58165000D01*
X94504000Y-54265000D02*
X96504000Y-54265000D01*
X118253000Y-54265000D02*
X118253000Y-58165000D01*
X120253000Y-54265000D02*
X120253000Y-58165000D01*
X118253000Y-54265000D02*
X120253000Y-54265000D01*
X149241000Y-54265000D02*
X149241000Y-58165000D01*
X151241000Y-54265000D02*
X151241000Y-58165000D01*
X149241000Y-54265000D02*
X151241000Y-54265000D01*
X187341000Y-54265000D02*
X187341000Y-58165000D01*
X189341000Y-54265000D02*
X189341000Y-58165000D01*
X187341000Y-54265000D02*
X189341000Y-54265000D01*
X206391000Y-54265000D02*
X206391000Y-58165000D01*
X208391000Y-54265000D02*
X208391000Y-58165000D01*
X206391000Y-54265000D02*
X208391000Y-54265000D01*
X225441000Y-54257000D02*
X225441000Y-58157000D01*
X227441000Y-54257000D02*
X227441000Y-58157000D01*
X225441000Y-54257000D02*
X227441000Y-54257000D01*
M02*
