G04 #@! TF.GenerationSoftware,KiCad,Pcbnew,(5.1.4)-1*
G04 #@! TF.CreationDate,2021-01-09T02:02:00-06:00*
G04 #@! TF.ProjectId,semi,73656d69-2e6b-4696-9361-645f70636258,rev?*
G04 #@! TF.SameCoordinates,Original*
G04 #@! TF.FileFunction,Soldermask,Top*
G04 #@! TF.FilePolarity,Negative*
%FSLAX46Y46*%
G04 Gerber Fmt 4.6, Leading zero omitted, Abs format (unit mm)*
G04 Created by KiCad (PCBNEW (5.1.4)-1) date 2021-01-09 02:02:00*
%MOMM*%
%LPD*%
G04 APERTURE LIST*
%ADD10C,3.987800*%
%ADD11C,3.048000*%
%ADD12C,1.750000*%
%ADD13O,1.000000X1.600000*%
%ADD14O,1.000000X2.100000*%
%ADD15C,0.650000*%
%ADD16C,4.400000*%
G04 APERTURE END LIST*
D10*
X166687500Y-58420000D03*
X128587500Y-58420000D03*
D11*
X166687500Y-73660000D03*
X128587500Y-73660000D03*
D12*
X152717500Y-66675000D03*
X142557500Y-66675000D03*
D10*
X147637500Y-66675000D03*
D13*
X23243000Y67000D03*
X14603000Y67000D03*
D14*
X23243000Y-4113000D03*
X14603000Y-4113000D03*
D15*
X16033000Y-3583000D03*
X21813000Y-3583000D03*
D16*
X3174800Y-3174800D03*
X3174800Y-73020400D03*
X230173000Y-73020400D03*
X230173000Y-3174800D03*
D12*
X228917500Y-66675000D03*
X218757500Y-66675000D03*
D10*
X223837500Y-66675000D03*
D12*
X209867500Y-66675000D03*
X199707500Y-66675000D03*
D10*
X204787500Y-66675000D03*
D12*
X207486250Y-66675000D03*
X197326250Y-66675000D03*
D10*
X202406250Y-66675000D03*
D12*
X190817500Y-66675000D03*
X180657500Y-66675000D03*
D10*
X185737500Y-66675000D03*
D12*
X186055000Y-66675000D03*
X175895000Y-66675000D03*
D10*
X180975000Y-66675000D03*
X157162500Y-58420000D03*
X133350000Y-58420000D03*
D11*
X157162500Y-73660000D03*
X133350000Y-73660000D03*
D12*
X150336250Y-66675000D03*
X140176250Y-66675000D03*
D10*
X145256250Y-66675000D03*
X104775000Y-58420000D03*
X80962500Y-58420000D03*
D11*
X104775000Y-73660000D03*
X80962500Y-73660000D03*
D12*
X97948750Y-66675000D03*
X87788750Y-66675000D03*
D10*
X92868750Y-66675000D03*
X109537500Y-58420000D03*
X71437500Y-58420000D03*
D11*
X109537500Y-73660000D03*
X71437500Y-73660000D03*
D12*
X95567500Y-66675000D03*
X85407500Y-66675000D03*
D10*
X90487500Y-66675000D03*
X166681150Y-58420000D03*
X66681350Y-58420000D03*
D11*
X166681150Y-73660000D03*
X66681350Y-73660000D03*
D12*
X121761250Y-66675000D03*
X111601250Y-66675000D03*
D10*
X116681250Y-66675000D03*
D12*
X57467500Y-66675000D03*
X47307500Y-66675000D03*
D10*
X52387500Y-66675000D03*
D12*
X59848750Y-66675000D03*
X49688750Y-66675000D03*
D10*
X54768750Y-66675000D03*
D12*
X52705000Y-66675000D03*
X42545000Y-66675000D03*
D10*
X47625000Y-66675000D03*
D12*
X38417500Y-66675000D03*
X28257500Y-66675000D03*
D10*
X33337500Y-66675000D03*
D12*
X33655000Y-66675000D03*
X23495000Y-66675000D03*
D10*
X28575000Y-66675000D03*
D12*
X36036250Y-66675000D03*
X25876250Y-66675000D03*
D10*
X30956250Y-66675000D03*
D12*
X14605000Y-66675000D03*
X4445000Y-66675000D03*
D10*
X9525000Y-66675000D03*
D12*
X16986250Y-66675000D03*
X6826250Y-66675000D03*
D10*
X11906250Y-66675000D03*
D12*
X224155000Y-47625000D03*
X213995000Y-47625000D03*
D10*
X219075000Y-47625000D03*
D12*
X200342500Y-47625000D03*
X190182500Y-47625000D03*
D10*
X195262500Y-47625000D03*
D12*
X181292500Y-47625000D03*
X171132500Y-47625000D03*
D10*
X176212500Y-47625000D03*
D12*
X162242500Y-47625000D03*
X152082500Y-47625000D03*
D10*
X157162500Y-47625000D03*
D12*
X143192500Y-47625000D03*
X133032500Y-47625000D03*
D10*
X138112500Y-47625000D03*
D12*
X124142500Y-47625000D03*
X113982500Y-47625000D03*
D10*
X119062500Y-47625000D03*
D12*
X105092500Y-47625000D03*
X94932500Y-47625000D03*
D10*
X100012500Y-47625000D03*
D12*
X86042500Y-47625000D03*
X75882500Y-47625000D03*
D10*
X80962500Y-47625000D03*
D12*
X66992500Y-47625000D03*
X56832500Y-47625000D03*
D10*
X61912500Y-47625000D03*
D12*
X47942500Y-47625000D03*
X37782500Y-47625000D03*
D10*
X42862500Y-47625000D03*
D12*
X21748750Y-47625000D03*
X11588750Y-47625000D03*
D10*
X16668750Y-47625000D03*
D12*
X228917500Y-28575000D03*
X218757500Y-28575000D03*
D10*
X223837500Y-28575000D03*
D12*
X209867500Y-28575000D03*
X199707500Y-28575000D03*
D10*
X204787500Y-28575000D03*
D12*
X190817500Y-28575000D03*
X180657500Y-28575000D03*
D10*
X185737500Y-28575000D03*
D12*
X171767500Y-28575000D03*
X161607500Y-28575000D03*
D10*
X166687500Y-28575000D03*
D12*
X152717500Y-28575000D03*
X142557500Y-28575000D03*
D10*
X147637500Y-28575000D03*
D12*
X133667500Y-28575000D03*
X123507500Y-28575000D03*
D10*
X128587500Y-28575000D03*
D12*
X114617500Y-28575000D03*
X104457500Y-28575000D03*
D10*
X109537500Y-28575000D03*
D12*
X95567500Y-28575000D03*
X85407500Y-28575000D03*
D10*
X90487500Y-28575000D03*
D12*
X76517500Y-28575000D03*
X66357500Y-28575000D03*
D10*
X71437500Y-28575000D03*
D12*
X57467500Y-28575000D03*
X47307500Y-28575000D03*
D10*
X52387500Y-28575000D03*
D12*
X38417500Y-28575000D03*
X28257500Y-28575000D03*
D10*
X33337500Y-28575000D03*
D12*
X16986250Y-28575000D03*
X6826250Y-28575000D03*
D10*
X11906250Y-28575000D03*
D12*
X226536250Y-9525000D03*
X216376250Y-9525000D03*
D10*
X221456250Y-9525000D03*
D12*
X205105000Y-9525000D03*
X194945000Y-9525000D03*
D10*
X200025000Y-9525000D03*
D12*
X186055000Y-9525000D03*
X175895000Y-9525000D03*
D10*
X180975000Y-9525000D03*
D12*
X167005000Y-9525000D03*
X156845000Y-9525000D03*
D10*
X161925000Y-9525000D03*
D12*
X147955000Y-9525000D03*
X137795000Y-9525000D03*
D10*
X142875000Y-9525000D03*
D12*
X128905000Y-9525000D03*
X118745000Y-9525000D03*
D10*
X123825000Y-9525000D03*
D12*
X109855000Y-9525000D03*
X99695000Y-9525000D03*
D10*
X104775000Y-9525000D03*
D12*
X90805000Y-9525000D03*
X80645000Y-9525000D03*
D10*
X85725000Y-9525000D03*
D12*
X71755000Y-9525000D03*
X61595000Y-9525000D03*
D10*
X66675000Y-9525000D03*
D12*
X52705000Y-9525000D03*
X42545000Y-9525000D03*
D10*
X47625000Y-9525000D03*
D12*
X33655000Y-9525000D03*
X23495000Y-9525000D03*
D10*
X28575000Y-9525000D03*
D12*
X14605000Y-9525000D03*
X4445000Y-9525000D03*
D10*
X9525000Y-9525000D03*
M02*
