M48
; DRILL file {KiCad (5.1.4)-1} date 1/9/2021 01:18:12
; FORMAT={-:-/ absolute / inch / decimal}
; #@! TF.CreationDate,2021-01-09T01:18:12-06:00
; #@! TF.GenerationSoftware,Kicad,Pcbnew,(5.1.4)-1
; #@! TF.FileFunction,Plated,1,2,PTH
FMAT,2
INCH
T1C0.0157
T2C0.0236
T3C0.0579
T4C0.0866
%
G90
G05
T1
X0.605Y-2.01
X0.6197Y-0.6253
X0.63Y-0.2501
X0.6336Y-0.4062
X0.6547Y-0.6603
X0.66Y-0.35
X0.69Y-0.77
X0.7461Y-0.4186
X0.7467Y-0.2903
X0.8124Y-1.3749
X0.8124Y-1.7499
X0.83Y-0.35
X0.855Y-0.2501
X0.859Y-0.626
X0.885Y-0.775
X0.894Y-0.661
X0.9999Y-1.2812
X1.0Y-2.065
X1.035Y-0.75
X1.04Y-2.16
X1.0414Y-2.12
X1.134Y-1.9374
X1.134Y-2.12
X1.134Y-2.1594
X1.191Y-1.9374
X1.29Y-2.09
X1.3124Y-1.9374
X1.555Y-1.34
X1.6Y-1.97
X1.6249Y-1.4374
X1.625Y-1.34
X1.87Y-1.715
X2.63Y-1.655
T3
X4.9125Y-1.025
X5.1625Y-0.925
X4.5375Y-1.775
X4.7875Y-1.675
X3.4125Y-1.025
X3.6625Y-0.925
X3.4125Y-2.525
X3.6625Y-2.425
X7.725Y-0.275
X7.975Y-0.175
X1.9125Y-2.525
X2.1625Y-2.425
X1.1625Y-1.025
X1.4125Y-0.925
X1.0687Y-2.525
X1.3187Y-2.425
X7.1625Y-1.025
X7.4125Y-0.925
X6.225Y-0.275
X6.475Y-0.175
X0.3187Y-2.525
X0.5687Y-2.425
X4.1625Y-1.025
X4.4125Y-0.925
X0.975Y-0.275
X1.225Y-0.175
X8.6625Y-2.525
X8.9125Y-2.425
X6.7875Y-1.775
X7.0375Y-1.675
X0.5062Y-1.775
X0.7562Y-1.675
X5.2875Y-1.775
X5.5375Y-1.675
X8.475Y-1.775
X8.725Y-1.675
X6.975Y-0.275
X7.225Y-0.175
X8.5687Y-0.275
X8.8187Y-0.175
X7.9125Y-2.525
X8.1625Y-2.425
X4.725Y-0.275
X4.975Y-0.175
X1.725Y-2.525
X1.975Y-2.425
X1.725Y-0.275
X1.975Y-0.175
X0.225Y-2.525
X0.475Y-2.425
X2.2875Y-1.775
X2.5375Y-1.675
X3.225Y-0.275
X3.475Y-0.175
X1.1625Y-2.525
X1.4125Y-2.425
X3.7875Y-1.775
X4.0375Y-1.675
X0.225Y-0.275
X0.475Y-0.175
X6.975Y-2.525
X7.225Y-2.425
X1.5375Y-1.775
X1.7875Y-1.675
X5.5687Y-2.525
X5.8187Y-2.425
X6.0375Y-1.775
X6.2875Y-1.675
X6.4125Y-1.025
X6.6625Y-0.925
X5.6625Y-2.525
X5.9125Y-2.425
X7.5375Y-1.775
X7.7875Y-1.675
X3.975Y-0.275
X4.225Y-0.175
X3.5063Y-2.525
X3.7563Y-2.425
X1.9125Y-1.025
X2.1625Y-0.925
X7.8187Y-2.525
X8.0687Y-2.425
X2.475Y-0.275
X2.725Y-0.175
X0.975Y-2.525
X1.225Y-2.425
X0.3187Y-1.025
X0.5687Y-0.925
X4.4437Y-2.525
X4.6937Y-2.425
X5.6625Y-1.025
X5.9125Y-0.925
X2.6625Y-1.025
X2.9125Y-0.925
X2.0063Y-2.525
X2.2563Y-2.425
X3.0375Y-1.775
X3.2875Y-1.675
X5.475Y-0.275
X5.725Y-0.175
X7.1625Y-2.525
X7.4125Y-2.425
X8.6625Y-1.025
X8.9125Y-0.925
X7.9125Y-1.025
X8.1625Y-0.925
T4
X0.125Y-0.125
X0.125Y-2.8748
X9.0619Y-0.125
X9.0619Y-2.8748
T2
G00X0.5749Y0.0144
M15
G01X0.5749Y-0.0092
M16
G05
G00X0.5749Y-0.1403
M15
G01X0.5749Y-0.1836
M16
G05
G00X0.9151Y0.0144
M15
G01X0.9151Y-0.0092
M16
G05
G00X0.9151Y-0.1403
M15
G01X0.9151Y-0.1836
M16
G05
T0
M30
