M48
; DRILL file {KiCad (5.1.4)-1} date 1/9/2021 01:18:12
; FORMAT={-:-/ absolute / inch / decimal}
; #@! TF.CreationDate,2021-01-09T01:18:12-06:00
; #@! TF.GenerationSoftware,Kicad,Pcbnew,(5.1.4)-1
; #@! TF.FileFunction,NonPlated,1,2,NPTH
FMAT,2
INCH
T1C0.0256
T2C0.0689
T3C0.1200
T4C0.1570
%
G90
G05
T1
X0.6312Y-0.1411
X0.8588Y-0.1411
T2
X3.3625Y-1.125
X3.7625Y-1.125
X3.3625Y-2.625
X3.7625Y-2.625
X7.675Y-0.375
X8.075Y-0.375
X1.8625Y-2.625
X2.2625Y-2.625
X1.1125Y-1.125
X1.5125Y-1.125
X1.0188Y-2.625
X1.4187Y-2.625
X7.1125Y-1.125
X7.5125Y-1.125
X6.175Y-0.375
X6.575Y-0.375
X0.2687Y-2.625
X0.6687Y-2.625
X4.1125Y-1.125
X4.5125Y-1.125
X0.925Y-0.375
X1.325Y-0.375
X8.6125Y-2.625
X9.0125Y-2.625
X6.7375Y-1.875
X7.1375Y-1.875
X0.4562Y-1.875
X0.8562Y-1.875
X5.2375Y-1.875
X5.6375Y-1.875
X8.425Y-1.875
X8.825Y-1.875
X6.925Y-0.375
X7.325Y-0.375
X8.5187Y-0.375
X8.9187Y-0.375
X7.8625Y-2.625
X8.2625Y-2.625
X4.675Y-0.375
X5.075Y-0.375
X1.675Y-2.625
X2.075Y-2.625
X1.675Y-0.375
X2.075Y-0.375
X0.175Y-2.625
X0.575Y-2.625
X2.2375Y-1.875
X2.6375Y-1.875
X3.175Y-0.375
X3.575Y-0.375
X1.1125Y-2.625
X1.5125Y-2.625
X3.7375Y-1.875
X4.1375Y-1.875
X0.175Y-0.375
X0.575Y-0.375
X6.925Y-2.625
X7.325Y-2.625
X1.4875Y-1.875
X1.8875Y-1.875
X5.5187Y-2.625
X5.9188Y-2.625
X5.9875Y-1.875
X6.3875Y-1.875
X6.3625Y-1.125
X6.7625Y-1.125
X5.6125Y-2.625
X6.0125Y-2.625
X7.4875Y-1.875
X7.8875Y-1.875
X3.925Y-0.375
X4.325Y-0.375
X3.4562Y-2.625
X3.8562Y-2.625
X1.8625Y-1.125
X2.2625Y-1.125
X7.7687Y-2.625
X8.1687Y-2.625
X2.425Y-0.375
X2.825Y-0.375
X0.925Y-2.625
X1.325Y-2.625
X0.2687Y-1.125
X0.6687Y-1.125
X4.3937Y-2.625
X4.7938Y-2.625
X5.6125Y-1.125
X6.0125Y-1.125
X2.6125Y-1.125
X3.0125Y-1.125
X1.9563Y-2.625
X2.3562Y-2.625
X2.9875Y-1.875
X3.3875Y-1.875
X5.425Y-0.375
X5.825Y-0.375
X7.1125Y-2.625
X7.5125Y-2.625
X8.6125Y-1.125
X9.0125Y-1.125
X7.8625Y-1.125
X8.2625Y-1.125
X4.8625Y-1.125
X5.2625Y-1.125
X4.4875Y-1.875
X4.8875Y-1.875
T3
X5.25Y-2.9
X6.1875Y-2.9
X5.0625Y-2.9
X6.5625Y-2.9
X3.1875Y-2.9
X4.125Y-2.9
X2.6252Y-2.9
X6.5622Y-2.9
X2.8125Y-2.9
X4.3125Y-2.9
T4
X3.5625Y-1.125
X2.8125Y-2.3
X3.5625Y-2.625
X4.3125Y-2.3
X7.875Y-0.375
X2.0625Y-2.625
X1.3125Y-1.125
X1.2188Y-2.625
X7.3125Y-1.125
X6.375Y-0.375
X0.4688Y-2.625
X4.3125Y-1.125
X1.125Y-0.375
X8.8125Y-2.625
X6.9375Y-1.875
X0.6562Y-1.875
X5.4375Y-1.875
X8.625Y-1.875
X7.125Y-0.375
X8.7188Y-0.375
X8.0625Y-2.625
X4.875Y-0.375
X1.875Y-2.625
X1.875Y-0.375
X0.375Y-2.625
X2.4375Y-1.875
X3.375Y-0.375
X1.3125Y-2.625
X3.9375Y-1.875
X0.375Y-0.375
X7.125Y-2.625
X1.6875Y-1.875
X5.25Y-2.3
X5.7188Y-2.625
X6.1875Y-2.3
X6.1875Y-1.875
X6.5625Y-1.125
X5.0625Y-2.3
X5.8125Y-2.625
X6.5625Y-2.3
X7.6875Y-1.875
X4.125Y-0.375
X3.1875Y-2.3
X3.6562Y-2.625
X4.125Y-2.3
X2.0625Y-1.125
X7.9688Y-2.625
X2.625Y-0.375
X1.125Y-2.625
X0.4688Y-1.125
X2.6252Y-2.3
X4.5938Y-2.625
X6.5622Y-2.3
X5.8125Y-1.125
X2.8125Y-1.125
X2.1562Y-2.625
X3.1875Y-1.875
X5.625Y-0.375
X7.3125Y-2.625
X8.8125Y-1.125
X8.0625Y-1.125
X5.0625Y-1.125
X4.6875Y-1.875
T0
M30
