G04 #@! TF.GenerationSoftware,KiCad,Pcbnew,(5.1.4)-1*
G04 #@! TF.CreationDate,2021-01-09T01:18:09-06:00*
G04 #@! TF.ProjectId,semi,73656d69-2e6b-4696-9361-645f70636258,rev?*
G04 #@! TF.SameCoordinates,Original*
G04 #@! TF.FileFunction,Legend,Top*
G04 #@! TF.FilePolarity,Positive*
%FSLAX46Y46*%
G04 Gerber Fmt 4.6, Leading zero omitted, Abs format (unit mm)*
G04 Created by KiCad (PCBNEW (5.1.4)-1) date 2021-01-09 01:18:09*
%MOMM*%
%LPD*%
G04 APERTURE LIST*
%ADD10C,0.150000*%
G04 APERTURE END LIST*
D10*
X2412895Y-427180D02*
X2412895Y572819D01*
X2412895Y96628D02*
X2984323Y96628D01*
X2984323Y-427180D02*
X2984323Y572819D01*
X3889085Y239485D02*
X3889085Y-427180D01*
X3650990Y620438D02*
X3412895Y-93847D01*
X4031942Y-93847D01*
X2412895Y-70272780D02*
X2412895Y-69272780D01*
X2412895Y-69748971D02*
X2984323Y-69748971D01*
X2984323Y-70272780D02*
X2984323Y-69272780D01*
X3365276Y-69272780D02*
X3984323Y-69272780D01*
X3650990Y-69653733D01*
X3793847Y-69653733D01*
X3889085Y-69701352D01*
X3936704Y-69748971D01*
X3984323Y-69844209D01*
X3984323Y-70082304D01*
X3936704Y-70177542D01*
X3889085Y-70225161D01*
X3793847Y-70272780D01*
X3508133Y-70272780D01*
X3412895Y-70225161D01*
X3365276Y-70177542D01*
X229411095Y-70272780D02*
X229411095Y-69272780D01*
X229411095Y-69748971D02*
X229982523Y-69748971D01*
X229982523Y-70272780D02*
X229982523Y-69272780D01*
X230411095Y-69368019D02*
X230458714Y-69320400D01*
X230553952Y-69272780D01*
X230792047Y-69272780D01*
X230887285Y-69320400D01*
X230934904Y-69368019D01*
X230982523Y-69463257D01*
X230982523Y-69558495D01*
X230934904Y-69701352D01*
X230363476Y-70272780D01*
X230982523Y-70272780D01*
X229411095Y-427180D02*
X229411095Y572819D01*
X229411095Y96628D02*
X229982523Y96628D01*
X229982523Y-427180D02*
X229982523Y572819D01*
X230982523Y-427180D02*
X230411095Y-427180D01*
X230696809Y-427180D02*
X230696809Y572819D01*
X230601571Y429961D01*
X230506333Y334723D01*
X230411095Y287104D01*
M02*
