G04 #@! TF.GenerationSoftware,KiCad,Pcbnew,(5.1.4)-1*
G04 #@! TF.CreationDate,2021-01-09T02:02:00-06:00*
G04 #@! TF.ProjectId,semi,73656d69-2e6b-4696-9361-645f70636258,rev?*
G04 #@! TF.SameCoordinates,Original*
G04 #@! TF.FileFunction,Soldermask,Bot*
G04 #@! TF.FilePolarity,Negative*
%FSLAX46Y46*%
G04 Gerber Fmt 4.6, Leading zero omitted, Abs format (unit mm)*
G04 Created by KiCad (PCBNEW (5.1.4)-1) date 2021-01-09 02:02:00*
%MOMM*%
%LPD*%
G04 APERTURE LIST*
%ADD10C,3.987800*%
%ADD11C,3.048000*%
%ADD12C,1.750000*%
%ADD13C,2.250000*%
%ADD14C,0.100000*%
%ADD15C,0.875000*%
%ADD16R,0.400000X1.900000*%
%ADD17O,1.000000X1.600000*%
%ADD18O,1.000000X2.100000*%
%ADD19C,0.650000*%
%ADD20R,0.300000X1.450000*%
%ADD21R,0.600000X1.450000*%
%ADD22R,0.550000X1.500000*%
%ADD23R,1.500000X0.550000*%
%ADD24R,1.060000X0.650000*%
%ADD25R,1.100000X1.800000*%
%ADD26C,4.400000*%
%ADD27C,1.250000*%
%ADD28R,1.200000X0.900000*%
G04 APERTURE END LIST*
D10*
X166687500Y-58420000D03*
X128587500Y-58420000D03*
D11*
X166687500Y-73660000D03*
X128587500Y-73660000D03*
D12*
X152717500Y-66675000D03*
X142557500Y-66675000D03*
D10*
X147637500Y-66675000D03*
D13*
X143827500Y-64135000D03*
X150177500Y-61595000D03*
D14*
G36*
X25360691Y-1939053D02*
G01*
X25381926Y-1942203D01*
X25402750Y-1947419D01*
X25422962Y-1954651D01*
X25442368Y-1963830D01*
X25460781Y-1974866D01*
X25478024Y-1987654D01*
X25493930Y-2002070D01*
X25508346Y-2017976D01*
X25521134Y-2035219D01*
X25532170Y-2053632D01*
X25541349Y-2073038D01*
X25548581Y-2093250D01*
X25553797Y-2114074D01*
X25556947Y-2135309D01*
X25558000Y-2156750D01*
X25558000Y-2669250D01*
X25556947Y-2690691D01*
X25553797Y-2711926D01*
X25548581Y-2732750D01*
X25541349Y-2752962D01*
X25532170Y-2772368D01*
X25521134Y-2790781D01*
X25508346Y-2808024D01*
X25493930Y-2823930D01*
X25478024Y-2838346D01*
X25460781Y-2851134D01*
X25442368Y-2862170D01*
X25422962Y-2871349D01*
X25402750Y-2878581D01*
X25381926Y-2883797D01*
X25360691Y-2886947D01*
X25339250Y-2888000D01*
X24901750Y-2888000D01*
X24880309Y-2886947D01*
X24859074Y-2883797D01*
X24838250Y-2878581D01*
X24818038Y-2871349D01*
X24798632Y-2862170D01*
X24780219Y-2851134D01*
X24762976Y-2838346D01*
X24747070Y-2823930D01*
X24732654Y-2808024D01*
X24719866Y-2790781D01*
X24708830Y-2772368D01*
X24699651Y-2752962D01*
X24692419Y-2732750D01*
X24687203Y-2711926D01*
X24684053Y-2690691D01*
X24683000Y-2669250D01*
X24683000Y-2156750D01*
X24684053Y-2135309D01*
X24687203Y-2114074D01*
X24692419Y-2093250D01*
X24699651Y-2073038D01*
X24708830Y-2053632D01*
X24719866Y-2035219D01*
X24732654Y-2017976D01*
X24747070Y-2002070D01*
X24762976Y-1987654D01*
X24780219Y-1974866D01*
X24798632Y-1963830D01*
X24818038Y-1954651D01*
X24838250Y-1947419D01*
X24859074Y-1942203D01*
X24880309Y-1939053D01*
X24901750Y-1938000D01*
X25339250Y-1938000D01*
X25360691Y-1939053D01*
X25360691Y-1939053D01*
G37*
D15*
X25120500Y-2413000D03*
D14*
G36*
X26935691Y-1939053D02*
G01*
X26956926Y-1942203D01*
X26977750Y-1947419D01*
X26997962Y-1954651D01*
X27017368Y-1963830D01*
X27035781Y-1974866D01*
X27053024Y-1987654D01*
X27068930Y-2002070D01*
X27083346Y-2017976D01*
X27096134Y-2035219D01*
X27107170Y-2053632D01*
X27116349Y-2073038D01*
X27123581Y-2093250D01*
X27128797Y-2114074D01*
X27131947Y-2135309D01*
X27133000Y-2156750D01*
X27133000Y-2669250D01*
X27131947Y-2690691D01*
X27128797Y-2711926D01*
X27123581Y-2732750D01*
X27116349Y-2752962D01*
X27107170Y-2772368D01*
X27096134Y-2790781D01*
X27083346Y-2808024D01*
X27068930Y-2823930D01*
X27053024Y-2838346D01*
X27035781Y-2851134D01*
X27017368Y-2862170D01*
X26997962Y-2871349D01*
X26977750Y-2878581D01*
X26956926Y-2883797D01*
X26935691Y-2886947D01*
X26914250Y-2888000D01*
X26476750Y-2888000D01*
X26455309Y-2886947D01*
X26434074Y-2883797D01*
X26413250Y-2878581D01*
X26393038Y-2871349D01*
X26373632Y-2862170D01*
X26355219Y-2851134D01*
X26337976Y-2838346D01*
X26322070Y-2823930D01*
X26307654Y-2808024D01*
X26294866Y-2790781D01*
X26283830Y-2772368D01*
X26274651Y-2752962D01*
X26267419Y-2732750D01*
X26262203Y-2711926D01*
X26259053Y-2690691D01*
X26258000Y-2669250D01*
X26258000Y-2156750D01*
X26259053Y-2135309D01*
X26262203Y-2114074D01*
X26267419Y-2093250D01*
X26274651Y-2073038D01*
X26283830Y-2053632D01*
X26294866Y-2035219D01*
X26307654Y-2017976D01*
X26322070Y-2002070D01*
X26337976Y-1987654D01*
X26355219Y-1974866D01*
X26373632Y-1963830D01*
X26393038Y-1954651D01*
X26413250Y-1947419D01*
X26434074Y-1942203D01*
X26455309Y-1939053D01*
X26476750Y-1938000D01*
X26914250Y-1938000D01*
X26935691Y-1939053D01*
X26935691Y-1939053D01*
G37*
D15*
X26695500Y-2413000D03*
D16*
X38297000Y-39370000D03*
X39497000Y-39370000D03*
X40697000Y-39370000D03*
D17*
X23243000Y67000D03*
X14603000Y67000D03*
D18*
X23243000Y-4113000D03*
X14603000Y-4113000D03*
D19*
X16033000Y-3583000D03*
X21813000Y-3583000D03*
D20*
X18673000Y-5028000D03*
X19173000Y-5028000D03*
X19673000Y-5028000D03*
X18173000Y-5028000D03*
X20173000Y-5028000D03*
X17673000Y-5028000D03*
X20673000Y-5028000D03*
X17173000Y-5028000D03*
D21*
X16473000Y-5028000D03*
X21373000Y-5028000D03*
X15698000Y-5028000D03*
X22148000Y-5028000D03*
D22*
X25845000Y-34178000D03*
X26645000Y-34178000D03*
X27445000Y-34178000D03*
X28245000Y-34178000D03*
X29045000Y-34178000D03*
X29845000Y-34178000D03*
X30645000Y-34178000D03*
X31445000Y-34178000D03*
X32245000Y-34178000D03*
X33045000Y-34178000D03*
X33845000Y-34178000D03*
D23*
X35545000Y-35878000D03*
X35545000Y-36678000D03*
X35545000Y-37478000D03*
X35545000Y-38278000D03*
X35545000Y-39078000D03*
X35545000Y-39878000D03*
X35545000Y-40678000D03*
X35545000Y-41478000D03*
X35545000Y-42278000D03*
X35545000Y-43078000D03*
X35545000Y-43878000D03*
D22*
X33845000Y-45578000D03*
X33045000Y-45578000D03*
X32245000Y-45578000D03*
X31445000Y-45578000D03*
X30645000Y-45578000D03*
X29845000Y-45578000D03*
X29045000Y-45578000D03*
X28245000Y-45578000D03*
X27445000Y-45578000D03*
X26645000Y-45578000D03*
X25845000Y-45578000D03*
D23*
X24145000Y-43878000D03*
X24145000Y-43078000D03*
X24145000Y-42278000D03*
X24145000Y-41478000D03*
X24145000Y-40678000D03*
X24145000Y-39878000D03*
X24145000Y-39078000D03*
X24145000Y-38278000D03*
X24145000Y-37478000D03*
X24145000Y-36678000D03*
X24145000Y-35878000D03*
D24*
X17823000Y-9017000D03*
X17823000Y-8067000D03*
X17823000Y-9967000D03*
X20023000Y-9967000D03*
X20023000Y-9017000D03*
X20023000Y-8067000D03*
D25*
X54234200Y-41197600D03*
X50534200Y-34997600D03*
X50534200Y-41197600D03*
X54234200Y-34997600D03*
D14*
G36*
X26046691Y-47151053D02*
G01*
X26067926Y-47154203D01*
X26088750Y-47159419D01*
X26108962Y-47166651D01*
X26128368Y-47175830D01*
X26146781Y-47186866D01*
X26164024Y-47199654D01*
X26179930Y-47214070D01*
X26194346Y-47229976D01*
X26207134Y-47247219D01*
X26218170Y-47265632D01*
X26227349Y-47285038D01*
X26234581Y-47305250D01*
X26239797Y-47326074D01*
X26242947Y-47347309D01*
X26244000Y-47368750D01*
X26244000Y-47881250D01*
X26242947Y-47902691D01*
X26239797Y-47923926D01*
X26234581Y-47944750D01*
X26227349Y-47964962D01*
X26218170Y-47984368D01*
X26207134Y-48002781D01*
X26194346Y-48020024D01*
X26179930Y-48035930D01*
X26164024Y-48050346D01*
X26146781Y-48063134D01*
X26128368Y-48074170D01*
X26108962Y-48083349D01*
X26088750Y-48090581D01*
X26067926Y-48095797D01*
X26046691Y-48098947D01*
X26025250Y-48100000D01*
X25587750Y-48100000D01*
X25566309Y-48098947D01*
X25545074Y-48095797D01*
X25524250Y-48090581D01*
X25504038Y-48083349D01*
X25484632Y-48074170D01*
X25466219Y-48063134D01*
X25448976Y-48050346D01*
X25433070Y-48035930D01*
X25418654Y-48020024D01*
X25405866Y-48002781D01*
X25394830Y-47984368D01*
X25385651Y-47964962D01*
X25378419Y-47944750D01*
X25373203Y-47923926D01*
X25370053Y-47902691D01*
X25369000Y-47881250D01*
X25369000Y-47368750D01*
X25370053Y-47347309D01*
X25373203Y-47326074D01*
X25378419Y-47305250D01*
X25385651Y-47285038D01*
X25394830Y-47265632D01*
X25405866Y-47247219D01*
X25418654Y-47229976D01*
X25433070Y-47214070D01*
X25448976Y-47199654D01*
X25466219Y-47186866D01*
X25484632Y-47175830D01*
X25504038Y-47166651D01*
X25524250Y-47159419D01*
X25545074Y-47154203D01*
X25566309Y-47151053D01*
X25587750Y-47150000D01*
X26025250Y-47150000D01*
X26046691Y-47151053D01*
X26046691Y-47151053D01*
G37*
D15*
X25806500Y-47625000D03*
D14*
G36*
X24471691Y-47151053D02*
G01*
X24492926Y-47154203D01*
X24513750Y-47159419D01*
X24533962Y-47166651D01*
X24553368Y-47175830D01*
X24571781Y-47186866D01*
X24589024Y-47199654D01*
X24604930Y-47214070D01*
X24619346Y-47229976D01*
X24632134Y-47247219D01*
X24643170Y-47265632D01*
X24652349Y-47285038D01*
X24659581Y-47305250D01*
X24664797Y-47326074D01*
X24667947Y-47347309D01*
X24669000Y-47368750D01*
X24669000Y-47881250D01*
X24667947Y-47902691D01*
X24664797Y-47923926D01*
X24659581Y-47944750D01*
X24652349Y-47964962D01*
X24643170Y-47984368D01*
X24632134Y-48002781D01*
X24619346Y-48020024D01*
X24604930Y-48035930D01*
X24589024Y-48050346D01*
X24571781Y-48063134D01*
X24553368Y-48074170D01*
X24533962Y-48083349D01*
X24513750Y-48090581D01*
X24492926Y-48095797D01*
X24471691Y-48098947D01*
X24450250Y-48100000D01*
X24012750Y-48100000D01*
X23991309Y-48098947D01*
X23970074Y-48095797D01*
X23949250Y-48090581D01*
X23929038Y-48083349D01*
X23909632Y-48074170D01*
X23891219Y-48063134D01*
X23873976Y-48050346D01*
X23858070Y-48035930D01*
X23843654Y-48020024D01*
X23830866Y-48002781D01*
X23819830Y-47984368D01*
X23810651Y-47964962D01*
X23803419Y-47944750D01*
X23798203Y-47923926D01*
X23795053Y-47902691D01*
X23794000Y-47881250D01*
X23794000Y-47368750D01*
X23795053Y-47347309D01*
X23798203Y-47326074D01*
X23803419Y-47305250D01*
X23810651Y-47285038D01*
X23819830Y-47265632D01*
X23830866Y-47247219D01*
X23843654Y-47229976D01*
X23858070Y-47214070D01*
X23873976Y-47199654D01*
X23891219Y-47186866D01*
X23909632Y-47175830D01*
X23929038Y-47166651D01*
X23949250Y-47159419D01*
X23970074Y-47154203D01*
X23991309Y-47151053D01*
X24012750Y-47150000D01*
X24450250Y-47150000D01*
X24471691Y-47151053D01*
X24471691Y-47151053D01*
G37*
D15*
X24231500Y-47625000D03*
D14*
G36*
X20343691Y-11476053D02*
G01*
X20364926Y-11479203D01*
X20385750Y-11484419D01*
X20405962Y-11491651D01*
X20425368Y-11500830D01*
X20443781Y-11511866D01*
X20461024Y-11524654D01*
X20476930Y-11539070D01*
X20491346Y-11554976D01*
X20504134Y-11572219D01*
X20515170Y-11590632D01*
X20524349Y-11610038D01*
X20531581Y-11630250D01*
X20536797Y-11651074D01*
X20539947Y-11672309D01*
X20541000Y-11693750D01*
X20541000Y-12131250D01*
X20539947Y-12152691D01*
X20536797Y-12173926D01*
X20531581Y-12194750D01*
X20524349Y-12214962D01*
X20515170Y-12234368D01*
X20504134Y-12252781D01*
X20491346Y-12270024D01*
X20476930Y-12285930D01*
X20461024Y-12300346D01*
X20443781Y-12313134D01*
X20425368Y-12324170D01*
X20405962Y-12333349D01*
X20385750Y-12340581D01*
X20364926Y-12345797D01*
X20343691Y-12348947D01*
X20322250Y-12350000D01*
X19809750Y-12350000D01*
X19788309Y-12348947D01*
X19767074Y-12345797D01*
X19746250Y-12340581D01*
X19726038Y-12333349D01*
X19706632Y-12324170D01*
X19688219Y-12313134D01*
X19670976Y-12300346D01*
X19655070Y-12285930D01*
X19640654Y-12270024D01*
X19627866Y-12252781D01*
X19616830Y-12234368D01*
X19607651Y-12214962D01*
X19600419Y-12194750D01*
X19595203Y-12173926D01*
X19592053Y-12152691D01*
X19591000Y-12131250D01*
X19591000Y-11693750D01*
X19592053Y-11672309D01*
X19595203Y-11651074D01*
X19600419Y-11630250D01*
X19607651Y-11610038D01*
X19616830Y-11590632D01*
X19627866Y-11572219D01*
X19640654Y-11554976D01*
X19655070Y-11539070D01*
X19670976Y-11524654D01*
X19688219Y-11511866D01*
X19706632Y-11500830D01*
X19726038Y-11491651D01*
X19746250Y-11484419D01*
X19767074Y-11479203D01*
X19788309Y-11476053D01*
X19809750Y-11475000D01*
X20322250Y-11475000D01*
X20343691Y-11476053D01*
X20343691Y-11476053D01*
G37*
D15*
X20066000Y-11912500D03*
D14*
G36*
X20343691Y-13051053D02*
G01*
X20364926Y-13054203D01*
X20385750Y-13059419D01*
X20405962Y-13066651D01*
X20425368Y-13075830D01*
X20443781Y-13086866D01*
X20461024Y-13099654D01*
X20476930Y-13114070D01*
X20491346Y-13129976D01*
X20504134Y-13147219D01*
X20515170Y-13165632D01*
X20524349Y-13185038D01*
X20531581Y-13205250D01*
X20536797Y-13226074D01*
X20539947Y-13247309D01*
X20541000Y-13268750D01*
X20541000Y-13706250D01*
X20539947Y-13727691D01*
X20536797Y-13748926D01*
X20531581Y-13769750D01*
X20524349Y-13789962D01*
X20515170Y-13809368D01*
X20504134Y-13827781D01*
X20491346Y-13845024D01*
X20476930Y-13860930D01*
X20461024Y-13875346D01*
X20443781Y-13888134D01*
X20425368Y-13899170D01*
X20405962Y-13908349D01*
X20385750Y-13915581D01*
X20364926Y-13920797D01*
X20343691Y-13923947D01*
X20322250Y-13925000D01*
X19809750Y-13925000D01*
X19788309Y-13923947D01*
X19767074Y-13920797D01*
X19746250Y-13915581D01*
X19726038Y-13908349D01*
X19706632Y-13899170D01*
X19688219Y-13888134D01*
X19670976Y-13875346D01*
X19655070Y-13860930D01*
X19640654Y-13845024D01*
X19627866Y-13827781D01*
X19616830Y-13809368D01*
X19607651Y-13789962D01*
X19600419Y-13769750D01*
X19595203Y-13748926D01*
X19592053Y-13727691D01*
X19591000Y-13706250D01*
X19591000Y-13268750D01*
X19592053Y-13247309D01*
X19595203Y-13226074D01*
X19600419Y-13205250D01*
X19607651Y-13185038D01*
X19616830Y-13165632D01*
X19627866Y-13147219D01*
X19640654Y-13129976D01*
X19655070Y-13114070D01*
X19670976Y-13099654D01*
X19688219Y-13086866D01*
X19706632Y-13075830D01*
X19726038Y-13066651D01*
X19746250Y-13059419D01*
X19767074Y-13054203D01*
X19788309Y-13051053D01*
X19809750Y-13050000D01*
X20322250Y-13050000D01*
X20343691Y-13051053D01*
X20343691Y-13051053D01*
G37*
D15*
X20066000Y-13487500D03*
D14*
G36*
X18057691Y-11476053D02*
G01*
X18078926Y-11479203D01*
X18099750Y-11484419D01*
X18119962Y-11491651D01*
X18139368Y-11500830D01*
X18157781Y-11511866D01*
X18175024Y-11524654D01*
X18190930Y-11539070D01*
X18205346Y-11554976D01*
X18218134Y-11572219D01*
X18229170Y-11590632D01*
X18238349Y-11610038D01*
X18245581Y-11630250D01*
X18250797Y-11651074D01*
X18253947Y-11672309D01*
X18255000Y-11693750D01*
X18255000Y-12131250D01*
X18253947Y-12152691D01*
X18250797Y-12173926D01*
X18245581Y-12194750D01*
X18238349Y-12214962D01*
X18229170Y-12234368D01*
X18218134Y-12252781D01*
X18205346Y-12270024D01*
X18190930Y-12285930D01*
X18175024Y-12300346D01*
X18157781Y-12313134D01*
X18139368Y-12324170D01*
X18119962Y-12333349D01*
X18099750Y-12340581D01*
X18078926Y-12345797D01*
X18057691Y-12348947D01*
X18036250Y-12350000D01*
X17523750Y-12350000D01*
X17502309Y-12348947D01*
X17481074Y-12345797D01*
X17460250Y-12340581D01*
X17440038Y-12333349D01*
X17420632Y-12324170D01*
X17402219Y-12313134D01*
X17384976Y-12300346D01*
X17369070Y-12285930D01*
X17354654Y-12270024D01*
X17341866Y-12252781D01*
X17330830Y-12234368D01*
X17321651Y-12214962D01*
X17314419Y-12194750D01*
X17309203Y-12173926D01*
X17306053Y-12152691D01*
X17305000Y-12131250D01*
X17305000Y-11693750D01*
X17306053Y-11672309D01*
X17309203Y-11651074D01*
X17314419Y-11630250D01*
X17321651Y-11610038D01*
X17330830Y-11590632D01*
X17341866Y-11572219D01*
X17354654Y-11554976D01*
X17369070Y-11539070D01*
X17384976Y-11524654D01*
X17402219Y-11511866D01*
X17420632Y-11500830D01*
X17440038Y-11491651D01*
X17460250Y-11484419D01*
X17481074Y-11479203D01*
X17502309Y-11476053D01*
X17523750Y-11475000D01*
X18036250Y-11475000D01*
X18057691Y-11476053D01*
X18057691Y-11476053D01*
G37*
D15*
X17780000Y-11912500D03*
D14*
G36*
X18057691Y-13051053D02*
G01*
X18078926Y-13054203D01*
X18099750Y-13059419D01*
X18119962Y-13066651D01*
X18139368Y-13075830D01*
X18157781Y-13086866D01*
X18175024Y-13099654D01*
X18190930Y-13114070D01*
X18205346Y-13129976D01*
X18218134Y-13147219D01*
X18229170Y-13165632D01*
X18238349Y-13185038D01*
X18245581Y-13205250D01*
X18250797Y-13226074D01*
X18253947Y-13247309D01*
X18255000Y-13268750D01*
X18255000Y-13706250D01*
X18253947Y-13727691D01*
X18250797Y-13748926D01*
X18245581Y-13769750D01*
X18238349Y-13789962D01*
X18229170Y-13809368D01*
X18218134Y-13827781D01*
X18205346Y-13845024D01*
X18190930Y-13860930D01*
X18175024Y-13875346D01*
X18157781Y-13888134D01*
X18139368Y-13899170D01*
X18119962Y-13908349D01*
X18099750Y-13915581D01*
X18078926Y-13920797D01*
X18057691Y-13923947D01*
X18036250Y-13925000D01*
X17523750Y-13925000D01*
X17502309Y-13923947D01*
X17481074Y-13920797D01*
X17460250Y-13915581D01*
X17440038Y-13908349D01*
X17420632Y-13899170D01*
X17402219Y-13888134D01*
X17384976Y-13875346D01*
X17369070Y-13860930D01*
X17354654Y-13845024D01*
X17341866Y-13827781D01*
X17330830Y-13809368D01*
X17321651Y-13789962D01*
X17314419Y-13769750D01*
X17309203Y-13748926D01*
X17306053Y-13727691D01*
X17305000Y-13706250D01*
X17305000Y-13268750D01*
X17306053Y-13247309D01*
X17309203Y-13226074D01*
X17314419Y-13205250D01*
X17321651Y-13185038D01*
X17330830Y-13165632D01*
X17341866Y-13147219D01*
X17354654Y-13129976D01*
X17369070Y-13114070D01*
X17384976Y-13099654D01*
X17402219Y-13086866D01*
X17420632Y-13075830D01*
X17440038Y-13066651D01*
X17460250Y-13059419D01*
X17481074Y-13054203D01*
X17502309Y-13051053D01*
X17523750Y-13050000D01*
X18036250Y-13050000D01*
X18057691Y-13051053D01*
X18057691Y-13051053D01*
G37*
D15*
X17780000Y-13487500D03*
D14*
G36*
X25360691Y-4098053D02*
G01*
X25381926Y-4101203D01*
X25402750Y-4106419D01*
X25422962Y-4113651D01*
X25442368Y-4122830D01*
X25460781Y-4133866D01*
X25478024Y-4146654D01*
X25493930Y-4161070D01*
X25508346Y-4176976D01*
X25521134Y-4194219D01*
X25532170Y-4212632D01*
X25541349Y-4232038D01*
X25548581Y-4252250D01*
X25553797Y-4273074D01*
X25556947Y-4294309D01*
X25558000Y-4315750D01*
X25558000Y-4828250D01*
X25556947Y-4849691D01*
X25553797Y-4870926D01*
X25548581Y-4891750D01*
X25541349Y-4911962D01*
X25532170Y-4931368D01*
X25521134Y-4949781D01*
X25508346Y-4967024D01*
X25493930Y-4982930D01*
X25478024Y-4997346D01*
X25460781Y-5010134D01*
X25442368Y-5021170D01*
X25422962Y-5030349D01*
X25402750Y-5037581D01*
X25381926Y-5042797D01*
X25360691Y-5045947D01*
X25339250Y-5047000D01*
X24901750Y-5047000D01*
X24880309Y-5045947D01*
X24859074Y-5042797D01*
X24838250Y-5037581D01*
X24818038Y-5030349D01*
X24798632Y-5021170D01*
X24780219Y-5010134D01*
X24762976Y-4997346D01*
X24747070Y-4982930D01*
X24732654Y-4967024D01*
X24719866Y-4949781D01*
X24708830Y-4931368D01*
X24699651Y-4911962D01*
X24692419Y-4891750D01*
X24687203Y-4870926D01*
X24684053Y-4849691D01*
X24683000Y-4828250D01*
X24683000Y-4315750D01*
X24684053Y-4294309D01*
X24687203Y-4273074D01*
X24692419Y-4252250D01*
X24699651Y-4232038D01*
X24708830Y-4212632D01*
X24719866Y-4194219D01*
X24732654Y-4176976D01*
X24747070Y-4161070D01*
X24762976Y-4146654D01*
X24780219Y-4133866D01*
X24798632Y-4122830D01*
X24818038Y-4113651D01*
X24838250Y-4106419D01*
X24859074Y-4101203D01*
X24880309Y-4098053D01*
X24901750Y-4097000D01*
X25339250Y-4097000D01*
X25360691Y-4098053D01*
X25360691Y-4098053D01*
G37*
D15*
X25120500Y-4572000D03*
D14*
G36*
X26935691Y-4098053D02*
G01*
X26956926Y-4101203D01*
X26977750Y-4106419D01*
X26997962Y-4113651D01*
X27017368Y-4122830D01*
X27035781Y-4133866D01*
X27053024Y-4146654D01*
X27068930Y-4161070D01*
X27083346Y-4176976D01*
X27096134Y-4194219D01*
X27107170Y-4212632D01*
X27116349Y-4232038D01*
X27123581Y-4252250D01*
X27128797Y-4273074D01*
X27131947Y-4294309D01*
X27133000Y-4315750D01*
X27133000Y-4828250D01*
X27131947Y-4849691D01*
X27128797Y-4870926D01*
X27123581Y-4891750D01*
X27116349Y-4911962D01*
X27107170Y-4931368D01*
X27096134Y-4949781D01*
X27083346Y-4967024D01*
X27068930Y-4982930D01*
X27053024Y-4997346D01*
X27035781Y-5010134D01*
X27017368Y-5021170D01*
X26997962Y-5030349D01*
X26977750Y-5037581D01*
X26956926Y-5042797D01*
X26935691Y-5045947D01*
X26914250Y-5047000D01*
X26476750Y-5047000D01*
X26455309Y-5045947D01*
X26434074Y-5042797D01*
X26413250Y-5037581D01*
X26393038Y-5030349D01*
X26373632Y-5021170D01*
X26355219Y-5010134D01*
X26337976Y-4997346D01*
X26322070Y-4982930D01*
X26307654Y-4967024D01*
X26294866Y-4949781D01*
X26283830Y-4931368D01*
X26274651Y-4911962D01*
X26267419Y-4891750D01*
X26262203Y-4870926D01*
X26259053Y-4849691D01*
X26258000Y-4828250D01*
X26258000Y-4315750D01*
X26259053Y-4294309D01*
X26262203Y-4273074D01*
X26267419Y-4252250D01*
X26274651Y-4232038D01*
X26283830Y-4212632D01*
X26294866Y-4194219D01*
X26307654Y-4176976D01*
X26322070Y-4161070D01*
X26337976Y-4146654D01*
X26355219Y-4133866D01*
X26373632Y-4122830D01*
X26393038Y-4113651D01*
X26413250Y-4106419D01*
X26434074Y-4101203D01*
X26455309Y-4098053D01*
X26476750Y-4097000D01*
X26914250Y-4097000D01*
X26935691Y-4098053D01*
X26935691Y-4098053D01*
G37*
D15*
X26695500Y-4572000D03*
D14*
G36*
X14501691Y-7209053D02*
G01*
X14522926Y-7212203D01*
X14543750Y-7217419D01*
X14563962Y-7224651D01*
X14583368Y-7233830D01*
X14601781Y-7244866D01*
X14619024Y-7257654D01*
X14634930Y-7272070D01*
X14649346Y-7287976D01*
X14662134Y-7305219D01*
X14673170Y-7323632D01*
X14682349Y-7343038D01*
X14689581Y-7363250D01*
X14694797Y-7384074D01*
X14697947Y-7405309D01*
X14699000Y-7426750D01*
X14699000Y-7864250D01*
X14697947Y-7885691D01*
X14694797Y-7906926D01*
X14689581Y-7927750D01*
X14682349Y-7947962D01*
X14673170Y-7967368D01*
X14662134Y-7985781D01*
X14649346Y-8003024D01*
X14634930Y-8018930D01*
X14619024Y-8033346D01*
X14601781Y-8046134D01*
X14583368Y-8057170D01*
X14563962Y-8066349D01*
X14543750Y-8073581D01*
X14522926Y-8078797D01*
X14501691Y-8081947D01*
X14480250Y-8083000D01*
X13967750Y-8083000D01*
X13946309Y-8081947D01*
X13925074Y-8078797D01*
X13904250Y-8073581D01*
X13884038Y-8066349D01*
X13864632Y-8057170D01*
X13846219Y-8046134D01*
X13828976Y-8033346D01*
X13813070Y-8018930D01*
X13798654Y-8003024D01*
X13785866Y-7985781D01*
X13774830Y-7967368D01*
X13765651Y-7947962D01*
X13758419Y-7927750D01*
X13753203Y-7906926D01*
X13750053Y-7885691D01*
X13749000Y-7864250D01*
X13749000Y-7426750D01*
X13750053Y-7405309D01*
X13753203Y-7384074D01*
X13758419Y-7363250D01*
X13765651Y-7343038D01*
X13774830Y-7323632D01*
X13785866Y-7305219D01*
X13798654Y-7287976D01*
X13813070Y-7272070D01*
X13828976Y-7257654D01*
X13846219Y-7244866D01*
X13864632Y-7233830D01*
X13884038Y-7224651D01*
X13904250Y-7217419D01*
X13925074Y-7212203D01*
X13946309Y-7209053D01*
X13967750Y-7208000D01*
X14480250Y-7208000D01*
X14501691Y-7209053D01*
X14501691Y-7209053D01*
G37*
D15*
X14224000Y-7645500D03*
D14*
G36*
X14501691Y-5634053D02*
G01*
X14522926Y-5637203D01*
X14543750Y-5642419D01*
X14563962Y-5649651D01*
X14583368Y-5658830D01*
X14601781Y-5669866D01*
X14619024Y-5682654D01*
X14634930Y-5697070D01*
X14649346Y-5712976D01*
X14662134Y-5730219D01*
X14673170Y-5748632D01*
X14682349Y-5768038D01*
X14689581Y-5788250D01*
X14694797Y-5809074D01*
X14697947Y-5830309D01*
X14699000Y-5851750D01*
X14699000Y-6289250D01*
X14697947Y-6310691D01*
X14694797Y-6331926D01*
X14689581Y-6352750D01*
X14682349Y-6372962D01*
X14673170Y-6392368D01*
X14662134Y-6410781D01*
X14649346Y-6428024D01*
X14634930Y-6443930D01*
X14619024Y-6458346D01*
X14601781Y-6471134D01*
X14583368Y-6482170D01*
X14563962Y-6491349D01*
X14543750Y-6498581D01*
X14522926Y-6503797D01*
X14501691Y-6506947D01*
X14480250Y-6508000D01*
X13967750Y-6508000D01*
X13946309Y-6506947D01*
X13925074Y-6503797D01*
X13904250Y-6498581D01*
X13884038Y-6491349D01*
X13864632Y-6482170D01*
X13846219Y-6471134D01*
X13828976Y-6458346D01*
X13813070Y-6443930D01*
X13798654Y-6428024D01*
X13785866Y-6410781D01*
X13774830Y-6392368D01*
X13765651Y-6372962D01*
X13758419Y-6352750D01*
X13753203Y-6331926D01*
X13750053Y-6310691D01*
X13749000Y-6289250D01*
X13749000Y-5851750D01*
X13750053Y-5830309D01*
X13753203Y-5809074D01*
X13758419Y-5788250D01*
X13765651Y-5768038D01*
X13774830Y-5748632D01*
X13785866Y-5730219D01*
X13798654Y-5712976D01*
X13813070Y-5697070D01*
X13828976Y-5682654D01*
X13846219Y-5669866D01*
X13864632Y-5658830D01*
X13884038Y-5649651D01*
X13904250Y-5642419D01*
X13925074Y-5637203D01*
X13946309Y-5634053D01*
X13967750Y-5633000D01*
X14480250Y-5633000D01*
X14501691Y-5634053D01*
X14501691Y-5634053D01*
G37*
D15*
X14224000Y-6070500D03*
D14*
G36*
X46886691Y-34463053D02*
G01*
X46907926Y-34466203D01*
X46928750Y-34471419D01*
X46948962Y-34478651D01*
X46968368Y-34487830D01*
X46986781Y-34498866D01*
X47004024Y-34511654D01*
X47019930Y-34526070D01*
X47034346Y-34541976D01*
X47047134Y-34559219D01*
X47058170Y-34577632D01*
X47067349Y-34597038D01*
X47074581Y-34617250D01*
X47079797Y-34638074D01*
X47082947Y-34659309D01*
X47084000Y-34680750D01*
X47084000Y-35118250D01*
X47082947Y-35139691D01*
X47079797Y-35160926D01*
X47074581Y-35181750D01*
X47067349Y-35201962D01*
X47058170Y-35221368D01*
X47047134Y-35239781D01*
X47034346Y-35257024D01*
X47019930Y-35272930D01*
X47004024Y-35287346D01*
X46986781Y-35300134D01*
X46968368Y-35311170D01*
X46948962Y-35320349D01*
X46928750Y-35327581D01*
X46907926Y-35332797D01*
X46886691Y-35335947D01*
X46865250Y-35337000D01*
X46352750Y-35337000D01*
X46331309Y-35335947D01*
X46310074Y-35332797D01*
X46289250Y-35327581D01*
X46269038Y-35320349D01*
X46249632Y-35311170D01*
X46231219Y-35300134D01*
X46213976Y-35287346D01*
X46198070Y-35272930D01*
X46183654Y-35257024D01*
X46170866Y-35239781D01*
X46159830Y-35221368D01*
X46150651Y-35201962D01*
X46143419Y-35181750D01*
X46138203Y-35160926D01*
X46135053Y-35139691D01*
X46134000Y-35118250D01*
X46134000Y-34680750D01*
X46135053Y-34659309D01*
X46138203Y-34638074D01*
X46143419Y-34617250D01*
X46150651Y-34597038D01*
X46159830Y-34577632D01*
X46170866Y-34559219D01*
X46183654Y-34541976D01*
X46198070Y-34526070D01*
X46213976Y-34511654D01*
X46231219Y-34498866D01*
X46249632Y-34487830D01*
X46269038Y-34478651D01*
X46289250Y-34471419D01*
X46310074Y-34466203D01*
X46331309Y-34463053D01*
X46352750Y-34462000D01*
X46865250Y-34462000D01*
X46886691Y-34463053D01*
X46886691Y-34463053D01*
G37*
D15*
X46609000Y-34899500D03*
D14*
G36*
X46886691Y-36038053D02*
G01*
X46907926Y-36041203D01*
X46928750Y-36046419D01*
X46948962Y-36053651D01*
X46968368Y-36062830D01*
X46986781Y-36073866D01*
X47004024Y-36086654D01*
X47019930Y-36101070D01*
X47034346Y-36116976D01*
X47047134Y-36134219D01*
X47058170Y-36152632D01*
X47067349Y-36172038D01*
X47074581Y-36192250D01*
X47079797Y-36213074D01*
X47082947Y-36234309D01*
X47084000Y-36255750D01*
X47084000Y-36693250D01*
X47082947Y-36714691D01*
X47079797Y-36735926D01*
X47074581Y-36756750D01*
X47067349Y-36776962D01*
X47058170Y-36796368D01*
X47047134Y-36814781D01*
X47034346Y-36832024D01*
X47019930Y-36847930D01*
X47004024Y-36862346D01*
X46986781Y-36875134D01*
X46968368Y-36886170D01*
X46948962Y-36895349D01*
X46928750Y-36902581D01*
X46907926Y-36907797D01*
X46886691Y-36910947D01*
X46865250Y-36912000D01*
X46352750Y-36912000D01*
X46331309Y-36910947D01*
X46310074Y-36907797D01*
X46289250Y-36902581D01*
X46269038Y-36895349D01*
X46249632Y-36886170D01*
X46231219Y-36875134D01*
X46213976Y-36862346D01*
X46198070Y-36847930D01*
X46183654Y-36832024D01*
X46170866Y-36814781D01*
X46159830Y-36796368D01*
X46150651Y-36776962D01*
X46143419Y-36756750D01*
X46138203Y-36735926D01*
X46135053Y-36714691D01*
X46134000Y-36693250D01*
X46134000Y-36255750D01*
X46135053Y-36234309D01*
X46138203Y-36213074D01*
X46143419Y-36192250D01*
X46150651Y-36172038D01*
X46159830Y-36152632D01*
X46170866Y-36134219D01*
X46183654Y-36116976D01*
X46198070Y-36101070D01*
X46213976Y-36086654D01*
X46231219Y-36073866D01*
X46249632Y-36062830D01*
X46269038Y-36053651D01*
X46289250Y-36046419D01*
X46310074Y-36041203D01*
X46331309Y-36038053D01*
X46352750Y-36037000D01*
X46865250Y-36037000D01*
X46886691Y-36038053D01*
X46886691Y-36038053D01*
G37*
D15*
X46609000Y-36474500D03*
D26*
X3174800Y-3174800D03*
X3174800Y-73020400D03*
X230173000Y-73020400D03*
X230173000Y-3174800D03*
D14*
G36*
X16143504Y-11187204D02*
G01*
X16167773Y-11190804D01*
X16191571Y-11196765D01*
X16214671Y-11205030D01*
X16236849Y-11215520D01*
X16257893Y-11228133D01*
X16277598Y-11242747D01*
X16295777Y-11259223D01*
X16312253Y-11277402D01*
X16326867Y-11297107D01*
X16339480Y-11318151D01*
X16349970Y-11340329D01*
X16358235Y-11363429D01*
X16364196Y-11387227D01*
X16367796Y-11411496D01*
X16369000Y-11436000D01*
X16369000Y-12186000D01*
X16367796Y-12210504D01*
X16364196Y-12234773D01*
X16358235Y-12258571D01*
X16349970Y-12281671D01*
X16339480Y-12303849D01*
X16326867Y-12324893D01*
X16312253Y-12344598D01*
X16295777Y-12362777D01*
X16277598Y-12379253D01*
X16257893Y-12393867D01*
X16236849Y-12406480D01*
X16214671Y-12416970D01*
X16191571Y-12425235D01*
X16167773Y-12431196D01*
X16143504Y-12434796D01*
X16119000Y-12436000D01*
X14869000Y-12436000D01*
X14844496Y-12434796D01*
X14820227Y-12431196D01*
X14796429Y-12425235D01*
X14773329Y-12416970D01*
X14751151Y-12406480D01*
X14730107Y-12393867D01*
X14710402Y-12379253D01*
X14692223Y-12362777D01*
X14675747Y-12344598D01*
X14661133Y-12324893D01*
X14648520Y-12303849D01*
X14638030Y-12281671D01*
X14629765Y-12258571D01*
X14623804Y-12234773D01*
X14620204Y-12210504D01*
X14619000Y-12186000D01*
X14619000Y-11436000D01*
X14620204Y-11411496D01*
X14623804Y-11387227D01*
X14629765Y-11363429D01*
X14638030Y-11340329D01*
X14648520Y-11318151D01*
X14661133Y-11297107D01*
X14675747Y-11277402D01*
X14692223Y-11259223D01*
X14710402Y-11242747D01*
X14730107Y-11228133D01*
X14751151Y-11215520D01*
X14773329Y-11205030D01*
X14796429Y-11196765D01*
X14820227Y-11190804D01*
X14844496Y-11187204D01*
X14869000Y-11186000D01*
X16119000Y-11186000D01*
X16143504Y-11187204D01*
X16143504Y-11187204D01*
G37*
D27*
X15494000Y-11811000D03*
D14*
G36*
X16143504Y-13987204D02*
G01*
X16167773Y-13990804D01*
X16191571Y-13996765D01*
X16214671Y-14005030D01*
X16236849Y-14015520D01*
X16257893Y-14028133D01*
X16277598Y-14042747D01*
X16295777Y-14059223D01*
X16312253Y-14077402D01*
X16326867Y-14097107D01*
X16339480Y-14118151D01*
X16349970Y-14140329D01*
X16358235Y-14163429D01*
X16364196Y-14187227D01*
X16367796Y-14211496D01*
X16369000Y-14236000D01*
X16369000Y-14986000D01*
X16367796Y-15010504D01*
X16364196Y-15034773D01*
X16358235Y-15058571D01*
X16349970Y-15081671D01*
X16339480Y-15103849D01*
X16326867Y-15124893D01*
X16312253Y-15144598D01*
X16295777Y-15162777D01*
X16277598Y-15179253D01*
X16257893Y-15193867D01*
X16236849Y-15206480D01*
X16214671Y-15216970D01*
X16191571Y-15225235D01*
X16167773Y-15231196D01*
X16143504Y-15234796D01*
X16119000Y-15236000D01*
X14869000Y-15236000D01*
X14844496Y-15234796D01*
X14820227Y-15231196D01*
X14796429Y-15225235D01*
X14773329Y-15216970D01*
X14751151Y-15206480D01*
X14730107Y-15193867D01*
X14710402Y-15179253D01*
X14692223Y-15162777D01*
X14675747Y-15144598D01*
X14661133Y-15124893D01*
X14648520Y-15103849D01*
X14638030Y-15081671D01*
X14629765Y-15058571D01*
X14623804Y-15034773D01*
X14620204Y-15010504D01*
X14619000Y-14986000D01*
X14619000Y-14236000D01*
X14620204Y-14211496D01*
X14623804Y-14187227D01*
X14629765Y-14163429D01*
X14638030Y-14140329D01*
X14648520Y-14118151D01*
X14661133Y-14097107D01*
X14675747Y-14077402D01*
X14692223Y-14059223D01*
X14710402Y-14042747D01*
X14730107Y-14028133D01*
X14751151Y-14015520D01*
X14773329Y-14005030D01*
X14796429Y-13996765D01*
X14820227Y-13990804D01*
X14844496Y-13987204D01*
X14869000Y-13986000D01*
X16119000Y-13986000D01*
X16143504Y-13987204D01*
X16143504Y-13987204D01*
G37*
D27*
X15494000Y-14611000D03*
D14*
G36*
X24852691Y-31022053D02*
G01*
X24873926Y-31025203D01*
X24894750Y-31030419D01*
X24914962Y-31037651D01*
X24934368Y-31046830D01*
X24952781Y-31057866D01*
X24970024Y-31070654D01*
X24985930Y-31085070D01*
X25000346Y-31100976D01*
X25013134Y-31118219D01*
X25024170Y-31136632D01*
X25033349Y-31156038D01*
X25040581Y-31176250D01*
X25045797Y-31197074D01*
X25048947Y-31218309D01*
X25050000Y-31239750D01*
X25050000Y-31752250D01*
X25048947Y-31773691D01*
X25045797Y-31794926D01*
X25040581Y-31815750D01*
X25033349Y-31835962D01*
X25024170Y-31855368D01*
X25013134Y-31873781D01*
X25000346Y-31891024D01*
X24985930Y-31906930D01*
X24970024Y-31921346D01*
X24952781Y-31934134D01*
X24934368Y-31945170D01*
X24914962Y-31954349D01*
X24894750Y-31961581D01*
X24873926Y-31966797D01*
X24852691Y-31969947D01*
X24831250Y-31971000D01*
X24393750Y-31971000D01*
X24372309Y-31969947D01*
X24351074Y-31966797D01*
X24330250Y-31961581D01*
X24310038Y-31954349D01*
X24290632Y-31945170D01*
X24272219Y-31934134D01*
X24254976Y-31921346D01*
X24239070Y-31906930D01*
X24224654Y-31891024D01*
X24211866Y-31873781D01*
X24200830Y-31855368D01*
X24191651Y-31835962D01*
X24184419Y-31815750D01*
X24179203Y-31794926D01*
X24176053Y-31773691D01*
X24175000Y-31752250D01*
X24175000Y-31239750D01*
X24176053Y-31218309D01*
X24179203Y-31197074D01*
X24184419Y-31176250D01*
X24191651Y-31156038D01*
X24200830Y-31136632D01*
X24211866Y-31118219D01*
X24224654Y-31100976D01*
X24239070Y-31085070D01*
X24254976Y-31070654D01*
X24272219Y-31057866D01*
X24290632Y-31046830D01*
X24310038Y-31037651D01*
X24330250Y-31030419D01*
X24351074Y-31025203D01*
X24372309Y-31022053D01*
X24393750Y-31021000D01*
X24831250Y-31021000D01*
X24852691Y-31022053D01*
X24852691Y-31022053D01*
G37*
D15*
X24612500Y-31496000D03*
D14*
G36*
X26427691Y-31022053D02*
G01*
X26448926Y-31025203D01*
X26469750Y-31030419D01*
X26489962Y-31037651D01*
X26509368Y-31046830D01*
X26527781Y-31057866D01*
X26545024Y-31070654D01*
X26560930Y-31085070D01*
X26575346Y-31100976D01*
X26588134Y-31118219D01*
X26599170Y-31136632D01*
X26608349Y-31156038D01*
X26615581Y-31176250D01*
X26620797Y-31197074D01*
X26623947Y-31218309D01*
X26625000Y-31239750D01*
X26625000Y-31752250D01*
X26623947Y-31773691D01*
X26620797Y-31794926D01*
X26615581Y-31815750D01*
X26608349Y-31835962D01*
X26599170Y-31855368D01*
X26588134Y-31873781D01*
X26575346Y-31891024D01*
X26560930Y-31906930D01*
X26545024Y-31921346D01*
X26527781Y-31934134D01*
X26509368Y-31945170D01*
X26489962Y-31954349D01*
X26469750Y-31961581D01*
X26448926Y-31966797D01*
X26427691Y-31969947D01*
X26406250Y-31971000D01*
X25968750Y-31971000D01*
X25947309Y-31969947D01*
X25926074Y-31966797D01*
X25905250Y-31961581D01*
X25885038Y-31954349D01*
X25865632Y-31945170D01*
X25847219Y-31934134D01*
X25829976Y-31921346D01*
X25814070Y-31906930D01*
X25799654Y-31891024D01*
X25786866Y-31873781D01*
X25775830Y-31855368D01*
X25766651Y-31835962D01*
X25759419Y-31815750D01*
X25754203Y-31794926D01*
X25751053Y-31773691D01*
X25750000Y-31752250D01*
X25750000Y-31239750D01*
X25751053Y-31218309D01*
X25754203Y-31197074D01*
X25759419Y-31176250D01*
X25766651Y-31156038D01*
X25775830Y-31136632D01*
X25786866Y-31118219D01*
X25799654Y-31100976D01*
X25814070Y-31085070D01*
X25829976Y-31070654D01*
X25847219Y-31057866D01*
X25865632Y-31046830D01*
X25885038Y-31037651D01*
X25905250Y-31030419D01*
X25926074Y-31025203D01*
X25947309Y-31022053D01*
X25968750Y-31021000D01*
X26406250Y-31021000D01*
X26427691Y-31022053D01*
X26427691Y-31022053D01*
G37*
D15*
X26187500Y-31496000D03*
D14*
G36*
X40270691Y-36102053D02*
G01*
X40291926Y-36105203D01*
X40312750Y-36110419D01*
X40332962Y-36117651D01*
X40352368Y-36126830D01*
X40370781Y-36137866D01*
X40388024Y-36150654D01*
X40403930Y-36165070D01*
X40418346Y-36180976D01*
X40431134Y-36198219D01*
X40442170Y-36216632D01*
X40451349Y-36236038D01*
X40458581Y-36256250D01*
X40463797Y-36277074D01*
X40466947Y-36298309D01*
X40468000Y-36319750D01*
X40468000Y-36832250D01*
X40466947Y-36853691D01*
X40463797Y-36874926D01*
X40458581Y-36895750D01*
X40451349Y-36915962D01*
X40442170Y-36935368D01*
X40431134Y-36953781D01*
X40418346Y-36971024D01*
X40403930Y-36986930D01*
X40388024Y-37001346D01*
X40370781Y-37014134D01*
X40352368Y-37025170D01*
X40332962Y-37034349D01*
X40312750Y-37041581D01*
X40291926Y-37046797D01*
X40270691Y-37049947D01*
X40249250Y-37051000D01*
X39811750Y-37051000D01*
X39790309Y-37049947D01*
X39769074Y-37046797D01*
X39748250Y-37041581D01*
X39728038Y-37034349D01*
X39708632Y-37025170D01*
X39690219Y-37014134D01*
X39672976Y-37001346D01*
X39657070Y-36986930D01*
X39642654Y-36971024D01*
X39629866Y-36953781D01*
X39618830Y-36935368D01*
X39609651Y-36915962D01*
X39602419Y-36895750D01*
X39597203Y-36874926D01*
X39594053Y-36853691D01*
X39593000Y-36832250D01*
X39593000Y-36319750D01*
X39594053Y-36298309D01*
X39597203Y-36277074D01*
X39602419Y-36256250D01*
X39609651Y-36236038D01*
X39618830Y-36216632D01*
X39629866Y-36198219D01*
X39642654Y-36180976D01*
X39657070Y-36165070D01*
X39672976Y-36150654D01*
X39690219Y-36137866D01*
X39708632Y-36126830D01*
X39728038Y-36117651D01*
X39748250Y-36110419D01*
X39769074Y-36105203D01*
X39790309Y-36102053D01*
X39811750Y-36101000D01*
X40249250Y-36101000D01*
X40270691Y-36102053D01*
X40270691Y-36102053D01*
G37*
D15*
X40030500Y-36576000D03*
D14*
G36*
X38695691Y-36102053D02*
G01*
X38716926Y-36105203D01*
X38737750Y-36110419D01*
X38757962Y-36117651D01*
X38777368Y-36126830D01*
X38795781Y-36137866D01*
X38813024Y-36150654D01*
X38828930Y-36165070D01*
X38843346Y-36180976D01*
X38856134Y-36198219D01*
X38867170Y-36216632D01*
X38876349Y-36236038D01*
X38883581Y-36256250D01*
X38888797Y-36277074D01*
X38891947Y-36298309D01*
X38893000Y-36319750D01*
X38893000Y-36832250D01*
X38891947Y-36853691D01*
X38888797Y-36874926D01*
X38883581Y-36895750D01*
X38876349Y-36915962D01*
X38867170Y-36935368D01*
X38856134Y-36953781D01*
X38843346Y-36971024D01*
X38828930Y-36986930D01*
X38813024Y-37001346D01*
X38795781Y-37014134D01*
X38777368Y-37025170D01*
X38757962Y-37034349D01*
X38737750Y-37041581D01*
X38716926Y-37046797D01*
X38695691Y-37049947D01*
X38674250Y-37051000D01*
X38236750Y-37051000D01*
X38215309Y-37049947D01*
X38194074Y-37046797D01*
X38173250Y-37041581D01*
X38153038Y-37034349D01*
X38133632Y-37025170D01*
X38115219Y-37014134D01*
X38097976Y-37001346D01*
X38082070Y-36986930D01*
X38067654Y-36971024D01*
X38054866Y-36953781D01*
X38043830Y-36935368D01*
X38034651Y-36915962D01*
X38027419Y-36895750D01*
X38022203Y-36874926D01*
X38019053Y-36853691D01*
X38018000Y-36832250D01*
X38018000Y-36319750D01*
X38019053Y-36298309D01*
X38022203Y-36277074D01*
X38027419Y-36256250D01*
X38034651Y-36236038D01*
X38043830Y-36216632D01*
X38054866Y-36198219D01*
X38067654Y-36180976D01*
X38082070Y-36165070D01*
X38097976Y-36150654D01*
X38115219Y-36137866D01*
X38133632Y-36126830D01*
X38153038Y-36117651D01*
X38173250Y-36110419D01*
X38194074Y-36105203D01*
X38215309Y-36102053D01*
X38236750Y-36101000D01*
X38674250Y-36101000D01*
X38695691Y-36102053D01*
X38695691Y-36102053D01*
G37*
D15*
X38455500Y-36576000D03*
D14*
G36*
X35063691Y-47151053D02*
G01*
X35084926Y-47154203D01*
X35105750Y-47159419D01*
X35125962Y-47166651D01*
X35145368Y-47175830D01*
X35163781Y-47186866D01*
X35181024Y-47199654D01*
X35196930Y-47214070D01*
X35211346Y-47229976D01*
X35224134Y-47247219D01*
X35235170Y-47265632D01*
X35244349Y-47285038D01*
X35251581Y-47305250D01*
X35256797Y-47326074D01*
X35259947Y-47347309D01*
X35261000Y-47368750D01*
X35261000Y-47881250D01*
X35259947Y-47902691D01*
X35256797Y-47923926D01*
X35251581Y-47944750D01*
X35244349Y-47964962D01*
X35235170Y-47984368D01*
X35224134Y-48002781D01*
X35211346Y-48020024D01*
X35196930Y-48035930D01*
X35181024Y-48050346D01*
X35163781Y-48063134D01*
X35145368Y-48074170D01*
X35125962Y-48083349D01*
X35105750Y-48090581D01*
X35084926Y-48095797D01*
X35063691Y-48098947D01*
X35042250Y-48100000D01*
X34604750Y-48100000D01*
X34583309Y-48098947D01*
X34562074Y-48095797D01*
X34541250Y-48090581D01*
X34521038Y-48083349D01*
X34501632Y-48074170D01*
X34483219Y-48063134D01*
X34465976Y-48050346D01*
X34450070Y-48035930D01*
X34435654Y-48020024D01*
X34422866Y-48002781D01*
X34411830Y-47984368D01*
X34402651Y-47964962D01*
X34395419Y-47944750D01*
X34390203Y-47923926D01*
X34387053Y-47902691D01*
X34386000Y-47881250D01*
X34386000Y-47368750D01*
X34387053Y-47347309D01*
X34390203Y-47326074D01*
X34395419Y-47305250D01*
X34402651Y-47285038D01*
X34411830Y-47265632D01*
X34422866Y-47247219D01*
X34435654Y-47229976D01*
X34450070Y-47214070D01*
X34465976Y-47199654D01*
X34483219Y-47186866D01*
X34501632Y-47175830D01*
X34521038Y-47166651D01*
X34541250Y-47159419D01*
X34562074Y-47154203D01*
X34583309Y-47151053D01*
X34604750Y-47150000D01*
X35042250Y-47150000D01*
X35063691Y-47151053D01*
X35063691Y-47151053D01*
G37*
D15*
X34823500Y-47625000D03*
D14*
G36*
X33488691Y-47151053D02*
G01*
X33509926Y-47154203D01*
X33530750Y-47159419D01*
X33550962Y-47166651D01*
X33570368Y-47175830D01*
X33588781Y-47186866D01*
X33606024Y-47199654D01*
X33621930Y-47214070D01*
X33636346Y-47229976D01*
X33649134Y-47247219D01*
X33660170Y-47265632D01*
X33669349Y-47285038D01*
X33676581Y-47305250D01*
X33681797Y-47326074D01*
X33684947Y-47347309D01*
X33686000Y-47368750D01*
X33686000Y-47881250D01*
X33684947Y-47902691D01*
X33681797Y-47923926D01*
X33676581Y-47944750D01*
X33669349Y-47964962D01*
X33660170Y-47984368D01*
X33649134Y-48002781D01*
X33636346Y-48020024D01*
X33621930Y-48035930D01*
X33606024Y-48050346D01*
X33588781Y-48063134D01*
X33570368Y-48074170D01*
X33550962Y-48083349D01*
X33530750Y-48090581D01*
X33509926Y-48095797D01*
X33488691Y-48098947D01*
X33467250Y-48100000D01*
X33029750Y-48100000D01*
X33008309Y-48098947D01*
X32987074Y-48095797D01*
X32966250Y-48090581D01*
X32946038Y-48083349D01*
X32926632Y-48074170D01*
X32908219Y-48063134D01*
X32890976Y-48050346D01*
X32875070Y-48035930D01*
X32860654Y-48020024D01*
X32847866Y-48002781D01*
X32836830Y-47984368D01*
X32827651Y-47964962D01*
X32820419Y-47944750D01*
X32815203Y-47923926D01*
X32812053Y-47902691D01*
X32811000Y-47881250D01*
X32811000Y-47368750D01*
X32812053Y-47347309D01*
X32815203Y-47326074D01*
X32820419Y-47305250D01*
X32827651Y-47285038D01*
X32836830Y-47265632D01*
X32847866Y-47247219D01*
X32860654Y-47229976D01*
X32875070Y-47214070D01*
X32890976Y-47199654D01*
X32908219Y-47186866D01*
X32926632Y-47175830D01*
X32946038Y-47166651D01*
X32966250Y-47159419D01*
X32987074Y-47154203D01*
X33008309Y-47151053D01*
X33029750Y-47150000D01*
X33467250Y-47150000D01*
X33488691Y-47151053D01*
X33488691Y-47151053D01*
G37*
D15*
X33248500Y-47625000D03*
D14*
G36*
X22375691Y-42718053D02*
G01*
X22396926Y-42721203D01*
X22417750Y-42726419D01*
X22437962Y-42733651D01*
X22457368Y-42742830D01*
X22475781Y-42753866D01*
X22493024Y-42766654D01*
X22508930Y-42781070D01*
X22523346Y-42796976D01*
X22536134Y-42814219D01*
X22547170Y-42832632D01*
X22556349Y-42852038D01*
X22563581Y-42872250D01*
X22568797Y-42893074D01*
X22571947Y-42914309D01*
X22573000Y-42935750D01*
X22573000Y-43373250D01*
X22571947Y-43394691D01*
X22568797Y-43415926D01*
X22563581Y-43436750D01*
X22556349Y-43456962D01*
X22547170Y-43476368D01*
X22536134Y-43494781D01*
X22523346Y-43512024D01*
X22508930Y-43527930D01*
X22493024Y-43542346D01*
X22475781Y-43555134D01*
X22457368Y-43566170D01*
X22437962Y-43575349D01*
X22417750Y-43582581D01*
X22396926Y-43587797D01*
X22375691Y-43590947D01*
X22354250Y-43592000D01*
X21841750Y-43592000D01*
X21820309Y-43590947D01*
X21799074Y-43587797D01*
X21778250Y-43582581D01*
X21758038Y-43575349D01*
X21738632Y-43566170D01*
X21720219Y-43555134D01*
X21702976Y-43542346D01*
X21687070Y-43527930D01*
X21672654Y-43512024D01*
X21659866Y-43494781D01*
X21648830Y-43476368D01*
X21639651Y-43456962D01*
X21632419Y-43436750D01*
X21627203Y-43415926D01*
X21624053Y-43394691D01*
X21623000Y-43373250D01*
X21623000Y-42935750D01*
X21624053Y-42914309D01*
X21627203Y-42893074D01*
X21632419Y-42872250D01*
X21639651Y-42852038D01*
X21648830Y-42832632D01*
X21659866Y-42814219D01*
X21672654Y-42796976D01*
X21687070Y-42781070D01*
X21702976Y-42766654D01*
X21720219Y-42753866D01*
X21738632Y-42742830D01*
X21758038Y-42733651D01*
X21778250Y-42726419D01*
X21799074Y-42721203D01*
X21820309Y-42718053D01*
X21841750Y-42717000D01*
X22354250Y-42717000D01*
X22375691Y-42718053D01*
X22375691Y-42718053D01*
G37*
D15*
X22098000Y-43154500D03*
D14*
G36*
X22375691Y-44293053D02*
G01*
X22396926Y-44296203D01*
X22417750Y-44301419D01*
X22437962Y-44308651D01*
X22457368Y-44317830D01*
X22475781Y-44328866D01*
X22493024Y-44341654D01*
X22508930Y-44356070D01*
X22523346Y-44371976D01*
X22536134Y-44389219D01*
X22547170Y-44407632D01*
X22556349Y-44427038D01*
X22563581Y-44447250D01*
X22568797Y-44468074D01*
X22571947Y-44489309D01*
X22573000Y-44510750D01*
X22573000Y-44948250D01*
X22571947Y-44969691D01*
X22568797Y-44990926D01*
X22563581Y-45011750D01*
X22556349Y-45031962D01*
X22547170Y-45051368D01*
X22536134Y-45069781D01*
X22523346Y-45087024D01*
X22508930Y-45102930D01*
X22493024Y-45117346D01*
X22475781Y-45130134D01*
X22457368Y-45141170D01*
X22437962Y-45150349D01*
X22417750Y-45157581D01*
X22396926Y-45162797D01*
X22375691Y-45165947D01*
X22354250Y-45167000D01*
X21841750Y-45167000D01*
X21820309Y-45165947D01*
X21799074Y-45162797D01*
X21778250Y-45157581D01*
X21758038Y-45150349D01*
X21738632Y-45141170D01*
X21720219Y-45130134D01*
X21702976Y-45117346D01*
X21687070Y-45102930D01*
X21672654Y-45087024D01*
X21659866Y-45069781D01*
X21648830Y-45051368D01*
X21639651Y-45031962D01*
X21632419Y-45011750D01*
X21627203Y-44990926D01*
X21624053Y-44969691D01*
X21623000Y-44948250D01*
X21623000Y-44510750D01*
X21624053Y-44489309D01*
X21627203Y-44468074D01*
X21632419Y-44447250D01*
X21639651Y-44427038D01*
X21648830Y-44407632D01*
X21659866Y-44389219D01*
X21672654Y-44371976D01*
X21687070Y-44356070D01*
X21702976Y-44341654D01*
X21720219Y-44328866D01*
X21738632Y-44317830D01*
X21758038Y-44308651D01*
X21778250Y-44301419D01*
X21799074Y-44296203D01*
X21820309Y-44293053D01*
X21841750Y-44292000D01*
X22354250Y-44292000D01*
X22375691Y-44293053D01*
X22375691Y-44293053D01*
G37*
D15*
X22098000Y-44729500D03*
D14*
G36*
X22375691Y-36038053D02*
G01*
X22396926Y-36041203D01*
X22417750Y-36046419D01*
X22437962Y-36053651D01*
X22457368Y-36062830D01*
X22475781Y-36073866D01*
X22493024Y-36086654D01*
X22508930Y-36101070D01*
X22523346Y-36116976D01*
X22536134Y-36134219D01*
X22547170Y-36152632D01*
X22556349Y-36172038D01*
X22563581Y-36192250D01*
X22568797Y-36213074D01*
X22571947Y-36234309D01*
X22573000Y-36255750D01*
X22573000Y-36693250D01*
X22571947Y-36714691D01*
X22568797Y-36735926D01*
X22563581Y-36756750D01*
X22556349Y-36776962D01*
X22547170Y-36796368D01*
X22536134Y-36814781D01*
X22523346Y-36832024D01*
X22508930Y-36847930D01*
X22493024Y-36862346D01*
X22475781Y-36875134D01*
X22457368Y-36886170D01*
X22437962Y-36895349D01*
X22417750Y-36902581D01*
X22396926Y-36907797D01*
X22375691Y-36910947D01*
X22354250Y-36912000D01*
X21841750Y-36912000D01*
X21820309Y-36910947D01*
X21799074Y-36907797D01*
X21778250Y-36902581D01*
X21758038Y-36895349D01*
X21738632Y-36886170D01*
X21720219Y-36875134D01*
X21702976Y-36862346D01*
X21687070Y-36847930D01*
X21672654Y-36832024D01*
X21659866Y-36814781D01*
X21648830Y-36796368D01*
X21639651Y-36776962D01*
X21632419Y-36756750D01*
X21627203Y-36735926D01*
X21624053Y-36714691D01*
X21623000Y-36693250D01*
X21623000Y-36255750D01*
X21624053Y-36234309D01*
X21627203Y-36213074D01*
X21632419Y-36192250D01*
X21639651Y-36172038D01*
X21648830Y-36152632D01*
X21659866Y-36134219D01*
X21672654Y-36116976D01*
X21687070Y-36101070D01*
X21702976Y-36086654D01*
X21720219Y-36073866D01*
X21738632Y-36062830D01*
X21758038Y-36053651D01*
X21778250Y-36046419D01*
X21799074Y-36041203D01*
X21820309Y-36038053D01*
X21841750Y-36037000D01*
X22354250Y-36037000D01*
X22375691Y-36038053D01*
X22375691Y-36038053D01*
G37*
D15*
X22098000Y-36474500D03*
D14*
G36*
X22375691Y-34463053D02*
G01*
X22396926Y-34466203D01*
X22417750Y-34471419D01*
X22437962Y-34478651D01*
X22457368Y-34487830D01*
X22475781Y-34498866D01*
X22493024Y-34511654D01*
X22508930Y-34526070D01*
X22523346Y-34541976D01*
X22536134Y-34559219D01*
X22547170Y-34577632D01*
X22556349Y-34597038D01*
X22563581Y-34617250D01*
X22568797Y-34638074D01*
X22571947Y-34659309D01*
X22573000Y-34680750D01*
X22573000Y-35118250D01*
X22571947Y-35139691D01*
X22568797Y-35160926D01*
X22563581Y-35181750D01*
X22556349Y-35201962D01*
X22547170Y-35221368D01*
X22536134Y-35239781D01*
X22523346Y-35257024D01*
X22508930Y-35272930D01*
X22493024Y-35287346D01*
X22475781Y-35300134D01*
X22457368Y-35311170D01*
X22437962Y-35320349D01*
X22417750Y-35327581D01*
X22396926Y-35332797D01*
X22375691Y-35335947D01*
X22354250Y-35337000D01*
X21841750Y-35337000D01*
X21820309Y-35335947D01*
X21799074Y-35332797D01*
X21778250Y-35327581D01*
X21758038Y-35320349D01*
X21738632Y-35311170D01*
X21720219Y-35300134D01*
X21702976Y-35287346D01*
X21687070Y-35272930D01*
X21672654Y-35257024D01*
X21659866Y-35239781D01*
X21648830Y-35221368D01*
X21639651Y-35201962D01*
X21632419Y-35181750D01*
X21627203Y-35160926D01*
X21624053Y-35139691D01*
X21623000Y-35118250D01*
X21623000Y-34680750D01*
X21624053Y-34659309D01*
X21627203Y-34638074D01*
X21632419Y-34617250D01*
X21639651Y-34597038D01*
X21648830Y-34577632D01*
X21659866Y-34559219D01*
X21672654Y-34541976D01*
X21687070Y-34526070D01*
X21702976Y-34511654D01*
X21720219Y-34498866D01*
X21738632Y-34487830D01*
X21758038Y-34478651D01*
X21778250Y-34471419D01*
X21799074Y-34466203D01*
X21820309Y-34463053D01*
X21841750Y-34462000D01*
X22354250Y-34462000D01*
X22375691Y-34463053D01*
X22375691Y-34463053D01*
G37*
D15*
X22098000Y-34899500D03*
D14*
G36*
X31392691Y-30145053D02*
G01*
X31413926Y-30148203D01*
X31434750Y-30153419D01*
X31454962Y-30160651D01*
X31474368Y-30169830D01*
X31492781Y-30180866D01*
X31510024Y-30193654D01*
X31525930Y-30208070D01*
X31540346Y-30223976D01*
X31553134Y-30241219D01*
X31564170Y-30259632D01*
X31573349Y-30279038D01*
X31580581Y-30299250D01*
X31585797Y-30320074D01*
X31588947Y-30341309D01*
X31590000Y-30362750D01*
X31590000Y-30800250D01*
X31588947Y-30821691D01*
X31585797Y-30842926D01*
X31580581Y-30863750D01*
X31573349Y-30883962D01*
X31564170Y-30903368D01*
X31553134Y-30921781D01*
X31540346Y-30939024D01*
X31525930Y-30954930D01*
X31510024Y-30969346D01*
X31492781Y-30982134D01*
X31474368Y-30993170D01*
X31454962Y-31002349D01*
X31434750Y-31009581D01*
X31413926Y-31014797D01*
X31392691Y-31017947D01*
X31371250Y-31019000D01*
X30858750Y-31019000D01*
X30837309Y-31017947D01*
X30816074Y-31014797D01*
X30795250Y-31009581D01*
X30775038Y-31002349D01*
X30755632Y-30993170D01*
X30737219Y-30982134D01*
X30719976Y-30969346D01*
X30704070Y-30954930D01*
X30689654Y-30939024D01*
X30676866Y-30921781D01*
X30665830Y-30903368D01*
X30656651Y-30883962D01*
X30649419Y-30863750D01*
X30644203Y-30842926D01*
X30641053Y-30821691D01*
X30640000Y-30800250D01*
X30640000Y-30362750D01*
X30641053Y-30341309D01*
X30644203Y-30320074D01*
X30649419Y-30299250D01*
X30656651Y-30279038D01*
X30665830Y-30259632D01*
X30676866Y-30241219D01*
X30689654Y-30223976D01*
X30704070Y-30208070D01*
X30719976Y-30193654D01*
X30737219Y-30180866D01*
X30755632Y-30169830D01*
X30775038Y-30160651D01*
X30795250Y-30153419D01*
X30816074Y-30148203D01*
X30837309Y-30145053D01*
X30858750Y-30144000D01*
X31371250Y-30144000D01*
X31392691Y-30145053D01*
X31392691Y-30145053D01*
G37*
D15*
X31115000Y-30581500D03*
D14*
G36*
X31392691Y-31720053D02*
G01*
X31413926Y-31723203D01*
X31434750Y-31728419D01*
X31454962Y-31735651D01*
X31474368Y-31744830D01*
X31492781Y-31755866D01*
X31510024Y-31768654D01*
X31525930Y-31783070D01*
X31540346Y-31798976D01*
X31553134Y-31816219D01*
X31564170Y-31834632D01*
X31573349Y-31854038D01*
X31580581Y-31874250D01*
X31585797Y-31895074D01*
X31588947Y-31916309D01*
X31590000Y-31937750D01*
X31590000Y-32375250D01*
X31588947Y-32396691D01*
X31585797Y-32417926D01*
X31580581Y-32438750D01*
X31573349Y-32458962D01*
X31564170Y-32478368D01*
X31553134Y-32496781D01*
X31540346Y-32514024D01*
X31525930Y-32529930D01*
X31510024Y-32544346D01*
X31492781Y-32557134D01*
X31474368Y-32568170D01*
X31454962Y-32577349D01*
X31434750Y-32584581D01*
X31413926Y-32589797D01*
X31392691Y-32592947D01*
X31371250Y-32594000D01*
X30858750Y-32594000D01*
X30837309Y-32592947D01*
X30816074Y-32589797D01*
X30795250Y-32584581D01*
X30775038Y-32577349D01*
X30755632Y-32568170D01*
X30737219Y-32557134D01*
X30719976Y-32544346D01*
X30704070Y-32529930D01*
X30689654Y-32514024D01*
X30676866Y-32496781D01*
X30665830Y-32478368D01*
X30656651Y-32458962D01*
X30649419Y-32438750D01*
X30644203Y-32417926D01*
X30641053Y-32396691D01*
X30640000Y-32375250D01*
X30640000Y-31937750D01*
X30641053Y-31916309D01*
X30644203Y-31895074D01*
X30649419Y-31874250D01*
X30656651Y-31854038D01*
X30665830Y-31834632D01*
X30676866Y-31816219D01*
X30689654Y-31798976D01*
X30704070Y-31783070D01*
X30719976Y-31768654D01*
X30737219Y-31755866D01*
X30755632Y-31744830D01*
X30775038Y-31735651D01*
X30795250Y-31728419D01*
X30816074Y-31723203D01*
X30837309Y-31720053D01*
X30858750Y-31719000D01*
X31371250Y-31719000D01*
X31392691Y-31720053D01*
X31392691Y-31720053D01*
G37*
D15*
X31115000Y-32156500D03*
D14*
G36*
X29868691Y-30145053D02*
G01*
X29889926Y-30148203D01*
X29910750Y-30153419D01*
X29930962Y-30160651D01*
X29950368Y-30169830D01*
X29968781Y-30180866D01*
X29986024Y-30193654D01*
X30001930Y-30208070D01*
X30016346Y-30223976D01*
X30029134Y-30241219D01*
X30040170Y-30259632D01*
X30049349Y-30279038D01*
X30056581Y-30299250D01*
X30061797Y-30320074D01*
X30064947Y-30341309D01*
X30066000Y-30362750D01*
X30066000Y-30800250D01*
X30064947Y-30821691D01*
X30061797Y-30842926D01*
X30056581Y-30863750D01*
X30049349Y-30883962D01*
X30040170Y-30903368D01*
X30029134Y-30921781D01*
X30016346Y-30939024D01*
X30001930Y-30954930D01*
X29986024Y-30969346D01*
X29968781Y-30982134D01*
X29950368Y-30993170D01*
X29930962Y-31002349D01*
X29910750Y-31009581D01*
X29889926Y-31014797D01*
X29868691Y-31017947D01*
X29847250Y-31019000D01*
X29334750Y-31019000D01*
X29313309Y-31017947D01*
X29292074Y-31014797D01*
X29271250Y-31009581D01*
X29251038Y-31002349D01*
X29231632Y-30993170D01*
X29213219Y-30982134D01*
X29195976Y-30969346D01*
X29180070Y-30954930D01*
X29165654Y-30939024D01*
X29152866Y-30921781D01*
X29141830Y-30903368D01*
X29132651Y-30883962D01*
X29125419Y-30863750D01*
X29120203Y-30842926D01*
X29117053Y-30821691D01*
X29116000Y-30800250D01*
X29116000Y-30362750D01*
X29117053Y-30341309D01*
X29120203Y-30320074D01*
X29125419Y-30299250D01*
X29132651Y-30279038D01*
X29141830Y-30259632D01*
X29152866Y-30241219D01*
X29165654Y-30223976D01*
X29180070Y-30208070D01*
X29195976Y-30193654D01*
X29213219Y-30180866D01*
X29231632Y-30169830D01*
X29251038Y-30160651D01*
X29271250Y-30153419D01*
X29292074Y-30148203D01*
X29313309Y-30145053D01*
X29334750Y-30144000D01*
X29847250Y-30144000D01*
X29868691Y-30145053D01*
X29868691Y-30145053D01*
G37*
D15*
X29591000Y-30581500D03*
D14*
G36*
X29868691Y-31720053D02*
G01*
X29889926Y-31723203D01*
X29910750Y-31728419D01*
X29930962Y-31735651D01*
X29950368Y-31744830D01*
X29968781Y-31755866D01*
X29986024Y-31768654D01*
X30001930Y-31783070D01*
X30016346Y-31798976D01*
X30029134Y-31816219D01*
X30040170Y-31834632D01*
X30049349Y-31854038D01*
X30056581Y-31874250D01*
X30061797Y-31895074D01*
X30064947Y-31916309D01*
X30066000Y-31937750D01*
X30066000Y-32375250D01*
X30064947Y-32396691D01*
X30061797Y-32417926D01*
X30056581Y-32438750D01*
X30049349Y-32458962D01*
X30040170Y-32478368D01*
X30029134Y-32496781D01*
X30016346Y-32514024D01*
X30001930Y-32529930D01*
X29986024Y-32544346D01*
X29968781Y-32557134D01*
X29950368Y-32568170D01*
X29930962Y-32577349D01*
X29910750Y-32584581D01*
X29889926Y-32589797D01*
X29868691Y-32592947D01*
X29847250Y-32594000D01*
X29334750Y-32594000D01*
X29313309Y-32592947D01*
X29292074Y-32589797D01*
X29271250Y-32584581D01*
X29251038Y-32577349D01*
X29231632Y-32568170D01*
X29213219Y-32557134D01*
X29195976Y-32544346D01*
X29180070Y-32529930D01*
X29165654Y-32514024D01*
X29152866Y-32496781D01*
X29141830Y-32478368D01*
X29132651Y-32458962D01*
X29125419Y-32438750D01*
X29120203Y-32417926D01*
X29117053Y-32396691D01*
X29116000Y-32375250D01*
X29116000Y-31937750D01*
X29117053Y-31916309D01*
X29120203Y-31895074D01*
X29125419Y-31874250D01*
X29132651Y-31854038D01*
X29141830Y-31834632D01*
X29152866Y-31816219D01*
X29165654Y-31798976D01*
X29180070Y-31783070D01*
X29195976Y-31768654D01*
X29213219Y-31755866D01*
X29231632Y-31744830D01*
X29251038Y-31735651D01*
X29271250Y-31728419D01*
X29292074Y-31723203D01*
X29313309Y-31720053D01*
X29334750Y-31719000D01*
X29847250Y-31719000D01*
X29868691Y-31720053D01*
X29868691Y-31720053D01*
G37*
D15*
X29591000Y-32156500D03*
D28*
X12081000Y-12566000D03*
X12081000Y-15866000D03*
D12*
X228917500Y-66675000D03*
X218757500Y-66675000D03*
D13*
X220027500Y-64135000D03*
D10*
X223837500Y-66675000D03*
D13*
X226377500Y-61595000D03*
D12*
X209867500Y-66675000D03*
X199707500Y-66675000D03*
D13*
X200977500Y-64135000D03*
D10*
X204787500Y-66675000D03*
D13*
X207327500Y-61595000D03*
D12*
X207486250Y-66675000D03*
X197326250Y-66675000D03*
D13*
X198596250Y-64135000D03*
D10*
X202406250Y-66675000D03*
D13*
X204946250Y-61595000D03*
D12*
X190817500Y-66675000D03*
X180657500Y-66675000D03*
D13*
X181927500Y-64135000D03*
D10*
X185737500Y-66675000D03*
D13*
X188277500Y-61595000D03*
D12*
X186055000Y-66675000D03*
X175895000Y-66675000D03*
D13*
X177165000Y-64135000D03*
D10*
X180975000Y-66675000D03*
D13*
X183515000Y-61595000D03*
D10*
X157162500Y-58420000D03*
X133350000Y-58420000D03*
D11*
X157162500Y-73660000D03*
X133350000Y-73660000D03*
D12*
X150336250Y-66675000D03*
X140176250Y-66675000D03*
D13*
X141446250Y-64135000D03*
D10*
X145256250Y-66675000D03*
D13*
X147796250Y-61595000D03*
D10*
X104775000Y-58420000D03*
X80962500Y-58420000D03*
D11*
X104775000Y-73660000D03*
X80962500Y-73660000D03*
D12*
X97948750Y-66675000D03*
X87788750Y-66675000D03*
D13*
X89058750Y-64135000D03*
D10*
X92868750Y-66675000D03*
D13*
X95408750Y-61595000D03*
D10*
X109537500Y-58420000D03*
X71437500Y-58420000D03*
D11*
X109537500Y-73660000D03*
X71437500Y-73660000D03*
D12*
X95567500Y-66675000D03*
X85407500Y-66675000D03*
D10*
X90487500Y-66675000D03*
D13*
X86677500Y-64135000D03*
X93027500Y-61595000D03*
D10*
X166681150Y-58420000D03*
X66681350Y-58420000D03*
D11*
X166681150Y-73660000D03*
X66681350Y-73660000D03*
D12*
X121761250Y-66675000D03*
X111601250Y-66675000D03*
D13*
X112871250Y-64135000D03*
D10*
X116681250Y-66675000D03*
D13*
X119221250Y-61595000D03*
D12*
X57467500Y-66675000D03*
X47307500Y-66675000D03*
D13*
X48577500Y-64135000D03*
D10*
X52387500Y-66675000D03*
D13*
X54927500Y-61595000D03*
D12*
X59848750Y-66675000D03*
X49688750Y-66675000D03*
D13*
X50958750Y-64135000D03*
D10*
X54768750Y-66675000D03*
D13*
X57308750Y-61595000D03*
D12*
X52705000Y-66675000D03*
X42545000Y-66675000D03*
D13*
X43815000Y-64135000D03*
D10*
X47625000Y-66675000D03*
D13*
X50165000Y-61595000D03*
D12*
X38417500Y-66675000D03*
X28257500Y-66675000D03*
D13*
X29527500Y-64135000D03*
D10*
X33337500Y-66675000D03*
D13*
X35877500Y-61595000D03*
D12*
X33655000Y-66675000D03*
X23495000Y-66675000D03*
D13*
X24765000Y-64135000D03*
D10*
X28575000Y-66675000D03*
D13*
X31115000Y-61595000D03*
D12*
X36036250Y-66675000D03*
X25876250Y-66675000D03*
D13*
X27146250Y-64135000D03*
D10*
X30956250Y-66675000D03*
D13*
X33496250Y-61595000D03*
D12*
X14605000Y-66675000D03*
X4445000Y-66675000D03*
D13*
X5715000Y-64135000D03*
D10*
X9525000Y-66675000D03*
D13*
X12065000Y-61595000D03*
D12*
X16986250Y-66675000D03*
X6826250Y-66675000D03*
D13*
X8096250Y-64135000D03*
D10*
X11906250Y-66675000D03*
D13*
X14446250Y-61595000D03*
D12*
X224155000Y-47625000D03*
X213995000Y-47625000D03*
D13*
X215265000Y-45085000D03*
D10*
X219075000Y-47625000D03*
D13*
X221615000Y-42545000D03*
D12*
X200342500Y-47625000D03*
X190182500Y-47625000D03*
D13*
X191452500Y-45085000D03*
D10*
X195262500Y-47625000D03*
D13*
X197802500Y-42545000D03*
D12*
X181292500Y-47625000D03*
X171132500Y-47625000D03*
D13*
X172402500Y-45085000D03*
D10*
X176212500Y-47625000D03*
D13*
X178752500Y-42545000D03*
D12*
X162242500Y-47625000D03*
X152082500Y-47625000D03*
D13*
X153352500Y-45085000D03*
D10*
X157162500Y-47625000D03*
D13*
X159702500Y-42545000D03*
D12*
X143192500Y-47625000D03*
X133032500Y-47625000D03*
D13*
X134302500Y-45085000D03*
D10*
X138112500Y-47625000D03*
D13*
X140652500Y-42545000D03*
D12*
X124142500Y-47625000D03*
X113982500Y-47625000D03*
D13*
X115252500Y-45085000D03*
D10*
X119062500Y-47625000D03*
D13*
X121602500Y-42545000D03*
D12*
X105092500Y-47625000D03*
X94932500Y-47625000D03*
D13*
X96202500Y-45085000D03*
D10*
X100012500Y-47625000D03*
D13*
X102552500Y-42545000D03*
D12*
X86042500Y-47625000D03*
X75882500Y-47625000D03*
D13*
X77152500Y-45085000D03*
D10*
X80962500Y-47625000D03*
D13*
X83502500Y-42545000D03*
D12*
X66992500Y-47625000D03*
X56832500Y-47625000D03*
D13*
X58102500Y-45085000D03*
D10*
X61912500Y-47625000D03*
D13*
X64452500Y-42545000D03*
D12*
X47942500Y-47625000D03*
X37782500Y-47625000D03*
D13*
X39052500Y-45085000D03*
D10*
X42862500Y-47625000D03*
D13*
X45402500Y-42545000D03*
D12*
X21748750Y-47625000D03*
X11588750Y-47625000D03*
D13*
X12858750Y-45085000D03*
D10*
X16668750Y-47625000D03*
D13*
X19208750Y-42545000D03*
D12*
X228917500Y-28575000D03*
X218757500Y-28575000D03*
D13*
X220027500Y-26035000D03*
D10*
X223837500Y-28575000D03*
D13*
X226377500Y-23495000D03*
D12*
X209867500Y-28575000D03*
X199707500Y-28575000D03*
D13*
X200977500Y-26035000D03*
D10*
X204787500Y-28575000D03*
D13*
X207327500Y-23495000D03*
D12*
X190817500Y-28575000D03*
X180657500Y-28575000D03*
D13*
X181927500Y-26035000D03*
D10*
X185737500Y-28575000D03*
D13*
X188277500Y-23495000D03*
D12*
X171767500Y-28575000D03*
X161607500Y-28575000D03*
D13*
X162877500Y-26035000D03*
D10*
X166687500Y-28575000D03*
D13*
X169227500Y-23495000D03*
D12*
X152717500Y-28575000D03*
X142557500Y-28575000D03*
D13*
X143827500Y-26035000D03*
D10*
X147637500Y-28575000D03*
D13*
X150177500Y-23495000D03*
D12*
X133667500Y-28575000D03*
X123507500Y-28575000D03*
D13*
X124777500Y-26035000D03*
D10*
X128587500Y-28575000D03*
D13*
X131127500Y-23495000D03*
D12*
X114617500Y-28575000D03*
X104457500Y-28575000D03*
D13*
X105727500Y-26035000D03*
D10*
X109537500Y-28575000D03*
D13*
X112077500Y-23495000D03*
D12*
X95567500Y-28575000D03*
X85407500Y-28575000D03*
D13*
X86677500Y-26035000D03*
D10*
X90487500Y-28575000D03*
D13*
X93027500Y-23495000D03*
D12*
X76517500Y-28575000D03*
X66357500Y-28575000D03*
D13*
X67627500Y-26035000D03*
D10*
X71437500Y-28575000D03*
D13*
X73977500Y-23495000D03*
D12*
X57467500Y-28575000D03*
X47307500Y-28575000D03*
D13*
X48577500Y-26035000D03*
D10*
X52387500Y-28575000D03*
D13*
X54927500Y-23495000D03*
D12*
X38417500Y-28575000D03*
X28257500Y-28575000D03*
D13*
X29527500Y-26035000D03*
D10*
X33337500Y-28575000D03*
D13*
X35877500Y-23495000D03*
D12*
X16986250Y-28575000D03*
X6826250Y-28575000D03*
D13*
X8096250Y-26035000D03*
D10*
X11906250Y-28575000D03*
D13*
X14446250Y-23495000D03*
D12*
X226536250Y-9525000D03*
X216376250Y-9525000D03*
D13*
X217646250Y-6985000D03*
D10*
X221456250Y-9525000D03*
D13*
X223996250Y-4445000D03*
D12*
X205105000Y-9525000D03*
X194945000Y-9525000D03*
D13*
X196215000Y-6985000D03*
D10*
X200025000Y-9525000D03*
D13*
X202565000Y-4445000D03*
D12*
X186055000Y-9525000D03*
X175895000Y-9525000D03*
D13*
X177165000Y-6985000D03*
D10*
X180975000Y-9525000D03*
D13*
X183515000Y-4445000D03*
D12*
X167005000Y-9525000D03*
X156845000Y-9525000D03*
D13*
X158115000Y-6985000D03*
D10*
X161925000Y-9525000D03*
D13*
X164465000Y-4445000D03*
D12*
X147955000Y-9525000D03*
X137795000Y-9525000D03*
D13*
X139065000Y-6985000D03*
D10*
X142875000Y-9525000D03*
D13*
X145415000Y-4445000D03*
D12*
X128905000Y-9525000D03*
X118745000Y-9525000D03*
D13*
X120015000Y-6985000D03*
D10*
X123825000Y-9525000D03*
D13*
X126365000Y-4445000D03*
D12*
X109855000Y-9525000D03*
X99695000Y-9525000D03*
D13*
X100965000Y-6985000D03*
D10*
X104775000Y-9525000D03*
D13*
X107315000Y-4445000D03*
D12*
X90805000Y-9525000D03*
X80645000Y-9525000D03*
D13*
X81915000Y-6985000D03*
D10*
X85725000Y-9525000D03*
D13*
X88265000Y-4445000D03*
D12*
X71755000Y-9525000D03*
X61595000Y-9525000D03*
D13*
X62865000Y-6985000D03*
D10*
X66675000Y-9525000D03*
D13*
X69215000Y-4445000D03*
D12*
X52705000Y-9525000D03*
X42545000Y-9525000D03*
D13*
X43815000Y-6985000D03*
D10*
X47625000Y-9525000D03*
D13*
X50165000Y-4445000D03*
D12*
X33655000Y-9525000D03*
X23495000Y-9525000D03*
D13*
X24765000Y-6985000D03*
D10*
X28575000Y-9525000D03*
D13*
X31115000Y-4445000D03*
D12*
X14605000Y-9525000D03*
X4445000Y-9525000D03*
D13*
X5715000Y-6985000D03*
D10*
X9525000Y-9525000D03*
D13*
X12065000Y-4445000D03*
D28*
X31131000Y-12566000D03*
X31131000Y-15866000D03*
X50181000Y-12566000D03*
X50181000Y-15866000D03*
X69231000Y-12566000D03*
X69231000Y-15866000D03*
X88281000Y-12566000D03*
X88281000Y-15866000D03*
X107331000Y-12566000D03*
X107331000Y-15866000D03*
X126381000Y-12566000D03*
X126381000Y-15866000D03*
X145431000Y-12566000D03*
X145431000Y-15866000D03*
X164481000Y-12566000D03*
X164481000Y-15866000D03*
X183531000Y-12566000D03*
X183531000Y-15866000D03*
X202581000Y-12566000D03*
X202581000Y-15866000D03*
X224028000Y-12574000D03*
X224028000Y-15874000D03*
X14478000Y-20065000D03*
X14478000Y-16765000D03*
X35893500Y-20057000D03*
X35893500Y-16757000D03*
X54943500Y-20057000D03*
X54943500Y-16757000D03*
X73993500Y-20057000D03*
X73993500Y-16757000D03*
X93043500Y-20057000D03*
X93043500Y-16757000D03*
X112093500Y-20057000D03*
X112093500Y-16757000D03*
X131143500Y-20057000D03*
X131143500Y-16757000D03*
X150193500Y-20057000D03*
X150193500Y-16757000D03*
X169243500Y-20057000D03*
X169243500Y-16757000D03*
X188293500Y-20057000D03*
X188293500Y-16757000D03*
X207343500Y-20057000D03*
X207343500Y-16757000D03*
X226393500Y-20057000D03*
X226393500Y-16757000D03*
X19177000Y-50666000D03*
X19177000Y-53966000D03*
X45418500Y-50666000D03*
X45418500Y-53966000D03*
X64468500Y-50666000D03*
X64468500Y-53966000D03*
X83518500Y-50666000D03*
X83518500Y-53966000D03*
X102568500Y-50666000D03*
X102568500Y-53966000D03*
X121618500Y-50666000D03*
X121618500Y-53966000D03*
X140668500Y-50666000D03*
X140668500Y-53966000D03*
X159718500Y-50666000D03*
X159718500Y-53966000D03*
X178768500Y-50666000D03*
X178768500Y-53966000D03*
X197818500Y-50666000D03*
X197818500Y-53966000D03*
X221615000Y-50674000D03*
X221615000Y-53974000D03*
X14478000Y-58165000D03*
X14478000Y-54865000D03*
X35941000Y-58165000D03*
X35941000Y-54865000D03*
X57404000Y-58165000D03*
X57404000Y-54865000D03*
X95504000Y-58165000D03*
X95504000Y-54865000D03*
X119253000Y-58165000D03*
X119253000Y-54865000D03*
X150241000Y-58165000D03*
X150241000Y-54865000D03*
X188341000Y-58165000D03*
X188341000Y-54865000D03*
X207391000Y-58165000D03*
X207391000Y-54865000D03*
X226441000Y-58157000D03*
X226441000Y-54857000D03*
M02*
